<mxfile host="Electron" modified="2023-11-25T20:08:17.427Z" agent="Mozilla/5.0 (Windows NT 10.0; Win64; x64) AppleWebKit/537.36 (KHTML, like Gecko) draw.io/22.0.2 Chrome/114.0.5735.289 Electron/25.8.4 Safari/537.36" etag="hxyEeknq0zIamGBdI0RR" version="22.0.2" type="device" pages="7">
  <diagram id="d1lWoQEldPHrHstSXFHr" name="The Transformer Model">
    <mxGraphModel dx="776" dy="508" grid="1" gridSize="10" guides="1" tooltips="1" connect="1" arrows="1" fold="1" page="1" pageScale="1" pageWidth="850" pageHeight="1100" math="0" shadow="0">
      <root>
        <mxCell id="0" />
        <mxCell id="1" parent="0" />
        <mxCell id="hgpvzmpeSKnKruebEykr-4" value="" style="rounded=1;whiteSpace=wrap;html=1;fontSize=16;fillColor=#f5f5f5;fontColor=#333333;strokeColor=none;" parent="1" vertex="1">
          <mxGeometry x="160" y="230" width="170" height="260" as="geometry" />
        </mxCell>
        <mxCell id="hgpvzmpeSKnKruebEykr-6" style="edgeStyle=none;curved=1;rounded=0;orthogonalLoop=1;jettySize=auto;html=1;entryX=0.5;entryY=0;entryDx=0;entryDy=0;fontSize=12;startSize=8;endSize=8;" parent="1" source="hgpvzmpeSKnKruebEykr-1" target="hgpvzmpeSKnKruebEykr-5" edge="1">
          <mxGeometry relative="1" as="geometry" />
        </mxCell>
        <mxCell id="hgpvzmpeSKnKruebEykr-1" value="Inputs" style="text;html=1;align=center;verticalAlign=middle;resizable=0;points=[];autosize=1;strokeColor=none;fillColor=none;fontSize=16;" parent="1" vertex="1">
          <mxGeometry x="195" y="60" width="70" height="30" as="geometry" />
        </mxCell>
        <mxCell id="2Q6_R0hFN37o6rblyGxX-20" style="edgeStyle=none;curved=1;rounded=0;orthogonalLoop=1;jettySize=auto;html=1;entryX=0.5;entryY=0;entryDx=0;entryDy=0;fontSize=12;startSize=8;endSize=8;" parent="1" source="hgpvzmpeSKnKruebEykr-2" target="2Q6_R0hFN37o6rblyGxX-19" edge="1">
          <mxGeometry relative="1" as="geometry" />
        </mxCell>
        <mxCell id="hgpvzmpeSKnKruebEykr-2" value="Outputs" style="text;html=1;align=center;verticalAlign=middle;resizable=0;points=[];autosize=1;strokeColor=none;fillColor=none;fontSize=16;" parent="1" vertex="1">
          <mxGeometry x="427.5" y="60" width="80" height="30" as="geometry" />
        </mxCell>
        <mxCell id="hgpvzmpeSKnKruebEykr-5" value="Input Embedding" style="rounded=1;whiteSpace=wrap;html=1;fontSize=16;" parent="1" vertex="1">
          <mxGeometry x="182.5" y="110" width="95" height="50" as="geometry" />
        </mxCell>
        <mxCell id="hgpvzmpeSKnKruebEykr-13" style="edgeStyle=none;curved=1;rounded=0;orthogonalLoop=1;jettySize=auto;html=1;entryX=0.5;entryY=0;entryDx=0;entryDy=0;fontSize=12;startSize=8;endSize=8;" parent="1" source="hgpvzmpeSKnKruebEykr-7" target="hgpvzmpeSKnKruebEykr-12" edge="1">
          <mxGeometry relative="1" as="geometry" />
        </mxCell>
        <mxCell id="hgpvzmpeSKnKruebEykr-7" value="" style="verticalLabelPosition=bottom;verticalAlign=top;html=1;shape=mxgraph.flowchart.summing_function;fontSize=16;" parent="1" vertex="1">
          <mxGeometry x="220" y="190" width="20" height="20" as="geometry" />
        </mxCell>
        <mxCell id="hgpvzmpeSKnKruebEykr-8" style="edgeStyle=none;curved=1;rounded=0;orthogonalLoop=1;jettySize=auto;html=1;entryX=0.5;entryY=0;entryDx=0;entryDy=0;entryPerimeter=0;fontSize=12;startSize=8;endSize=8;exitX=0.5;exitY=1;exitDx=0;exitDy=0;" parent="1" source="hgpvzmpeSKnKruebEykr-5" target="hgpvzmpeSKnKruebEykr-7" edge="1">
          <mxGeometry relative="1" as="geometry">
            <mxPoint x="230" y="169.9999999999999" as="sourcePoint" />
          </mxGeometry>
        </mxCell>
        <mxCell id="hgpvzmpeSKnKruebEykr-9" value="Positional Encoding" style="rounded=1;whiteSpace=wrap;html=1;fontSize=16;" parent="1" vertex="1">
          <mxGeometry x="100" y="175" width="82.5" height="50" as="geometry" />
        </mxCell>
        <mxCell id="hgpvzmpeSKnKruebEykr-10" style="edgeStyle=none;curved=1;rounded=0;orthogonalLoop=1;jettySize=auto;html=1;entryX=0;entryY=0.5;entryDx=0;entryDy=0;entryPerimeter=0;fontSize=12;startSize=8;endSize=8;" parent="1" source="hgpvzmpeSKnKruebEykr-9" target="hgpvzmpeSKnKruebEykr-7" edge="1">
          <mxGeometry relative="1" as="geometry" />
        </mxCell>
        <mxCell id="hgpvzmpeSKnKruebEykr-11" value="Encoder" style="text;html=1;align=center;verticalAlign=middle;resizable=0;points=[];autosize=1;strokeColor=none;fillColor=none;fontSize=16;" parent="1" vertex="1">
          <mxGeometry x="240" y="205" width="80" height="30" as="geometry" />
        </mxCell>
        <mxCell id="2Q6_R0hFN37o6rblyGxX-3" style="edgeStyle=none;curved=1;rounded=0;orthogonalLoop=1;jettySize=auto;html=1;entryX=0.5;entryY=0;entryDx=0;entryDy=0;fontSize=12;startSize=8;endSize=8;" parent="1" source="hgpvzmpeSKnKruebEykr-12" target="hgpvzmpeSKnKruebEykr-19" edge="1">
          <mxGeometry relative="1" as="geometry" />
        </mxCell>
        <mxCell id="hgpvzmpeSKnKruebEykr-12" value="Multi-Head Self-Attention" style="rounded=1;whiteSpace=wrap;html=1;fontSize=16;" parent="1" vertex="1">
          <mxGeometry x="172.5" y="260" width="115" height="60" as="geometry" />
        </mxCell>
        <mxCell id="2Q6_R0hFN37o6rblyGxX-5" style="edgeStyle=none;curved=1;rounded=0;orthogonalLoop=1;jettySize=auto;html=1;entryX=0.5;entryY=0;entryDx=0;entryDy=0;fontSize=12;startSize=8;endSize=8;" parent="1" source="hgpvzmpeSKnKruebEykr-19" target="2Q6_R0hFN37o6rblyGxX-4" edge="1">
          <mxGeometry relative="1" as="geometry" />
        </mxCell>
        <mxCell id="hgpvzmpeSKnKruebEykr-19" value="Add &amp;amp; Norm" style="rounded=1;whiteSpace=wrap;html=1;fontSize=16;" parent="1" vertex="1">
          <mxGeometry x="172.5" y="340" width="115" height="20" as="geometry" />
        </mxCell>
        <mxCell id="2Q6_R0hFN37o6rblyGxX-1" value="" style="edgeStyle=segmentEdgeStyle;endArrow=classic;html=1;curved=0;rounded=0;endSize=8;startSize=8;sourcePerimeterSpacing=0;targetPerimeterSpacing=0;fontSize=12;entryX=1;entryY=0.5;entryDx=0;entryDy=0;exitX=0.5;exitY=1;exitDx=0;exitDy=0;exitPerimeter=0;" parent="1" source="hgpvzmpeSKnKruebEykr-7" target="hgpvzmpeSKnKruebEykr-19" edge="1">
          <mxGeometry width="140" relative="1" as="geometry">
            <mxPoint x="343.75" y="220" as="sourcePoint" />
            <mxPoint x="403.75" y="295" as="targetPoint" />
            <Array as="points">
              <mxPoint x="230" y="240" />
              <mxPoint x="310" y="240" />
              <mxPoint x="310" y="350" />
            </Array>
          </mxGeometry>
        </mxCell>
        <mxCell id="2Q6_R0hFN37o6rblyGxX-2" value="Lx" style="text;html=1;align=center;verticalAlign=middle;resizable=0;points=[];autosize=1;strokeColor=none;fillColor=none;fontSize=16;" parent="1" vertex="1">
          <mxGeometry x="117.5" y="360" width="40" height="30" as="geometry" />
        </mxCell>
        <mxCell id="2Q6_R0hFN37o6rblyGxX-8" style="edgeStyle=none;curved=1;rounded=0;orthogonalLoop=1;jettySize=auto;html=1;entryX=0.5;entryY=0;entryDx=0;entryDy=0;fontSize=12;startSize=8;endSize=8;" parent="1" source="2Q6_R0hFN37o6rblyGxX-4" target="2Q6_R0hFN37o6rblyGxX-7" edge="1">
          <mxGeometry relative="1" as="geometry" />
        </mxCell>
        <mxCell id="2Q6_R0hFN37o6rblyGxX-4" value="Feed Forward" style="rounded=1;whiteSpace=wrap;html=1;fontSize=16;" parent="1" vertex="1">
          <mxGeometry x="172.5" y="400" width="115" height="40" as="geometry" />
        </mxCell>
        <mxCell id="2Q6_R0hFN37o6rblyGxX-6" value="" style="edgeStyle=segmentEdgeStyle;endArrow=classic;html=1;curved=0;rounded=0;endSize=8;startSize=8;sourcePerimeterSpacing=0;targetPerimeterSpacing=0;fontSize=12;entryX=1;entryY=0.5;entryDx=0;entryDy=0;exitX=0.5;exitY=1;exitDx=0;exitDy=0;" parent="1" source="hgpvzmpeSKnKruebEykr-19" target="2Q6_R0hFN37o6rblyGxX-7" edge="1">
          <mxGeometry width="140" relative="1" as="geometry">
            <mxPoint x="380" y="390" as="sourcePoint" />
            <mxPoint x="438" y="550" as="targetPoint" />
            <Array as="points">
              <mxPoint x="230" y="380" />
              <mxPoint x="310" y="380" />
              <mxPoint x="310" y="470" />
            </Array>
          </mxGeometry>
        </mxCell>
        <mxCell id="2Q6_R0hFN37o6rblyGxX-7" value="Add &amp;amp; Norm" style="rounded=1;whiteSpace=wrap;html=1;fontSize=16;" parent="1" vertex="1">
          <mxGeometry x="172.5" y="460" width="115" height="20" as="geometry" />
        </mxCell>
        <mxCell id="2Q6_R0hFN37o6rblyGxX-9" value="" style="rounded=1;whiteSpace=wrap;html=1;fontSize=16;fillColor=#f5f5f5;fontColor=#333333;strokeColor=none;" parent="1" vertex="1">
          <mxGeometry x="387.5" y="230" width="180" height="370" as="geometry" />
        </mxCell>
        <mxCell id="2Q6_R0hFN37o6rblyGxX-10" style="edgeStyle=none;curved=1;rounded=0;orthogonalLoop=1;jettySize=auto;html=1;entryX=0.5;entryY=0;entryDx=0;entryDy=0;fontSize=12;startSize=8;endSize=8;" parent="1" source="2Q6_R0hFN37o6rblyGxX-11" target="2Q6_R0hFN37o6rblyGxX-13" edge="1">
          <mxGeometry relative="1" as="geometry" />
        </mxCell>
        <mxCell id="2Q6_R0hFN37o6rblyGxX-11" value="Masked Multi-Head Self-Attention" style="rounded=1;whiteSpace=wrap;html=1;fontSize=16;" parent="1" vertex="1">
          <mxGeometry x="393.75" y="260" width="147.5" height="60" as="geometry" />
        </mxCell>
        <mxCell id="2Q6_R0hFN37o6rblyGxX-13" value="Add &amp;amp; Norm" style="rounded=1;whiteSpace=wrap;html=1;fontSize=16;" parent="1" vertex="1">
          <mxGeometry x="410" y="340" width="115" height="20" as="geometry" />
        </mxCell>
        <mxCell id="2Q6_R0hFN37o6rblyGxX-41" style="edgeStyle=none;curved=1;rounded=0;orthogonalLoop=1;jettySize=auto;html=1;entryX=0.5;entryY=0;entryDx=0;entryDy=0;fontSize=12;startSize=8;endSize=8;" parent="1" source="2Q6_R0hFN37o6rblyGxX-15" target="2Q6_R0hFN37o6rblyGxX-17" edge="1">
          <mxGeometry relative="1" as="geometry" />
        </mxCell>
        <mxCell id="2Q6_R0hFN37o6rblyGxX-15" value="Feed Forward" style="rounded=1;whiteSpace=wrap;html=1;fontSize=16;" parent="1" vertex="1">
          <mxGeometry x="410" y="510" width="115" height="40" as="geometry" />
        </mxCell>
        <mxCell id="2Q6_R0hFN37o6rblyGxX-49" style="edgeStyle=none;curved=1;rounded=0;orthogonalLoop=1;jettySize=auto;html=1;fontSize=12;startSize=8;endSize=8;" parent="1" source="2Q6_R0hFN37o6rblyGxX-17" target="2Q6_R0hFN37o6rblyGxX-44" edge="1">
          <mxGeometry relative="1" as="geometry" />
        </mxCell>
        <mxCell id="2Q6_R0hFN37o6rblyGxX-17" value="Add &amp;amp; Norm" style="rounded=1;whiteSpace=wrap;html=1;fontSize=16;" parent="1" vertex="1">
          <mxGeometry x="410" y="570" width="115" height="20" as="geometry" />
        </mxCell>
        <mxCell id="2Q6_R0hFN37o6rblyGxX-18" value="Decoder" style="text;html=1;align=center;verticalAlign=middle;resizable=0;points=[];autosize=1;strokeColor=none;fillColor=none;fontSize=16;" parent="1" vertex="1">
          <mxGeometry x="487.5" y="205" width="80" height="30" as="geometry" />
        </mxCell>
        <mxCell id="2Q6_R0hFN37o6rblyGxX-19" value="Output Embedding" style="rounded=1;whiteSpace=wrap;html=1;fontSize=16;" parent="1" vertex="1">
          <mxGeometry x="420" y="110" width="95" height="50" as="geometry" />
        </mxCell>
        <mxCell id="2Q6_R0hFN37o6rblyGxX-21" value="Positional Encoding" style="rounded=1;whiteSpace=wrap;html=1;fontSize=16;" parent="1" vertex="1">
          <mxGeometry x="340" y="170" width="80" height="50" as="geometry" />
        </mxCell>
        <mxCell id="2Q6_R0hFN37o6rblyGxX-28" style="edgeStyle=none;curved=1;rounded=0;orthogonalLoop=1;jettySize=auto;html=1;entryX=0.5;entryY=0;entryDx=0;entryDy=0;fontSize=12;startSize=8;endSize=8;" parent="1" source="2Q6_R0hFN37o6rblyGxX-22" target="2Q6_R0hFN37o6rblyGxX-11" edge="1">
          <mxGeometry relative="1" as="geometry" />
        </mxCell>
        <mxCell id="2Q6_R0hFN37o6rblyGxX-22" value="" style="verticalLabelPosition=bottom;verticalAlign=top;html=1;shape=mxgraph.flowchart.summing_function;fontSize=16;" parent="1" vertex="1">
          <mxGeometry x="457.5" y="185" width="20" height="20" as="geometry" />
        </mxCell>
        <mxCell id="2Q6_R0hFN37o6rblyGxX-23" style="edgeStyle=none;curved=1;rounded=0;orthogonalLoop=1;jettySize=auto;html=1;entryX=0;entryY=0.5;entryDx=0;entryDy=0;entryPerimeter=0;fontSize=12;startSize=8;endSize=8;" parent="1" source="2Q6_R0hFN37o6rblyGxX-21" target="2Q6_R0hFN37o6rblyGxX-22" edge="1">
          <mxGeometry relative="1" as="geometry" />
        </mxCell>
        <mxCell id="2Q6_R0hFN37o6rblyGxX-24" style="edgeStyle=none;curved=1;rounded=0;orthogonalLoop=1;jettySize=auto;html=1;entryX=0.5;entryY=0;entryDx=0;entryDy=0;entryPerimeter=0;fontSize=12;startSize=8;endSize=8;" parent="1" source="2Q6_R0hFN37o6rblyGxX-19" target="2Q6_R0hFN37o6rblyGxX-22" edge="1">
          <mxGeometry relative="1" as="geometry" />
        </mxCell>
        <mxCell id="2Q6_R0hFN37o6rblyGxX-27" value="" style="edgeStyle=segmentEdgeStyle;endArrow=classic;html=1;curved=0;rounded=0;endSize=8;startSize=8;sourcePerimeterSpacing=0;targetPerimeterSpacing=0;fontSize=12;entryX=1;entryY=0.5;entryDx=0;entryDy=0;exitX=0.5;exitY=1;exitDx=0;exitDy=0;exitPerimeter=0;" parent="1" target="2Q6_R0hFN37o6rblyGxX-13" edge="1">
          <mxGeometry width="140" relative="1" as="geometry">
            <mxPoint x="467.5" y="205" as="sourcePoint" />
            <mxPoint x="525.5" y="345" as="targetPoint" />
            <Array as="points">
              <mxPoint x="467.5" y="240" />
              <mxPoint x="547.5" y="240" />
              <mxPoint x="547.5" y="350" />
            </Array>
          </mxGeometry>
        </mxCell>
        <mxCell id="2Q6_R0hFN37o6rblyGxX-39" style="edgeStyle=none;curved=1;rounded=0;orthogonalLoop=1;jettySize=auto;html=1;entryX=0.5;entryY=0;entryDx=0;entryDy=0;fontSize=12;startSize=8;endSize=8;" parent="1" source="2Q6_R0hFN37o6rblyGxX-29" target="2Q6_R0hFN37o6rblyGxX-37" edge="1">
          <mxGeometry relative="1" as="geometry" />
        </mxCell>
        <mxCell id="2Q6_R0hFN37o6rblyGxX-29" value="Multi-Head Attention" style="rounded=1;whiteSpace=wrap;html=1;fontSize=16;" parent="1" vertex="1">
          <mxGeometry x="413.75" y="395" width="107.5" height="50" as="geometry" />
        </mxCell>
        <mxCell id="2Q6_R0hFN37o6rblyGxX-34" value="" style="edgeStyle=segmentEdgeStyle;endArrow=classic;html=1;curved=0;rounded=0;endSize=8;startSize=8;sourcePerimeterSpacing=0;targetPerimeterSpacing=0;fontSize=12;entryX=0.5;entryY=0;entryDx=0;entryDy=0;exitX=0.5;exitY=1;exitDx=0;exitDy=0;" parent="1" source="2Q6_R0hFN37o6rblyGxX-7" target="2Q6_R0hFN37o6rblyGxX-29" edge="1">
          <mxGeometry width="140" relative="1" as="geometry">
            <mxPoint x="330" y="490" as="sourcePoint" />
            <mxPoint x="388" y="600" as="targetPoint" />
            <Array as="points">
              <mxPoint x="230" y="500" />
              <mxPoint x="360" y="500" />
              <mxPoint x="360" y="370" />
              <mxPoint x="468" y="370" />
              <mxPoint x="468" y="395" />
            </Array>
          </mxGeometry>
        </mxCell>
        <mxCell id="2Q6_R0hFN37o6rblyGxX-35" value="" style="edgeStyle=segmentEdgeStyle;endArrow=classic;html=1;curved=0;rounded=0;endSize=8;startSize=8;sourcePerimeterSpacing=0;targetPerimeterSpacing=0;fontSize=12;entryX=0.25;entryY=0;entryDx=0;entryDy=0;" parent="1" target="2Q6_R0hFN37o6rblyGxX-29" edge="1">
          <mxGeometry width="140" relative="1" as="geometry">
            <mxPoint x="230" y="480" as="sourcePoint" />
            <mxPoint x="486" y="405" as="targetPoint" />
            <Array as="points">
              <mxPoint x="230" y="500" />
              <mxPoint x="360" y="500" />
              <mxPoint x="360" y="370" />
              <mxPoint x="440" y="370" />
              <mxPoint x="440" y="395" />
            </Array>
          </mxGeometry>
        </mxCell>
        <mxCell id="2Q6_R0hFN37o6rblyGxX-36" value="" style="edgeStyle=segmentEdgeStyle;endArrow=classic;html=1;curved=0;rounded=0;endSize=8;startSize=8;sourcePerimeterSpacing=0;targetPerimeterSpacing=0;fontSize=12;entryX=0.75;entryY=0;entryDx=0;entryDy=0;exitX=0.5;exitY=1;exitDx=0;exitDy=0;" parent="1" source="2Q6_R0hFN37o6rblyGxX-13" target="2Q6_R0hFN37o6rblyGxX-29" edge="1">
          <mxGeometry width="140" relative="1" as="geometry">
            <mxPoint x="477.5" y="215" as="sourcePoint" />
            <mxPoint x="535.5" y="360" as="targetPoint" />
            <Array as="points">
              <mxPoint x="494.5" y="360" />
            </Array>
          </mxGeometry>
        </mxCell>
        <mxCell id="2Q6_R0hFN37o6rblyGxX-40" style="edgeStyle=none;curved=1;rounded=0;orthogonalLoop=1;jettySize=auto;html=1;entryX=0.5;entryY=0;entryDx=0;entryDy=0;fontSize=12;startSize=8;endSize=8;" parent="1" source="2Q6_R0hFN37o6rblyGxX-37" target="2Q6_R0hFN37o6rblyGxX-15" edge="1">
          <mxGeometry relative="1" as="geometry" />
        </mxCell>
        <mxCell id="2Q6_R0hFN37o6rblyGxX-37" value="Add &amp;amp; Norm" style="rounded=1;whiteSpace=wrap;html=1;fontSize=16;" parent="1" vertex="1">
          <mxGeometry x="410" y="460" width="115" height="20" as="geometry" />
        </mxCell>
        <mxCell id="2Q6_R0hFN37o6rblyGxX-38" value="" style="edgeStyle=segmentEdgeStyle;endArrow=classic;html=1;curved=0;rounded=0;endSize=8;startSize=8;sourcePerimeterSpacing=0;targetPerimeterSpacing=0;fontSize=12;entryX=1;entryY=0.5;entryDx=0;entryDy=0;exitX=0.5;exitY=1;exitDx=0;exitDy=0;" parent="1" target="2Q6_R0hFN37o6rblyGxX-37" edge="1">
          <mxGeometry width="140" relative="1" as="geometry">
            <mxPoint x="494.25" y="370" as="sourcePoint" />
            <mxPoint x="521.25" y="405" as="targetPoint" />
            <Array as="points">
              <mxPoint x="547.5" y="370" />
              <mxPoint x="547.5" y="470" />
            </Array>
          </mxGeometry>
        </mxCell>
        <mxCell id="2Q6_R0hFN37o6rblyGxX-43" value="" style="edgeStyle=segmentEdgeStyle;endArrow=classic;html=1;curved=0;rounded=0;endSize=8;startSize=8;sourcePerimeterSpacing=0;targetPerimeterSpacing=0;fontSize=12;" parent="1" edge="1">
          <mxGeometry width="140" relative="1" as="geometry">
            <mxPoint x="467.5" y="480" as="sourcePoint" />
            <mxPoint x="525.5" y="580" as="targetPoint" />
            <Array as="points">
              <mxPoint x="467.5" y="490" />
              <mxPoint x="547.5" y="490" />
              <mxPoint x="547.5" y="580" />
              <mxPoint x="525.5" y="580" />
            </Array>
          </mxGeometry>
        </mxCell>
        <mxCell id="2Q6_R0hFN37o6rblyGxX-50" style="edgeStyle=none;curved=1;rounded=0;orthogonalLoop=1;jettySize=auto;html=1;entryX=0.5;entryY=0;entryDx=0;entryDy=0;fontSize=12;startSize=8;endSize=8;" parent="1" source="2Q6_R0hFN37o6rblyGxX-44" target="2Q6_R0hFN37o6rblyGxX-46" edge="1">
          <mxGeometry relative="1" as="geometry" />
        </mxCell>
        <mxCell id="2Q6_R0hFN37o6rblyGxX-44" value="Linear" style="rounded=1;whiteSpace=wrap;html=1;fontSize=16;" parent="1" vertex="1">
          <mxGeometry x="195" y="570" width="115" height="20" as="geometry" />
        </mxCell>
        <mxCell id="2Q6_R0hFN37o6rblyGxX-51" style="edgeStyle=none;curved=1;rounded=0;orthogonalLoop=1;jettySize=auto;html=1;fontSize=12;startSize=8;endSize=8;" parent="1" source="2Q6_R0hFN37o6rblyGxX-46" target="2Q6_R0hFN37o6rblyGxX-48" edge="1">
          <mxGeometry relative="1" as="geometry" />
        </mxCell>
        <mxCell id="2Q6_R0hFN37o6rblyGxX-46" value="Softmax" style="rounded=1;whiteSpace=wrap;html=1;fontSize=16;" parent="1" vertex="1">
          <mxGeometry x="195" y="610" width="115" height="20" as="geometry" />
        </mxCell>
        <mxCell id="2Q6_R0hFN37o6rblyGxX-48" value="Output Probabilities" style="text;html=1;align=center;verticalAlign=middle;resizable=0;points=[];autosize=1;strokeColor=none;fillColor=none;fontSize=16;" parent="1" vertex="1">
          <mxGeometry x="381.25" y="605" width="160" height="30" as="geometry" />
        </mxCell>
        <mxCell id="BNxw6ZjkpDgznhMmQE-v-1" value="Lx" style="text;html=1;align=center;verticalAlign=middle;resizable=0;points=[];autosize=1;strokeColor=none;fillColor=none;fontSize=16;" parent="1" vertex="1">
          <mxGeometry x="567.5" y="360" width="40" height="30" as="geometry" />
        </mxCell>
      </root>
    </mxGraphModel>
  </diagram>
  <diagram id="oWVmV4YQCUjNh1N9dkB6" name="linear layer">
    <mxGraphModel dx="819" dy="506" grid="1" gridSize="10" guides="1" tooltips="1" connect="1" arrows="1" fold="1" page="1" pageScale="1" pageWidth="850" pageHeight="1100" math="0" shadow="0">
      <root>
        <mxCell id="0" />
        <mxCell id="1" parent="0" />
        <mxCell id="5JZzrBMU9p5WCy2Cy2pd-37" value="" style="endArrow=none;html=1;rounded=0;fontSize=12;startSize=8;endSize=8;curved=1;entryX=0.5;entryY=0;entryDx=0;entryDy=0;exitX=0.5;exitY=1;exitDx=0;exitDy=0;" edge="1" parent="1" source="5JZzrBMU9p5WCy2Cy2pd-4" target="5JZzrBMU9p5WCy2Cy2pd-8">
          <mxGeometry width="50" height="50" relative="1" as="geometry">
            <mxPoint x="200" y="220" as="sourcePoint" />
            <mxPoint x="440" y="340" as="targetPoint" />
          </mxGeometry>
        </mxCell>
        <mxCell id="5JZzrBMU9p5WCy2Cy2pd-2" value="x&lt;sub&gt;n&lt;/sub&gt;" style="ellipse;whiteSpace=wrap;html=1;aspect=fixed;fontSize=16;" vertex="1" parent="1">
          <mxGeometry x="280" y="80" width="40" height="40" as="geometry" />
        </mxCell>
        <mxCell id="5JZzrBMU9p5WCy2Cy2pd-3" value="..." style="ellipse;whiteSpace=wrap;html=1;aspect=fixed;fontSize=16;" vertex="1" parent="1">
          <mxGeometry x="200" y="80" width="40" height="40" as="geometry" />
        </mxCell>
        <mxCell id="5JZzrBMU9p5WCy2Cy2pd-4" value="x&lt;sub&gt;1&lt;/sub&gt;" style="ellipse;whiteSpace=wrap;html=1;aspect=fixed;fontSize=16;" vertex="1" parent="1">
          <mxGeometry x="120" y="80" width="40" height="40" as="geometry" />
        </mxCell>
        <mxCell id="5JZzrBMU9p5WCy2Cy2pd-5" value="..." style="ellipse;whiteSpace=wrap;html=1;aspect=fixed;fontSize=16;" vertex="1" parent="1">
          <mxGeometry x="240" y="180" width="40" height="40" as="geometry" />
        </mxCell>
        <mxCell id="5JZzrBMU9p5WCy2Cy2pd-6" value="..." style="ellipse;whiteSpace=wrap;html=1;aspect=fixed;fontSize=16;" vertex="1" parent="1">
          <mxGeometry x="160" y="180" width="40" height="40" as="geometry" />
        </mxCell>
        <mxCell id="5JZzrBMU9p5WCy2Cy2pd-7" value="x&lt;sup&gt;&#39;&lt;/sup&gt;&lt;sub&gt;1&lt;/sub&gt;" style="ellipse;whiteSpace=wrap;html=1;aspect=fixed;fontSize=16;" vertex="1" parent="1">
          <mxGeometry x="80" y="180" width="40" height="40" as="geometry" />
        </mxCell>
        <mxCell id="5JZzrBMU9p5WCy2Cy2pd-8" value="x&lt;sup style=&quot;border-color: var(--border-color);&quot;&gt;&#39;&lt;/sup&gt;&lt;sub style=&quot;border-color: var(--border-color);&quot;&gt;m&lt;/sub&gt;" style="ellipse;whiteSpace=wrap;html=1;aspect=fixed;fontSize=16;" vertex="1" parent="1">
          <mxGeometry x="320" y="180" width="40" height="40" as="geometry" />
        </mxCell>
        <mxCell id="5JZzrBMU9p5WCy2Cy2pd-12" value="" style="endArrow=none;html=1;rounded=0;fontSize=12;startSize=8;endSize=8;curved=1;entryX=0.5;entryY=0;entryDx=0;entryDy=0;exitX=0.5;exitY=1;exitDx=0;exitDy=0;" edge="1" parent="1" source="5JZzrBMU9p5WCy2Cy2pd-2" target="5JZzrBMU9p5WCy2Cy2pd-8">
          <mxGeometry width="50" height="50" relative="1" as="geometry">
            <mxPoint x="210" y="470" as="sourcePoint" />
            <mxPoint x="290" y="430" as="targetPoint" />
          </mxGeometry>
        </mxCell>
        <mxCell id="5JZzrBMU9p5WCy2Cy2pd-13" value="" style="endArrow=none;html=1;rounded=0;fontSize=12;startSize=8;endSize=8;curved=1;entryX=0.5;entryY=0;entryDx=0;entryDy=0;exitX=0.5;exitY=1;exitDx=0;exitDy=0;" edge="1" parent="1" source="5JZzrBMU9p5WCy2Cy2pd-3" target="5JZzrBMU9p5WCy2Cy2pd-6">
          <mxGeometry width="50" height="50" relative="1" as="geometry">
            <mxPoint x="210" y="390" as="sourcePoint" />
            <mxPoint x="290" y="430" as="targetPoint" />
          </mxGeometry>
        </mxCell>
        <mxCell id="5JZzrBMU9p5WCy2Cy2pd-14" value="" style="endArrow=none;html=1;rounded=0;fontSize=12;startSize=8;endSize=8;curved=1;entryX=0.5;entryY=0;entryDx=0;entryDy=0;exitX=0.5;exitY=1;exitDx=0;exitDy=0;" edge="1" parent="1" source="5JZzrBMU9p5WCy2Cy2pd-2" target="5JZzrBMU9p5WCy2Cy2pd-5">
          <mxGeometry width="50" height="50" relative="1" as="geometry">
            <mxPoint x="220" y="400" as="sourcePoint" />
            <mxPoint x="300" y="440" as="targetPoint" />
          </mxGeometry>
        </mxCell>
        <mxCell id="5JZzrBMU9p5WCy2Cy2pd-15" value="" style="endArrow=none;html=1;rounded=0;fontSize=12;startSize=8;endSize=8;curved=1;exitX=0.5;exitY=1;exitDx=0;exitDy=0;entryX=0.5;entryY=0;entryDx=0;entryDy=0;" edge="1" parent="1" source="5JZzrBMU9p5WCy2Cy2pd-3" target="5JZzrBMU9p5WCy2Cy2pd-5">
          <mxGeometry width="50" height="50" relative="1" as="geometry">
            <mxPoint x="200" y="300" as="sourcePoint" />
            <mxPoint x="260" y="160" as="targetPoint" />
          </mxGeometry>
        </mxCell>
        <mxCell id="5JZzrBMU9p5WCy2Cy2pd-16" value="" style="endArrow=none;html=1;rounded=0;fontSize=12;startSize=8;endSize=8;curved=1;entryX=0.5;entryY=0;entryDx=0;entryDy=0;exitX=0.5;exitY=1;exitDx=0;exitDy=0;" edge="1" parent="1" source="5JZzrBMU9p5WCy2Cy2pd-4" target="5JZzrBMU9p5WCy2Cy2pd-6">
          <mxGeometry width="50" height="50" relative="1" as="geometry">
            <mxPoint x="210" y="310" as="sourcePoint" />
            <mxPoint x="290" y="270" as="targetPoint" />
          </mxGeometry>
        </mxCell>
        <mxCell id="5JZzrBMU9p5WCy2Cy2pd-17" value="" style="endArrow=none;html=1;rounded=0;fontSize=12;startSize=8;endSize=8;curved=1;entryX=0.5;entryY=0;entryDx=0;entryDy=0;exitX=0.5;exitY=1;exitDx=0;exitDy=0;" edge="1" parent="1" source="5JZzrBMU9p5WCy2Cy2pd-4" target="5JZzrBMU9p5WCy2Cy2pd-7">
          <mxGeometry width="50" height="50" relative="1" as="geometry">
            <mxPoint x="220" y="320" as="sourcePoint" />
            <mxPoint x="300" y="280" as="targetPoint" />
          </mxGeometry>
        </mxCell>
        <mxCell id="5JZzrBMU9p5WCy2Cy2pd-28" value="" style="endArrow=none;html=1;rounded=0;fontSize=12;startSize=8;endSize=8;curved=1;entryX=0;entryY=1;entryDx=0;entryDy=0;exitX=0.5;exitY=1;exitDx=0;exitDy=0;" edge="1" parent="1" source="5JZzrBMU9p5WCy2Cy2pd-27">
          <mxGeometry width="50" height="50" relative="1" as="geometry">
            <mxPoint x="210" y="480" as="sourcePoint" />
            <mxPoint x="325.85786437626905" y="214.14213562373095" as="targetPoint" />
          </mxGeometry>
        </mxCell>
        <mxCell id="5JZzrBMU9p5WCy2Cy2pd-32" value="" style="endArrow=none;html=1;rounded=0;fontSize=12;startSize=8;endSize=8;curved=1;entryX=0.5;entryY=0;entryDx=0;entryDy=0;exitX=0.5;exitY=1;exitDx=0;exitDy=0;" edge="1" parent="1" source="5JZzrBMU9p5WCy2Cy2pd-4" target="5JZzrBMU9p5WCy2Cy2pd-5">
          <mxGeometry width="50" height="50" relative="1" as="geometry">
            <mxPoint x="200" y="220" as="sourcePoint" />
            <mxPoint x="290" y="270" as="targetPoint" />
          </mxGeometry>
        </mxCell>
        <mxCell id="5JZzrBMU9p5WCy2Cy2pd-33" value="" style="endArrow=none;html=1;rounded=0;fontSize=12;startSize=8;endSize=8;curved=1;exitX=0.5;exitY=1;exitDx=0;exitDy=0;entryX=0.5;entryY=0;entryDx=0;entryDy=0;" edge="1" parent="1" source="5JZzrBMU9p5WCy2Cy2pd-3" target="5JZzrBMU9p5WCy2Cy2pd-7">
          <mxGeometry width="50" height="50" relative="1" as="geometry">
            <mxPoint x="400" y="230" as="sourcePoint" />
            <mxPoint x="400" y="300" as="targetPoint" />
          </mxGeometry>
        </mxCell>
        <mxCell id="5JZzrBMU9p5WCy2Cy2pd-34" value="" style="endArrow=none;html=1;rounded=0;fontSize=12;startSize=8;endSize=8;curved=1;exitX=0.5;exitY=1;exitDx=0;exitDy=0;entryX=0.5;entryY=0;entryDx=0;entryDy=0;" edge="1" parent="1" source="5JZzrBMU9p5WCy2Cy2pd-2" target="5JZzrBMU9p5WCy2Cy2pd-6">
          <mxGeometry width="50" height="50" relative="1" as="geometry">
            <mxPoint x="410" y="240" as="sourcePoint" />
            <mxPoint x="410" y="310" as="targetPoint" />
          </mxGeometry>
        </mxCell>
        <mxCell id="5JZzrBMU9p5WCy2Cy2pd-38" value="" style="endArrow=none;html=1;rounded=0;fontSize=12;startSize=8;endSize=8;curved=1;entryX=0.5;entryY=1;entryDx=0;entryDy=0;exitX=0.5;exitY=0;exitDx=0;exitDy=0;" edge="1" parent="1" source="5JZzrBMU9p5WCy2Cy2pd-7" target="5JZzrBMU9p5WCy2Cy2pd-2">
          <mxGeometry width="50" height="50" relative="1" as="geometry">
            <mxPoint x="100" y="170" as="sourcePoint" />
            <mxPoint x="110" y="380" as="targetPoint" />
          </mxGeometry>
        </mxCell>
        <mxCell id="5JZzrBMU9p5WCy2Cy2pd-42" value="" style="endArrow=none;html=1;rounded=0;fontSize=12;startSize=8;endSize=8;curved=1;entryX=0.5;entryY=1;entryDx=0;entryDy=0;exitX=0.5;exitY=0;exitDx=0;exitDy=0;" edge="1" parent="1" source="5JZzrBMU9p5WCy2Cy2pd-8" target="5JZzrBMU9p5WCy2Cy2pd-3">
          <mxGeometry width="50" height="50" relative="1" as="geometry">
            <mxPoint x="210" y="310" as="sourcePoint" />
            <mxPoint x="290" y="270" as="targetPoint" />
          </mxGeometry>
        </mxCell>
        <mxCell id="5JZzrBMU9p5WCy2Cy2pd-27" value="b&lt;sub&gt;m&lt;/sub&gt;" style="ellipse;whiteSpace=wrap;html=1;aspect=fixed;fontSize=16;" vertex="1" parent="1">
          <mxGeometry x="300" y="220" width="30" height="30" as="geometry" />
        </mxCell>
        <mxCell id="5JZzrBMU9p5WCy2Cy2pd-49" value="w&lt;sub&gt;1,1&lt;/sub&gt;" style="text;html=1;align=center;verticalAlign=middle;resizable=0;points=[];autosize=1;strokeColor=none;fillColor=none;fontSize=16;" vertex="1" parent="1">
          <mxGeometry x="75" y="120" width="50" height="40" as="geometry" />
        </mxCell>
        <mxCell id="5JZzrBMU9p5WCy2Cy2pd-50" value="w&lt;sub&gt;n,m&lt;/sub&gt;" style="text;html=1;align=center;verticalAlign=middle;resizable=0;points=[];autosize=1;strokeColor=none;fillColor=none;fontSize=16;" vertex="1" parent="1">
          <mxGeometry x="310" y="120" width="60" height="40" as="geometry" />
        </mxCell>
        <mxCell id="5JZzrBMU9p5WCy2Cy2pd-51" value="" style="endArrow=none;html=1;rounded=0;fontSize=12;startSize=8;endSize=8;curved=1;entryX=0;entryY=1;entryDx=0;entryDy=0;exitX=0.5;exitY=1;exitDx=0;exitDy=0;" edge="1" parent="1" source="5JZzrBMU9p5WCy2Cy2pd-52" target="5JZzrBMU9p5WCy2Cy2pd-5">
          <mxGeometry width="50" height="50" relative="1" as="geometry">
            <mxPoint x="132" y="483" as="sourcePoint" />
            <mxPoint x="248" y="217" as="targetPoint" />
          </mxGeometry>
        </mxCell>
        <mxCell id="5JZzrBMU9p5WCy2Cy2pd-52" value="b&lt;sub&gt;...&lt;/sub&gt;" style="ellipse;whiteSpace=wrap;html=1;aspect=fixed;fontSize=16;" vertex="1" parent="1">
          <mxGeometry x="215" y="223" width="30" height="30" as="geometry" />
        </mxCell>
        <mxCell id="5JZzrBMU9p5WCy2Cy2pd-53" value="" style="endArrow=none;html=1;rounded=0;fontSize=12;startSize=8;endSize=8;curved=1;entryX=0;entryY=1;entryDx=0;entryDy=0;exitX=0.5;exitY=1;exitDx=0;exitDy=0;" edge="1" parent="1" source="5JZzrBMU9p5WCy2Cy2pd-54" target="5JZzrBMU9p5WCy2Cy2pd-6">
          <mxGeometry width="50" height="50" relative="1" as="geometry">
            <mxPoint x="60" y="483" as="sourcePoint" />
            <mxPoint x="176" y="217" as="targetPoint" />
          </mxGeometry>
        </mxCell>
        <mxCell id="5JZzrBMU9p5WCy2Cy2pd-54" value="b&lt;sub&gt;...&lt;/sub&gt;" style="ellipse;whiteSpace=wrap;html=1;aspect=fixed;fontSize=16;" vertex="1" parent="1">
          <mxGeometry x="140" y="223" width="30" height="30" as="geometry" />
        </mxCell>
        <mxCell id="5JZzrBMU9p5WCy2Cy2pd-55" value="" style="endArrow=none;html=1;rounded=0;fontSize=12;startSize=8;endSize=8;curved=1;entryX=0;entryY=1;entryDx=0;entryDy=0;exitX=0.5;exitY=1;exitDx=0;exitDy=0;" edge="1" parent="1" source="5JZzrBMU9p5WCy2Cy2pd-56" target="5JZzrBMU9p5WCy2Cy2pd-7">
          <mxGeometry width="50" height="50" relative="1" as="geometry">
            <mxPoint x="-20" y="480" as="sourcePoint" />
            <mxPoint x="96" y="214" as="targetPoint" />
          </mxGeometry>
        </mxCell>
        <mxCell id="5JZzrBMU9p5WCy2Cy2pd-56" value="b&lt;sub&gt;1&lt;/sub&gt;" style="ellipse;whiteSpace=wrap;html=1;aspect=fixed;fontSize=16;" vertex="1" parent="1">
          <mxGeometry x="60" y="223" width="30" height="30" as="geometry" />
        </mxCell>
      </root>
    </mxGraphModel>
  </diagram>
  <diagram id="mMecsccmIzHcDh9jjWUO" name="word embedding">
    <mxGraphModel dx="1103" dy="682" grid="1" gridSize="10" guides="1" tooltips="1" connect="1" arrows="1" fold="1" page="1" pageScale="1" pageWidth="850" pageHeight="1100" math="0" shadow="0">
      <root>
        <mxCell id="0" />
        <mxCell id="1" parent="0" />
        <mxCell id="sMV6tfci7w9dKbE0qrt4-1" value="Embedding Matrix" style="rounded=0;whiteSpace=wrap;html=1;fontSize=16;fillColor=#f5f5f5;fontColor=#333333;strokeColor=#666666;" vertex="1" parent="1">
          <mxGeometry x="310" y="260" width="150" height="80" as="geometry" />
        </mxCell>
        <mxCell id="sMV6tfci7w9dKbE0qrt4-2" value="d&lt;sub&gt;model&lt;/sub&gt;" style="text;html=1;align=center;verticalAlign=middle;resizable=0;points=[];autosize=1;strokeColor=none;fillColor=none;fontSize=16;" vertex="1" parent="1">
          <mxGeometry x="350" y="220" width="70" height="40" as="geometry" />
        </mxCell>
        <mxCell id="sMV6tfci7w9dKbE0qrt4-3" value="|V|" style="text;html=1;align=center;verticalAlign=middle;resizable=0;points=[];autosize=1;strokeColor=none;fillColor=none;fontSize=16;" vertex="1" parent="1">
          <mxGeometry x="460" y="285" width="40" height="30" as="geometry" />
        </mxCell>
        <mxCell id="sMV6tfci7w9dKbE0qrt4-16" value="t&lt;sub style=&quot;font-size: 16px;&quot;&gt;1&lt;/sub&gt;" style="text;html=1;align=center;verticalAlign=middle;resizable=0;points=[];autosize=1;strokeColor=none;fillColor=none;fontSize=16;spacing=-3;" vertex="1" parent="1">
          <mxGeometry x="275" y="258" width="21" height="25" as="geometry" />
        </mxCell>
        <mxCell id="sMV6tfci7w9dKbE0qrt4-17" value="..." style="text;html=1;align=center;verticalAlign=middle;resizable=0;points=[];autosize=1;strokeColor=none;fillColor=none;fontSize=16;spacing=-3;" vertex="1" parent="1">
          <mxGeometry x="270" y="285" width="30" height="20" as="geometry" />
        </mxCell>
        <mxCell id="sMV6tfci7w9dKbE0qrt4-18" value="t&lt;sub&gt;|V|&lt;/sub&gt;" style="text;html=1;align=center;verticalAlign=middle;resizable=0;points=[];autosize=1;strokeColor=none;fillColor=none;fontSize=16;spacing=-3;" vertex="1" parent="1">
          <mxGeometry x="271" y="313" width="28" height="25" as="geometry" />
        </mxCell>
        <mxCell id="sMV6tfci7w9dKbE0qrt4-22" value="" style="shape=image;verticalLabelPosition=bottom;labelBackgroundColor=default;verticalAlign=top;aspect=fixed;imageAspect=0;image=data:image/png,iVBORw0KGgoAAAANSUhEUgAAAuEAAAI7CAYAAABC5UXbAAAAAXNSR0IArs4c6QAAAARnQU1BAACxjwv8YQUAAAAJcEhZcwAADsMAAA7DAcdvqGQAAP+lSURBVHhe7L0HeFzHebb9ogMECYAECZIg2HsnRRWq9y5bkiW517jHTnG+K/EfO8lnJ86XxHGcxInjJnfHktUlq/cuUZTYe+8kSIIEid7/vYcYaQUDxC6w5ezuc+taLbjlnDlnz5l55pl33skaO66qy4QQQgghhBAJI6srRPffQgghhBBCiASQ3f0shBBCCCGESBAS4UIIIYQQQiQYiXAhhBBCCCESjES4EEIIIYQQCUYiXAghhBBCiAQjES6EEEIIIUSCkQgXQgghhBAiwUiECyGEEEIIkWAkwoUQQgghhEgwEuFCCCGEEEIkGIlwIYQQQgghEoxEuBBCCCGEEAlGIlwIIYQQQogEIxEuhBBCCCFEgpEIF0IIIYQQIsFIhAshhBBCCJFgJMKFEEIIIYRIMBLhQgghhBBCJJisrhDdfwshhBBC9EtnZ6c1Nze7R1tbm3V0dLjXICcnx3Jzc62wsNAKCgosLy/PsrKy3HtCiHeQCBdCCCFEv7S0tFhtba2dPHnS6upOWltLk1lHi3V1tIbeDQnwrlMi3LJyzLJzQ08FoadCKxpSbCUlJVZaWmpDhw51Il0IIREuhBBCiNNw4sQJO3z4sNUcPWKdLSfM2ustp7PJCvPMivKzLT83KySsQ4+skA4PSYqOkBZv6+iylrYua2rtstbOXOvKLbasvBIbUjLcRo2qsPLycueSC5HJSIQLIYQQ4g+or6+3PXv22NHDByynrdYKsxpt+NBsKxmSY8MKsy0X1d0PnSGF0dzaaScbO622scPqWnKtLXuYFZWMsspx423kyJGWn5/f/WkhMguJcCGEEEK8DfHdu3btsn17dll261EbXthio0pyQwI8x3KyBx7bjdpobOm0mrp2O1qfZY1WaqXllTZx0mQrKytT3LjIOCTChRBCCOGoq6uzjRs3Wl3NXhtZ2GBjh+fZiJD4jrU+RowfPtFu1fW51pE30sZPmmaVlZVyxUVGIREuhBBCCBf3vX7dWstrPWQTRpiNGZ47KOe7P1AfJxo7bP+xDqtpGWqjx0+3yZOnWFFRUfcnhEhvJMKFEEKIDIfY700b1tqI3GM2ZXSulQ5JXAYTJnAeONZm+04WWGnFFJsxc5YVFxd3vytE+iIRLoQQQmQwCPANa1fauKF1Nrki12U8STTtnV12uLbdth3JsdLRU23mrDkS4iLt0YqZQgghRIayb98+J8DHD6uzaWPykiLAITc7y4W/zBjdYSeqt9nWLZussbGx+10h0hOJcCGEECIDOXbsmK1bs6rbAc9z+b6TSXZWllWU5tmMii47sm+L7dmz21pbWQhIiPREIlwIIYTIMJqammzlypVWnl9rk0blWkFeMNIDMg+0ojTXpo7qsN3b1ll1dbVLmShEOiIRLoQQQmQQTAXbsGGD5bRU25TROUkLQemL7FBxxo3IszHFzbZt01qXNlGIdEQiXAghhMgg9u/fb9UHdtm0CrOSotjnAI8FrMY5bUy+dTUftZ07tllzc3P3O0KkDxLhQgghRIbQ1tZmGzdusKqSZisfluPCP4JKYX6WzR6Xa/t2b7Hjx49bZ2dn9ztCpAcS4UIIIUSGsHPnTstpPW6Vw7MtL8kTMSNhZEmOjS5us53bt1hLS0v3q0KkBxLhQgghRAZASMeO7dutqqzdhhVmW/AleEikZGXZjMp8O3Jwlx2rqZEbLtIKiXAhhBAiAyAneKHVWfmwbBdznSoMLcyxylKzPbt3KGWhSCskwoUQQog0Bwd5165dNmpomxUXpFbTz8TRqWML7OC+XdbQ0OCyuwiRDkiECyGEEGnO4cOHravtpJUPzUqJWPCelBRl2/AhHXZw/15rb2/vflWI1EYiXAghhEhzDh06ZKUFbTYkYDnBIwU3vKo8zw4ekAgX6YNEuBBCCJHGsOIkK0+WFba7tH+pCgv4HK85bI2NjQpJEWmBRLgQQgiRxtTW1lpOV7MNLcyynCAnBu8HltYfXpxlR49UK0uKSAskwoUQQog0hoVuinLbrSAFY8F7Mqokx47VHHXuvhCpjkS4EEIIkcbghA8JifD8NBDhI4flhUT4ETnhIi2QCBdCCCHSmPr6eitIExFeWpxtdXUnJcJFWiARLoQQQqQphG20tDRbYW5XSseDe4rI7tLZbs3NTZqcKVIeiXAhhBAiTWlqarLsrg63QiZp/lIdjqG4MNsa6uslwkXKIxEuhBBCpCks856T3WkptEp9vzDBtKW1pftfQqQuEuFCCCFEmkLsdHZWl2Wlgw3eDa5+e1u7nHCR8kiECyGEEGkKMeFZhgjvfiENyMnhuLRqpkh9JMKFEEKINOWUA55GCjxEVyfHJfkiUh9dxUIIIUSakpOTY50hEd6ZRpEbbaGDyc3N7f6XEKmLRLgQQgiRpiBWO7uy0ip+ur29y/Ly8tIqzl1kJhLhQgghRIrQ3t5ujY2N7hHJ0u0FBQXW0ZVt7Wm0yntja6cVFQ2RCBcpj0S4EEIIEUDIbNLS0mInT560o0eP2v79+2379u22fv1627dvn0s/2B+I8OycfGttZ3up74a3dXRZS3uWDSkulggXKU9Wl3L8CCGEEEmFphiXG9HtH83NzdbQ0GC1tbVOhCPGEeZVVVU2b948Gzt2bPe3T8+rr75qw9p329SKbCvIS23hery+w17c0mXX3nCzFRUVdb8qRGoiES6EEEIkERztAwcOOMGN8EaAs9IlISf8mwf/zs/Pt8mTJ9v8+fNtxIgR3d/un3Xr1lnj4Q02o6LThhWl9gD49kOttq9ppJ1/4aXO5RcilVE4ihBCCJEk8MEQ2G+++aYLNWEiZXl5uY0ePdoqKiqsuLjYZTgZOnSoTZ8+3RYtWhSVAIeysjJrbM+11vbO7ldSlyMn221E+SjLzpZ8EamPrmIhhBAiSRDXTFjF1KlTbdiwYTZq1CjngOOMHz9+3L2HKJ82bZotWLDASktLu78ZOcOHD7fWzgJrbOkKif7uF1OQjo4uO1bfYeUjR7mOiRCpjkS4EEIIkUQQ4kOGDLE9e/bY6tWrraamxsaMGWMTJkxwju/IkSNdDDgifSCw7SFDS+1kc5a1tqeuCj/e0GFdOcWhjkiZnHCRFugqFkIIIZIAKQarq6ttw4YNToDjchOa4gX34cOH3Wtz5851QnqgIPIR9bXNedbUmrohKftq2mzU6ErFgou0QSJcCCGESCDEgR85csSlGlyzZo0T4sSAL1y40AoLC50g37lzpwtDmT17tnttsLD9lq4hdrKpyzpSUIe3tHXaoRNdVjluvFbLFGmDRLgQQgiRIAg1IVvJqlWr7NChQ27y5ZIlS1y897hx41wIysGDB136wVmzZsXM9WViZ1l5hR2py3aCNtU4cLzd8oqG24jykYoHF2mDUhQKIYQQcYZJliy2g8Cm2UV8I7qZiOnhdSZlEoYyfnzsHV/c95VvvGxzRjfZ6LJcy06RlOFt7V320qYmq5p+pk2bPtMtWS9EOiARLoQQQsQJFtrx4puFdhDdXnwnesVHYtCXL19u2fU7bM64bCvKT43B8F3VrbatttjOPvcSl25RK2WKdEEiXAghhIgxrG6J+OaB+CbDSWVlpXPAk5nZg5U331z2ss0e1Whjh+dYTsDt8KaWTntta4uNn3GmTZ02Qy64SCskwoUQQogYUV9fb/v27XPiG+eZyZXEdzMxMgixzHQImAxae2CDLRyfZcOG5FhQZXhnSJ6s39NitV2jbfGZS62kpEQuuEgrJMKFEEKIQUIsN8J779691t7e7la1RHzjfAfNvWV5/GWvv2ojsg/bzMpcy88NprA9cLzNNh7MtVkLltq4qipNyBRph0S4EEIIMUCam5ud+CatYGtrqxPf5OQm5jsWqQXjBStyrnnrNZs+stnGj8wNXFjKiYYOW7WnzUZWzbMZs+YE+lwKMVAkwoUQQogoQXAjvnfv3m0tLS1uwiDOtxffQQ+bIFRm27ZttnPTW7ZgvNmokuBkS2lq7bI1u5otq2SyzZm3UGEoIm2RCBdCCCEipK2tzWU6YTEdQlCGDx/+tvguKipKKbFIR2LDhvV2ePc6Wzghx8qH5YbK3/1mkmhp67L1e5utKWeMzZq32E1o1RL1Il2RCBdCCCH6gThvVrbcsWOH1dXVOeebbCeIRJaUT1WhyDL5CPGjezfY4km5NmJo8oQ4AnzDvmZryKqw6bMX2OjRYxQHLtIaiXAhhBCiD8gmwuI5hG6cOHHCSktLraqqymU9KS4uTguXFkd/08YNVr17g80dn2OVw/MSLsTrmjpt0/4Wa8mtsGmzEOCjtTy9SHskwoUQIk4w3M9KiTin5I0mdhhHlXhcHD5EBsuSs6Q4ca8IPEIaRPKhaSSnNuKbpeaHDRvmVrEk7ATnO9EOrW+q4xXugiO+c+cO275xpU0d1WXTx+aHOhiJUeKHT7Tb5gNtll86waZOn23lI0dKgIuMQCJcCCFiCEKbCXvEDR87VmO5BdlWUJRreYUh0Z2XExJvWZYVEjednSFhFfpfe1untTV3WEtTu7W3dlnJsBIXY8wDcS4SC00iHaetW7e68BPE94QJE5z4xvlORngEbjwdOgQ4nbZ4wT7ImrJ5/UrL76i1RZOLrGRI/Jx+wk92Hm61/SdyrHzsVJsydXqoI1qmGHCRMUiECyFEDMDp3r59u+3bt9fyi7NtWFmhDS0rCgnwPMvJxfXODolvHqGKN/QfFW9XZ5cT4h0diPEOa21us/oTzVZ3vNnaGrusomK0TZkyxYU+iPhDuMmWLVucEEVwT5o0yeX5xvlOpjOLS831xWhJvEdKGKXhPGzbssn2795sE0fm2MzKfCuM4RL37R1ddqi23bYfarOugnKbNHWWja0cl3ITW4UYLBLhQggxCBBICLfde3ZZcVm+lY8dZkNLCi2vIM/y8nOiEhVUx06Mt7RZY12z1Ryqt8YTbTZ61FibMWOGE2Ei9rDKJc43ub5JLzh58mSX6zvZ4hsIX6qtrXX5yOkQ5Ofnd78TX7iuCcPZsXWjHaveYxNG5tnEijwrKx74SEBLW6cdDInv3YfbrC17mI2bMM0qq8aHrutShZ+IjEQiXAghBgBVJ8uTr1271nKLOm3MxOE2rGyI5RfmxSSWtrOzy9pCYryuttGq99Rae1N2SIjPtIkTJypjRIxgQiKjF2Q8QQROnTrVZTwJgvgGwlAoI+ExrLpJJpZElov9I8YJq9q7e4dVH9hjxXntNmZ4ro0uzbXSkCDPy+n7Wg993ZpaO+1oXbsdOt5uNQ1mBUOGh8T3ZBs9ptJ1Kjkuud8iU5EIF0KIKCFX9Jo1a2zfwT02ZkKpjawstcIhBXGZyIYYb2lutZqDJ50YryivtLlz57pwCTEwcJXJ880IBgIQ8U3GE8R3kJaYJ0YbFxwhzvwAcpInKyaduQ5NTY125PBhO3r4oNUcPWzNTfVWlJdlxYXZToznhoqGoGhr77Lm1i5raOm0rqw8KykbYSNHjbFRFWOstKzMjTbQmZD4FpmORLgQQkQBgujNN9+0+ubjNmHmKCstHxoSFPEXRh3tnXbyeIPt3XrECnNKbMGCBU6UichB1LLC5aZNm1xHatq0aW5kIWjiG4jNJkwGJ9qvyIkQT+YoCHKBchEiw4PzWV930olzzmdH6DUmHefl5Vt+fkGoozjUhoQ6iwhu/9CkSyHeQSJcCCEihFSDy5Yts668Zps4c7QNLSlyoiNRMJGzsb7Zdm+pDinKAlswf6HL2iFODwKRjDXr1693nSicbya8ImoTGd4RKTjPuPUIcEQvzTTucdCWb6dcPCiv/zdQRh4IbrndQvSNRLgQQkSAE+BvLLOswlabOGO0DRlakBSBQZXd0tRquzYdsq7mkBBfsNDFCos/BAF76NAhFzpEWAfimwmu3lEOokDk96XTQGeBMpIVhTSJwLNErRDpg0S4EEL0A67k66+/bh25jc4BHzK0MCSGut9MEs2NrbZjwwHL6xzqhDjhCuIUOLNHjhyxVatWudUucb3nzJnjnOSgu7OEeTQ0NDiHHjGOG85vy+tejAsh0gOJcPE2NFyk6Xr22WddKqxbbrnFjh07Zvfff79zZBYvXmwLFy50nyVWccWKFW5yE6+TT5c4WWItPXyHmNVFixa5RpBGheFgvkdjeMEFF7yd/3jv3r32/PPPu4bmfe97nxM8bNsPc/aE8t16663d/xIifuCmvvXWW3a8odomzx7jMqAEBUJTtq7dZyOKx9j8+QsyfrVNmjMyiVDHkLmGeG/qLERsKsQiU9/hgPNM+AnuPSkJWaBHIlyI9CPnGyG6/xYZDmIDkfzrX//aNQRXX321c5N+9KMfueFccsaeffbZrlFgMYcXXnjBXn75ZbeyH6IY8f7EE084Ic+DzAOrV6+2l156yYkDhDrO1COPPOK+P2/evLcnlpEm7O6773bfufTSS+3xxx93onzz5s1vb88/WEYad4jyCRFv3OIt1XusavpINwkzSCZqXn6uFRbl2f49h0IKLsdGjBiRsRPfCBd67bXX7JVXXnGd/Isuusi530y6TIUQDjoQON+MulBm6mPMjtLSUvcej0TlCBdCJAZNUxZ/gK/ww6FB2LVrlz311FPdr/zh5/gbx+b666+3b3/72/b1r3/dNYS8/uqrrzpn23+uN8K398EPftC++c1v2re+9S3nmNOIkpaNf//DP/yDff7zn3efEyKeHD161C3CUz5uqA0fRTxu9xsBomzkMKsYX+rSJbLMeiZBfUGHHDPgd7/7nQvjuOGGG+yqq65yE1ZTLX6a8jJiiEmBo0+HihFFjjPVjkUI0T8S4SIiaBgQ4jR2ZBnoCxoNXHEcqHPPPdeuueYa54DToNBARgrfYRiZUBa2RwPkQ1t4MLlKiHiCK8lITP6wLhs1lnCG4IqgsRPKLbug3XUYcE/THcI1cIyXL19ud9xxhxuxo67BAGCly1SEOg6nGxefB8Kb+hRBTopCiXAh0g+JcBERuEq4SwcOHHChIgjyvuA9Gg0aSUJYEAXENwYtD68Qp4N5Ck1tdTbKLcQT7DCAnNwcq5oyymrrjzo3vK+5FKmOF9+Etd11113uNyJ87eabb3aL7aQDiG/qUJ7JekM8O+F8QUylKIQYHBLhIiKIUcSZZoIlDSCx472B+CZW/Lvf/a793//7f+3HP/6xE+44234SphBBhxAHJvYVDsux0hFDu18NNiXDi21oWYEdPLTfpbVLJxCl/Cbr1q1zE8WZQ8JIG5O4J0+e3P2p9ICOBvUorjjCm3AUTAzFgwuRfkiEi4hhmJfJkGRMeeaZZ5wj1RMaEPLy0lgiYmg4aCyvu+46q6ysdEOqPHB5ekNDriIIEHLVbk02omKY5eYlb4XCaODeISzlZONxF8ueDm64F9+EBTGhm+xLmAFkbpo+fXpa1hf+mDM9040QmYBEuIgYwklmzpxpZ511lstQgiPeEz8x85//+Z/tO9/5jn3/+9+3r371q+57NJi8j7uDgCfm1kO8OKKBhidTszuIYMBS3IcPV1veEAtUOsJIKC4psuLSAjtacySqORhBAyFKhibqmSeffNKNvDEP5KabbnLzTdK1jsCcoF7k+Bl9FEKkN1I7IiqIDSfjSXFxsYv37gmNIym1xo8f71IXsjJduFtFSAqNC07jjh073EIaPEhliGjgO4odF8mESX4tHU1WMqI4ZVzwcEZVllltfY2b0NfXiFNQQXxSD1A3kKKU1KjUJWQ8WbBgQdqHZPiYd8wIwlCEEOmNRLiICkQ2MZhMhhrIRCGWjfbDyL/85S+dW/6P//iP9txzz7ntnX/++XKARNJAtBLKkZXbbsNKU/M6LA11Hiy7w2prj79rtCnIePG9e/dul+cb8c2kRDKesBhYpoRmcB68CBdCpD8S4eJtEMasyDZt2jTnPgHOE6Kbf3vRTarApUuX2pIlS9yES2bv416TSpCJm34Bnt7AQSeTAZlWRo8e7dw6Gp0JEybYbbfd5nKCMwkpHBpjxHuqph4TqQOxuPX1dVZQlBv4jCh9QUeZ3OEn6o67kI4g48X3nj17bNmyZS7EjTro8ssvd2Fv/J2Ocd+94UNRfFieECL90bL1Iilw2SHAWZYZ0YDQpuHJlAZXBBMy+WzdudGGVxbYqLF9dyaDzonjDbZrfbXNn32GjRs3rvvV4IDQpMND6A8CnMnehLoxdyRTV/2kQ8J6CtSByiQlRGYgJ1wkBRoaHHScdFxwQlAkwEWyYenzrqwOG1L87tGYVGNoSZG1d7aFhG6jE3dBAfGN803mJFxv5oIAGZQYXaMznokCHPid6JgoHE+IzEEiXAghQiAQWVgqK6fTCopSewJgTk62DRlaYPUN9S7bS7Lx4psJ2WvXrnXim9CLM8880wlwQtMyeSIiI4N+Vcye4XhCiPRFIlwIIUIwN6G1rcXyCnITmhUlXgGBxcOKrLGpIakiHHFJXDphPqQZRIBznsl0ct5557lQGWVDeic8hzkzGhEUInNQTLgQQoQgHnfD5nVWUNph4yaP6n41MlpaWu3gvsNWd6LehVOUlA21yvFjnCPdGx3tHbZ/b7Udr6l1IrykdKiNraqwoiHvdkEb6kICdl+1dXZ0WnnFcBtZMaL7nf45fOC4HdsXErxzFyc8xphmBbFNrPfBgwdd7DcOL+FnLNrFegHiHegoVVdXuxEBrYwpROYgES6EECFY6XXbzk02rCLXKsZFPimzIySQ33p9jT3/2GtWc/S4e21MZYVdf+tlNn325D9wNhHUWzftskfufcb27DxgeXm5Vja8xC6+aqktvWix5Yb+Da0tbbbqzfX28F3PWFfov0uuPtcuv+58914knDjWYLs2HLHF88904i4R0JwQVoH45nwivsmqxLyPqqoqZf3oBc7ZyZMnXSiUX1VYCJEZKBxFCCFCuPRwof+iDUWpOXLcHr//BTt8qMaWLJ1vcxfNDInsnfb7u552Qron9XUNofeesj07Dtg5Fyyycy8+w1pb22zFsrV2orbOfQZhVn3wqL316lo7VlMb+k5jr9s6HfmFedbe3pqwiZm4uQjvjRs32rp169zIAs43Ey5ZG0ACvHcIRSFkp+fCZkKI9EciXAghQpwSq519hpD0xdYNO+3E8ZM2fc5ku+59l9ltH7/ehpeX2bZNu+x4zYnuT50CwbVvzyHbtnmXTZ4+3t7z/ivswivOsetuvtTOOn9hSISd+lxjQ5NtWL3FjlTX2ORpp3L2R0tubrZ1dHa4fcYTOi+I7w0bNjjxzUq6uN5nn322SzlInLPom/b2dncOlRVFiMxDIlwIIUIgVnGgs7KjcyMPHTxirSERNW78aBdKQlw38duEqRw6cMRt09PV2WV7dx6wrNB/BYX59vIzy+3Fp163pqZmmzi1ykaMDH2vvcO55OtDInzGnClOrA8EYtM5pniJcMTj4cOHnfPNhEtWGh07dqxbZGfOnDluoR1xerg2mJDJ5NSBrEAshEhtJMKFEIEHpxDRF0+8WI42IqCpodk6O7qsoKjg7XCCIe5vJlY2uH972MfJE3XOdd+5da+9+doaW7dyi93/2yfsmUdeceEoPFa+sd6JsjPPWzBwcRblcUQKZSfWG+cb8e0nFLKC7rx586y0tLT7k6I/uB4UiiJE5iIRLoQILIjvvXv32pYtW+IuwnGOEUKdndHNVe9NOr29hZ5vun+H/hfaT+nwEnvPbVfaNTddbMPLS0NifLNtWrstJM732OZ1221s1anJlHUhIc9kzrqT9XayO2Y8EnDAOZ5YiTu2R6gJ4nvNmjVOfLO4zhlnnGHz58+34cNTd4XRZEEcPde44uWFyEwkwoUQgQNhQm5pFnVZvny5W8ky3sP1pxaLiV6EFw8b4uLIG+ub3g79ILUgxnpJ6btDMghDGVYy1HJD+5o+e5ItPHO2zV4w3SZNrXKTM/ftPmT791Tb8WMnbPf2ffbEgy84QU4KxI0hgb5u1ebuLfUPwp2OxWBXoMStZZIlYSesckn8N0vLL1q0yIlv0h/KxY0ezisLGJGuUaEoQmQmEuFCiMCA+GZVRcQe4ptnxDET/OK9oiLbzwpViR3t0cVQk987Pz/Pdu/Yb81NLXbsaK0dPXzc8gvybPTYkS7Ge8Xra23lsnXW3tFhEyZXuu8xaZPPk/UE0c3+S4cPs3ETRtuis+faiFFllhfa7qlymRPuOTmRi7X21o7Qd3IHLMIRiSdOnHDO94oVK1ynCLebhXYWLlxoo0aNGrTAz2TCQ1GEEJlJzjdCdP8thBBJAfGNw7p161Ynwnfs2GG1tbVu4ZJzzjnHxRzHW/ARGlBz7KjlFHTZsNLIM1UwEXPrxp22b9dB54ATVkJIyfwzZtv5l51pba1tdvv37nTZUs6+YJGVlg11f+/evt8t7rNl/Q7ndo+uHGVXXH+BVU0aa1NnTrRZ86Y6h7yxsckO7j9sS85dYOddeqYT/JFQf6LJmk60W+WYqqgzlJCzmt9g8+bNTojjfE+dOtU9mHAp53vwkE8dJ5xzq86MEJmJRLgQIml48U3MN9k1iPsm9AGXkAmAs2bNci54IpY2Z99MOOzKabPS8sjdSUR48dAh1tTUYvv3HLKG+iabPmeKXXnDBVY+qsw54etXbrEhoc8tOXe+FRUX2vARpU6A79y2z03UnDilyi668hybNmuSE9lDiovcg79xyzkXsxdMc6I8Uo4frbOullwbM7oy4phjnFnEN6EndIJwvr34ZsKlxGJs4Prm/HJdywkXInPRiplCiISD4GVi3759+5wDjUjkgQjGhaVawm0999xznVOYCOeVcqxctdJasmtt6pxxIcEZ+T5JR3hwX7XVHjtpxIeTarBiTLlLd4iAJuUghzB+UqXl5Oa41w7uO+IW+kHYMjGzsqrCsnvkKGe7TMY8GRLshKqwsmakbFu/zwqtzGbPnNuv0GOJ+T179rjfg44R55x0gxUVhNpoGfVYw+/Pueb8alKmEJmLRLgQIuEgeIn3Js80qymWlJTY9u3b3fA8GTeIP549e7ZbcTFRk9aoCt1iM/X7beKs0VZYlLrik2NZ/fo2mzhmuk2fNqPPkQQEN+KbB79JWVmZjRs3zsV7M2FQxAeuczLNjB8/XqE9QmQwGlsUQiQchDViDxeQYfn169e7GNkZM2a4kAiEeGVlZUKzRiCGXL7mrlxrbmjtfjU1aWlqs842s+IhQ097DhHrxODzO9DpYdIlq11KgMcXsv0Qpy8BLkRmIxEuhEg4hGCMGTPGxRnv2rXLCW8EOMP0rCA4ZcoUKyws7P504nBxzyER3lDX1P1KanLieL0VFRS7pdBPJ/QQ6MTcI74nTJig0IgE4K9xxYILISTChRBJAQeWGHBCIIAJmWRHQQwmK2MEmT8K84dYY32LtbfFd3GgeFJ7pM5KhpY5EX46OMdknunvcyJ2IMDp/CjWXgghES6ESCgsaEP8N/HXiO3FixfbtGnTnCOOE5voMJRwiJ0uKxtuHS1Z1lDX3P1qatHc2BLqRLRZWelwOdsB5OTJk6fCnhSKIkTGo4mZok8QS4QJBO0SUQOWupAVZdu2bU6Ek30D8Y37zKRARDirLyY7bzJ5sVetWWmFwztt/NSKlLvW9u88YvVHO2ze7IUutl4EB67/3bt3u9GeRKTdjBe0CdyzdCjIZoS7z7Hx4H7h2HD6iXvn/uY53ottCZGKSISLPqFyfemll5wYD4oQYfLejTfemFSRJgYGvx35wMnEQVYIck+HxyyTqYOGOtm/Ldf72rVr7XjjIRs/baQNGZb42PSB0tbWYRvf2mWV5ZNs5sxZCnkIGExCpl5lUnKqde6QCnRQDx486LIa1Z+stfycDivM7bSC3C7Lyeqy7NADRdHRlWXtnVnW3J4deuRYTl6RjQh1sJkHosw7QryDRLjoEyrcp556ymVNCMKwNuLomWeesc985jNyVVIMnDIWgCH1IOJ78uTJSZl4GSnEqq9dv9pKxuRa5cSRKSOYDu2tsZp9TTZn5nw30pBqQi/dITc4zjATgFMFJALl3rlzp504fsRGDGm3ssJOKwk9CvKyLDcny3Kys0ICnAxDfP7UozP0aO/osrbQo6Gly2qbs622Mdc6c4fa2MoqmzhxolZfFRmPRLjoE0Q4opdlw4Mwk5+sAnfffbdEeIpBTmTiv1kRkwwoNL5Bd2i51pwb3nDIqqaPtKElwY+tbmlusy2r99rosvE2a9ZsuY0Bg/ANxCzXf6rUX7jepA9tbaixytIOG11iNqQg2/JzsywvJL4j1c8dIUXe2t5lza0hMd7YaQdPZFtDZ7GNGz/ZZUIiXEWITERj+kKIuEFHbuXKlS7zydy5c93iO6kQIoFIQix1tubaseqTIVHe2f1OMMFJqd53zHKtyMaMGTvgc0znQ8QHwlAYUUwFAc4Kqq+99pote+V5G5l7yM6Z3GkzxuTYqJJcG1p4SoRHY2DjlBflZ9vwoTk2vjzXFozPshkj6u3o3rX22isvuhA1XXsiE5EIF0LEBVYEfOutt9zk3vnz57tFYFJpMhohA1WV4+3EkWY7UVPf/WowORkq3/HqBhs7epyb3DrQIf777rvP7r33Xlu+fLlt3rzZjWKI2MACPYRfBB3c7yeeeMJaj22z86Z12cyxeVZWnONCT2IROUL4CkK+qjzHFk/IttEFx2zdytdszZo1rq4QIpOQCBdCxJzq6mon5Ih2W7RokYtPTlbawYHCBFFi14cVldnhfbXWWB/MlIWtLW22b+cRKxs60sZXjR/UeT7jjDPcb0Xo0Ouvv24PPPCA3XPPPe5vRDlCUkQPk5KZ0xL0lJFMnH7l5edt+og6WzIlz0YMy3WudzzAHR9WlG3Tx+bawqoOq9m33la89aabvCpEpqCYcNEnigkX0UJ1wuRLQlBw/ViJ0a1CmcLZbAilefOt5TZkRJaNn1ZhefnB6Ux0dnTars0HrflEls2bs8AqKgaXUpF7zD9IN3fs2DH3e1IXHDp0yN13TKhFqJPlwq96Kk4Po0KcTxZGCiLct6tXr7adW9fbkolmo8tynWOdKJjEWdfUYev2tltbfoUtWnymG9ERIt2RCBd9IhEuogGnj9hOhpVpQBHg6ZDTnSqSIfpVq1fYqAnFNnbiSMvJTX6ngnLt33XUavbV28xpc10Me6w7O/ym3Hc8k0ISl5LJhTwjyvltEeWIcQQmj+HDh3d/W3jIgU8HKYgrk3IdrVq1ynZvW2dLp+Va+dDs0HWU+HsWJdLc1mmrd7VaS95oW3TGWW7NACHSGYlw0ScS4SJScPkQGmQUIQcyMeCIs3RJP4YIJUXb+o2h45s23EaPHxG6BpMnxKm1D+45agd3HLepk2fa9GnTExLuQ3PBfcgzopw6Yu/evW60gI4Kr/O7I8Zxy3nOdCFFnDN5tVmgJ4gjQmQu2rZptS2dmmXlw3JdqsFk0tzWZSt2NFtn0TgnxDXSItIZiXDRJxLhIhIQY6yCuWHDBhdDjQBP5dUA+wIhvn3Hdlu/Ya1VzRhhY6rKk+KId3V2uXzg+7cfs6mTZrq0j8mKt6f54LzwzP1J+Mr+/ftdTDlOOZ0z75QjynlkmihnfgTim9VLg9YppQP1xmsv2TlTzUaXJl+Ae5pbO+21LU1WOna2zZ23IJAjCELEAolw0SexEuFsBxeRBpohWYTaQPLCSoQHDyacMWGPhXjmzJnj0hCmcvx3f1Bdci2vXLXCxk4utaqpiY0R72jvtL07Dlv17hM2a/ocmz59eqDuBd+c8Iw496IcQc6DDhv5yysrK51LzqgJojxdRkx64q8XOh9Bm5R5qn5/yuaNabZJo/LcRMkgcbKxw17e1Gwz5p9rU6ZOTcuOvRAS4aJPYiHCd+/ebXfddZeb9EOjDBdeeKG9733vc41wNEiEBwtyCTOUvX37dpdVA0GYKRBe8Oqrr1hhabZNXzDehhTHf2GcpoYW27HhgDUe77CFCxe58IZUEq80NTjkhK14Yc4CNrj448ePdxM9iWsvKytLm44cKR6ZlEl6ziAdE3Xxc889Z8O6Dtq8qjyXfjCI7D3aZmv3Z9s5F1zuro907ayJzCXnGyG6/xbiXeBy4uLQgAxk8Q9E85NPPhkSK6/a0qVL7T3veY9bvpzMGTS2uGDRNEw04oQ8IPjS2W1NBVh4hMlcTMTkt2XVu0yCkZwJEyba4YPHbOuG3ZZfmGtFISEej+uyvb3DjhyotU0r91pRTmmoU7zUhXekmiChvJw3Ot902BYvXuzqAWJ+SX1IZ445BXTYEetM/qTe4eGPNdWOGQFOKAUueJDKvmnTJjt6YJstHJ9txYXBrUtLh+TYsbpmO1LbYiNHjU6Jhb6EiAaJcNEngxXhOF3kF2Y71157rRNrTFJCuLE9Vk+MJtZPIjz58BucPHnSLcKDwLjgggtcZyoTYXgcEVlUMMQ2rt5uhw/UWMGQkGgsyLOsbBY2Gbjo4jyzSmft0XrbvGqvHdlTZ7NnznPXfjot8e1F+bRp01w+eeoEnHDqiR07drgl0xHlR44ccZM/Oec9wxKCKswxIbhHiAUPUo583Pk3ly+zuWParLwkx7ID3rEpH5ZjG3YcsWFlFTaspER1v0grJMJFn8RChOOW0gDhejGcSKPEghA0pLNnz45qBTmJ8OTC+UcILVu2zIWiEFbEb5rJIACJacbZ7WgzW79iW0iMHwudK3PueEiKd38S+l5xkMmWPDo6O62luc0O76+1rWv22cGdtTZx3BTXgSWOOt2vezrlzBthZGXhwoXuGaecsBXqIuYekALTi3LOB3UT16YnKKKc0SKEOOUPSpk4T4w25LUcssmjWAUz+NdTXk6WK/ee6jqrGDPOzSkQIl2QCBd9MlgRTuynq/BDgpuMGThCZApASBPTzWvRpJ+SCE8exJDSgXrttddcpwoBjmMpTsH1jKM7c+ZMK8wfYvt2VtvWtXvs+JGT1tzUFhKRHVzA7rNMruwMPdpDj462jtD7rVZbU++E957N1bZz/SFrqTObMXWWnX322S72eyD3X6SQwSSo9xOZVRDlOOTknZ86darruFMX4JRv3br1bVFO+AqiF5Hm559AsgQwk1Jx+oOUqpNRrPVrV9mMUW02fFiokxiMYvULy+Zv3nPchgwrt5KS1F78S4hwNDFT9MlgJ2YimJlICR/4wAds1qxZ9uabb7qJmriHH/3oR53AjxRNzEwOnHc6T2+88YbrNOHKBn357SBASAWrTXLucG0RQF1dnaFOTI5l52ZZZ0eXE+Q45AhLOjUITjJp8O9ECDcEOO4yaQ5T0WHEbWbyN+eWZxxzmjQ6/IzSsGgU8fOINjqPPCei7iALDJNPGb2IZwcqWgjtaTi80eZWmg0NcCx4b2ze32LVrSPt7HMviltIFtdOT0nEfRire9FvfzDb7G8b/n0eXO98xndK/Xeo03mfe6G3bcQT9kt52G+QOlP+nPlzlCgkwkWfDFaE46IjuHGoPvShDzkn66WXXrL777/fDTPfeuutroGMFInwxOPFBDHg/FY4sz1jckVk0PBwPhGKiF9EIecSkZasxoiJ0r///e+dCGdkKtXvKzo+LBrFRE/mnnCuOe++g0PnnxELjpPz759jDXUn55Z9BkVoEEL2/HPP2LSyWpswMnTsAUtJ2B/NrV325OoGO+eiq0N10di4nFeuG59K00PnlPaPB+bDYPZLh5z2kA7iQPLlU28wwkI5+X5vq9Mygs2qtnRQyTpEuTkmXqdTSMgXI0h0XAmjKykpebtO4ljjcT8AUpP7k3PAvrk3KE8Q4PdmMjj3LB33aEboB4vCUUSfDDYchd4kGQ/YBpUBF/eKFStcBUC8J854NO4bN7HCURIHvz+CxmezQYDHq4LOBLgfOH9c8zTmvsFLpOvSEzoBlIO5G9znqb4oCseDwOFYyFvPhE9GFTjPdCZZnIa89oxQIARodBHiCBDvRw22bmE7hG4hfji3yfx9w3HCrGaPTRjRZUMKUq/+zM3JspNNHVbfmmsVo8fEpcOI2fBv//Zv9vDDD9vzzz/v0jg+/vjj9vLLLzuhyijVYFz43/zmN/Y///M/TkDT/kULAvy+++5z2+H6IvytJ1x799xzjz3yyCNu0jxt9+233+7+jejGTPnhD3/oDK158+a5fzPP55VXXnHbjFeKUO61p59+2r73ve+5hA10IHorfzIg5ez//u//unOLAKfeSBRSMiJucDNzMdMQPfvss/aLX/zC3ezESOK8RTMpUyQWXDM6SwhwKu6zzjpLHZ80hXsUV4pQMYRGuoD4pVNBQ08HkrUJbrzxRjeyh/Cg4aXz8dhjjznBhQDjmie+HIGOa4dDFu1gsXcVgxQLzjHghpYWtllhfmo54OFUleda9aF9cb9OEYhLliyxiy66yI0QsT+Eub9HqB8RlVwfOM78218n/I3bTQga74XPTwiH7TBi0ttn2C5uN9vhfa6nnvAd9uWvVb8N2lvuaZIhEJbVG9wT3Ae00ZSDUMMHH3zQXf/+2MiiE36eGYnmNfbVF5Sb8nDslJ9/A2Xj+sNE429MuJ4CnGNk2+zbh8tQFvbJv4Hy8G8MIn+++Zvz6EcIws8l2/Sf92Xz55JnPh9ezmQgJ1z0yWCdcPDDsTR4VCgI7+uuu85VbNFuk5tOTnj8odLCLeRBRc4qmCK9QXQQL4wTxohVuoJTjguJQ4gIYPVejh2nHAcRt5zROyaV06gjCGjUabARAohq6p7TiWsaej7DuQxKPUVdvnnjBhs3rMlGpNCEzJ4U5Wfbpj11VjF2gnOkY93JYaQEoc1kaOYsXX/99Xbuuec6ocbCZIzo0qaRcIBRQtq05cuXu2uD6wjxicv74osvOgOD64iOICEfXAtsG6GLSEY4Ep5J2BQdNgQxx8O+2D7v0TGkTLzONhCLzOFg/gMjPlxrGFvsB/HNNUc7iXDnmqa87Jft8FnfAeVaZySBcnC9sw06n4zQsR9GTRi1RvTyefbPPumscsxMlA7H75NzxGcQ9Xye88L2uI8oA+eEe4mRVfYdXtcQpsJnOB8+HITt8B3ODdqB9p9zyP443xwT55/zzTFwrjgP3s3nOCgPZWP7rFnCaAbvsS2+xzPnnM9ybLR3lC1RSISLPomFCOd7uN44UTwuvfRSl+FgINuTCI8/VGo0AFRm/F78ViL98RNtaURpIAd6v6caHCeNObGp1FOIC0Q6AgWRRNgKdSANODGjOHWICP9AnFAXeTFIHYV4RzAEKRTFpXQ8vNsqS9sDvThPf2RnZ1lNXYd15Q2zkSNHxbwd8CKc349QDQQkbiz56hHPXCMIPFxxxDaikTaJewYBfMcdd7iRFcS4F+h8l9FErjM+z3YQfYhcOn0ITe47xB8dixdeeMGFi/Ae26BzzIgN4hHRigh3iy2Frkf+3rZtmyszRheim2vwoYcecuKTuVdczz1F+M9+9jMXZoPbz7bZP9c2BgwCmGeOBXFPm839wFwu5njxfcyZcDhHhO789Kc/deIb0YuJw37pYHBcCGDSE3t3m+2Ei13K/8ADD7gMXJwvOhy//e1v3bw0Os0cG/snrIb0xnRCCKm5884733bByZTE9+lcc744d/5cIrjpfODCk1np+9//vvtt2C/nkfPJ9ZRoES4lI+IODRE3IUNjNPZBaZjEu6HhoNKkwWYRHhoWkZ7QUPeEGGoaTMSBH/7NNKinEOKIk6uvvtquueYa54Qi0hEFCB5iZxFgCB/EEA4aDTgiB+GOcx6kUBRAzA3Ja7f8gC5PHw0jh+XYsZojcb1G+R0Rpwg3hCFuLJ0qhJ+fN4F4Q+BynTCqwvWACEQsfv7zn7f/83/+j8skxfWBMMfU8iB4P/nJT9rnPvc5J/jo7PEZrjFELK+9//3vt89+9rMuoQG/H0LZw+fYN1nHSHrANYt5QpnDwzEi4aabbnIdDkaJcP6vvPJKO//88929QIeBdoFtcg74zHnnndf9zVNQl9BmIPwR65T7L//yL+3mm292TjqOPh3Wq666yolnRhLYJ2luw0E0M2maY2WfCGe+R0eZc4iA9o4/Ipuy0WGhc0Oyhq9+9avufkWQ//rXv3bfBa4TtkXH4YYbbnDHwEreuPOEG/FbURY6B8lAIlyIDMdXoggLGoeLL77YVYYiPeE3xvGjIQ+H4Wti/xlmp9ESp0Q5oQk04FdccYUTXIhyRge5bxBM3De4mYgwhBIiAFGOkKOh763Dk2goS1FOSNDkpr4IZwXN48dqohab0cD1j6hkHhPzmdgXxoQXq8C18d73vteJYJxb3FU6YtSfdGhxoRGeiHbEcfj9hvhD+HG/IQwRijjHdN4QwZdccom7bvgedTPvh4tE9s2I8OWXX+6carbDfU3HgOdoQMT6rC+4/DjhfmQIIetXrKVewJHu6RJTNkaKEMi42xyz78jSOeF+IMSEUQUENPUM++AYwuE8sX3Kwvbo8FIe7jWOC9GNg865Zlvca3RscPdxt+n8kHGN3wfHHTEPdIY5nj/+4z929y9l4FzTiXnPe95jZ555pl122WV/EKOeKCTChchgaFyoPBESVI40DlR8In2hccKdomHrKWRwo2jkGBGJtjHPBBAINPa4kzTcCA5EuR81YvIZAgDXkHOIUEC84HRy3qM5p/w2CK+enaVoQcwhXgpyO93qk6nOsCHZ1tzY8LbTGQ9wvKkLmch7yy232Kc+9SkXIx4enocQJATFZ2nxEwoRk/41Py+A3z28M4bw9fj6FkHJb81IFE7uo48+6oS931Y4uMNexPK33yf75xEL6HTQJtC55Hqm/LjgPcvDdcqxI3bpRPhOCt+lXPxO4aMAp4P7iHOP8819xLkhiwz3DiEj7IcODtvlnLJvzrEfdeL+9PvnmgfOP6PwiG/g/LAdyueTQ/Ad/3eikQgXIkOhcsShIG6Ryo5KN1kVkUgcCG2cKJyl3gTeokWL3LVBoxcEFzfI0LDj1BFHSugBjiRzKXBBafwZQkdUIWJ4xlVEWCEyGHL3QqE3EAr8RjiCfHag4orfuL2t1fJzWLwlehHe2Nxm1TX1oUdd6O/TZyXheuHzh4/x+Xr3d/gV5DoETa12KLStt9+P8hrLD3UkcrPJOd0Qt+uTkUAcaUIrEOL8tj0nLCP8wkOOCLPgeqDT5TOaMOmR84/DGy5emWeAiOQ9PsO1wn3J94i9Zruf+MQn7Etf+pK7H3seJ9cGnWg+j0Dlb75D/Y0QHShcY35f7Nc7zpg0HBsdzp5wXJwbhCxlwdTh2Llm6ZQimCOd7E0HF8HMPcJoHecUEY6IJ36b84VDj9jnfCGkOd/cRwhyziUdVzooON2e8HNPOWnvOIeMZLFNyso5TAYS4UJkIMTqUWEhDhhC1CqYmQONNSKRRofGq2cDz3XAUDJOFMPQIjI4l4gghATCgZACQlgYLkc4IBgQTdxziHGeCTdAaCMGGLbnff97INL8JDxijRFuTD6LVngiSnKyOlye7Wgl+JHjDfbEq1vs7ifX2l2hx1OvbbWDR+u63303HSERxHtPv77N7nlqrXs8t3y7HTjMSrGn3t99sDa0va1ue3eH3n962TbbV33SvRcpXL9DCrKsqYe7nGwQrYh3JgaSD5sHkx8RtsRYh0925nfH6eYzTz31lLvnuE4QknyeZ35rPkesN4R3wvhNuSaYpMiDURfqce7r8P1Eip/DwPVGu8C+cOsZ8SHEhuuVOGxCs3qCwEUsk/GMOoUc5YTwMKESIY27HekEf8Q6x4EoRiQjtLl3EPJ0XP1KuOyTEBQ+S9meeOIJNzGUyaTA+cYh7w22Rf3GcbFQGeef77L9ZKDsKKJP6H0ONjtKLKHCVXaUwUMFjsDiQewejYcfwhOZAY0u4s+7VD3vJ5xyXFwaJkQlAlL0DaIFF5CGn7oSQQOcV9xEzjFiBCGDC8eD+5AH55gYch50ehAfCDC2x29AHDJuHXHKxHZTD7KPSO9ZOgeHD+6xkcWtUS1Vz37ueGy13RMSzLm5WVbX0GIvvrXT2ts7bMGMsZbT45o5Uddsj7+yxR5+caNzuI+fbLKVGw84QTll/Ag7Ud9sD72w0Z5fvsPaQtuoDgn2tzbsD527Tps4drgVF0Xexuw52mYl5ZUhoTgipm0BHSHOM+KPsAd+p55wPvkMzjB1p3d5EYicM35HhDMOMtcBoyNMeOTaoLOF+CPki84VHTF+Sx8bzn3Jb085GAHh9/ehK9yHxC0jdLlueJ32mfsYEU/4DGYK54Pycd4RqnwOMcw9zNwGysu+uWZxthG1bM8fO8fFfvg8DxYq4vq77bbb+oyb5hjYLuXFxabzgJDm84woIKS5rnHJEdCMHCGge0LZOb+cA7aHmEb4c5yUl1Em7gfOE8fFtrgnONfsk+Og48CEVe47ysNoL50TdANw3+CSc69xXogP53diP9SH/O6c60ShZetFn3BxD2bZ+ljDTahl6wcHThvim4Yfd4LZ6rFsxETq4PPn0kjS8PaERhmnDoeL60T0DaKBc4kQi6ZDS52GqPLhBTyzHWBIH1HhJwPyOhPWEAwIJ0IcECq9/XbhsN0Nq1+3meX1VlEaeWeKkJIv/78HbeiQfPs/n7jICczv/fZVa21tt2988QqbNO6d4X7e27zrqH331y/ZkMI8+/B1i6wl9Ln7n11v2aHyfuyGM6w1JLx/++gqqxgx1K45f4bb/sMvbAoJvWz75I1LbGFI2EfKixsabMzUs2zGzNkxbQsQjoQ3IGoRYj0nDwIjFAg7RhMxMRB7HsQqog4xy++H2OP383HLbJvfA8GHQGSuAO/xGUZROI+UAXeXbVEG3HUEOWXh37zPw6cSREwiSOng8RrmGeKSa5L98D3EP9eW/wxlpJOHSPbfoV1gu4hj2gYEONv5kz/5E3eN/dd//ZdzvPuC4+X6ZDuUi/PC+fHuOfun3eGa5toNDxcJhzJ4V5rvc15w56mPmGDJ+fCmgLvuQsfC5/ldOA+cS56Bc8x3+TcdHw/3HR0Cysrvwnllm5wTysb9lSgkwkWfSISnF/yeDDdSMVH5UiHrPGYuCABENhkWaNxojMLBSWPkiUaOSYi+YRN/COIDNxDhMZh7CiGD2OAe5V6lg+xFPdunDkSMI7BwaREpjFTy23hh0hPKtmnNMpsRpQh/eeUu+/bPX7Bz5o+3r3/2MmsOierv3/mavbl+nxPNV583o/uTlLvTlq3da//26xdt6fwJIdF+odXUNrqQlDc37Ldbrwh15CaPspWbDtiEsWU2e0qFbdxx2H73xBrrCv33yfcusXnT/tAZ7YuXNzbYyElLbNbsuarD4gQhLsxjIEsMmVz+6q/+qvsdEUtkgQmRATBEiruCEGe4juE5NV6ZDY4X4o3hbMRfTxCApCOjA87wem+fEafcTx64hYMdVUJI4zby4G8ENr+BdyBxGHmwP8Q1Q/BMrEawI97pOPWEMmG1RWu3HT1+atJoedkpNxhHe3hJUWgfXXb8RJN7zdMW6hycbGh2ISo45zzn5+WG/i6w5pY2q29qsclVI+x9V8yz6RNGhoT5Pnvyta12tLbBZk4aZaPLo5sQzmFmZ6v+iieIcK4vnGVS+Yn4IBEuRJrDsJsf3iRGkOE2haAIrgFGQ8hgwFBubyAsCUdB8DEEL/4QhtkRzDjWPUcTBgKD0wzZMzTOeSe0AeebfeC082CIng4Uz4QS8BkeCPSe0NnutKyoRXhL26mJgLk579QVOdmh7YT+I7QkHMrMawh1HytOIhb+3RES7TjlHhz1vQdP2N5DtS5kpbW1w8WIR0N7R1fofLP8/uDPt+gd4rHJgf7xj3+8z1hwMXjUEguRptAwEtOHi0kDjgDHUZMAFx4mCxLiQGhKby4qIodrBrFOijDEoHgH7jE6MLFwwcNhghgOJGFCxM76rBB0oJk4xgIjTObzDz5LfHhvZaBz0NmVHXpEp8KLCk+FwSCUAfHdFhLT5FgpLHh3WEt2VrYVhkQxWU68oHbiu6PTifi83Bxrajk1WbMgP9cuPnOyve/yeTauotSWrd1j2/bUuHMZKS3tIRGef/pYeDE4mDxJ2lrNG4ovOrPitNAwM1HCz95P5oM4SREZCCtmlDNrnHACQlBozFWZinBwUhF2TFDqTYQDTiohEQhysipEI5bSHSbnca/FUoRznnG5yeZANgsycHD/IrQR4LiSTDIjpIxOFCErPBDsvU0kJJNER6ipb+sIyegofrox5afmAZEfnN+8K3R5MJkyJyfLRg0vdmEp9Y2tVt/UGiqzWemwQvf5kw0t1tLW7hxvMqIwUbOkuMDFgP/vIyttw/Zqq6wocbHmVaNLQ59pceEqkZbNdXxaOkMdlWI54SLlUYpC0Sc0MDTOTAQi3rA3YZzoB8O0NEoSk31D2Akzwon1xT2j4WYGvM6Z6A1EGqMlxIgjynsKG/6Nm8qD+oAJgXxO2NuZTBC/QZ1jwX2/Z89eG5JVb6VDskP/jky4FhXk2TNvbHepB0eOKLb9h0+G/r3NCvJy7NYr57vPPPjcetu087CNDIny/NDrCGyEd0Feru2rPmFvrN3r4sgvXDI5JOAb7JGXNlnNiUbLz82xPQdq3URNPPZzF060CWPKIhLVzW1dtvlgh82dv8h1fhIBHS3EP+fSz43g374Txuvx7BCwD7/f3upx3qfe9/A3nWrKFM9yJRrOAaNxhGAxUTkdjk0iXPSJT1vEzewrgWQ+qFgok0R433B+yGZBKiycMRYN8emxhOgN0rGR4ot4YpzV3q4V7jdCJJjYS+wx7jkhTpkM9SLng04Mj6DeY5SLNHZdLSesbIhFvHR9UWFuSB6bE9aEi2zcecQaGtvs2gtn2dnzxztx/suHVtieg7Uus8n4MaWhT2fZ5l1HQsL8iO3Yd8yFo1x81hQ7c/Y4Kx6S70JStoTeJ53h+tB2G5va7ILFk+zseeNtWHFkgvpYXYcdbS6yadNnuY5hPOE3pg0kRSD1KDm+mazI/cBcABZ6YXSIkK3eRiFiAcYTc3rYF+Xh3usJE3NZeIbQKD7z4osvvp2aLwiZzWIF6R3J1kLWJkbnuO9SHaUoFH1CA/Pkk0+6i52GOtlQubz00ktKUdgHVMA0CEzmIjcrw9VB+N1E8CFsiYaeJbr7arS5/xBzy5Ytc9cW4RGZDOKIUD1GBoJ+n9ExP7Z3rc0c3WalQyKvO+saW5ybTRgKQmFs+TBbPLvSyoYVuQV53li3130OEV5eWuRivtdsPdQdwmIu3GTW5FE2suxU+Apu+uZdh91KnLxPyMusKRWh52EhYRtZ52DD3harzR5n5yy9wLmh8YTR11dffdWJPRbCYfl2fvOLL77YjQ7ffvvt7nNf/OIX35WHOpbg/D788MNOZJOlhMmSPSHn/89//nM777zzXBgTn6ej8MEPfjCtJlWS75zjhC9/+cturkSqIydc9AmuKo4qNzGTfhiCTuYDp0ErZvYOFTXnhrh5JtEhktLBJRCJAZebiZdk3uirYcNRZfgf34ZV8fgc38tUuOc4J5yDoJsCdKAYwSgvarPiKFbNJKxk8rjhNnV8uUslOH3iKBemAky2nFQ53D2I++ZcMJmTsJJpE059fkrViLdXwuT90qGFoc+PsGlsLyTO+Ryv8V6kbNjXYhXjptvIUfGfZM4IEcvQE3bEyCJ5s6lnEdyUmX8DGYS4HjjHlIm6N7xsGCM46tw3bIv7LHwkyf8+dJbIQkTbS5vHdeXDQnnQFrMvDBc+jzPPfrxLz7wflmTHpacMfJ5QxJ6wfSbt45ZTNvbjy0z5eI/9cq/jstP5pv2l08Nr7Itzwwg128L84TXuhfDRCUbXOGa/WBD1h+84sR2/mA7747OUgfc5H2T1wvlme0wcJ1uQn3vBaADmIO+hUegQUT7OEXOhGDXnuP11xfbYBiMalJNOM+fZ/xbRXH+xRiJc9Ak3l5atDz44MziZVGI0DrjgiYqVFOkB9zeNHA0TIUx9NUrcdzSUOIQ0fDSGmXgvEp7HSCGNOecjmY14JCD4du3ZZ8U5jVZSlO1SB0YKx4bgJuY7kq/5z/Po7by490PbYnvRlANa2rps3d5Wmzl3sROp8T7viERftxKqhWBFlJIxBMGJCEfIIRYZIXrzzTedICUMBEGMuCWP+z333OMcdUJZ2B6i04dTcC298MIL7jNvvPGGG5FiG9TrfrXJcBFOe/zss8/ao48+6kZjMF3oAFAOXy5EM6tAsvJlz5AdtvvII4/Y448/7va3Zs0aVyZELHOIEM133HGHKyPOP6PPlJs5RpwDPkcZ77zzTidsX3nlFfdgXgnngTqBMiCiH3zwQRdGw3ny72Po0WlgG/fff7/bPsv38z7nmzJwX+H84/DT2WDpfH4DfnM6RRwf2b5o5374wx+6c8y2OSb2xfFw3CxmRUeB46S8/EZoCI6NbVNGJj8nsxMtJSNECkPFQ2WGa4F4CkqHSaQeXD80guQN7wtED40wnT0acxyuTASDAmjoU6ETglgpG15uJ5pznJBNVQ6faLeioafinOMtwAH3+33ve5/deuutTtCxuixhEEx299Ah5b5hOXXKhAh84IEHXKcWkXffffe51xDEF110kRPdCFNimzGWcHIRiIhcsuCcffbZ7t5CUBLbHQ5CFGFMuAluOEIeYYrg53vcl9yfbIcUg72FSSGoEfE406S3pM1gFIzVc9kmgp6OBh0DykG9wOuUhY4CZaYDjninY0HbQ0eA88AK22wbtxnhjNClA0hKTe4TwlsR0V5YI7w5x5SDfTzxxBPOGeccYQggztkG55Jj4b7jPPHwTj2jB7SBiGuEOSKef3PeeZ9joFPBvhi9Y3+8T/npcOCSJxOJcCFSFFwIKhIqfhyQsWPH/oHrIUSk0HjRSOG4nQ5cIz6L40UDSKOdaSBguNdSaXIq9UNtc541taauCN9ztNXGVI5PWD2H2Md9RogS+48TTLgHbq4HN/vKK6+0D3zgA/aRj3zECWJEHgYJzjijycyfuOmmm+yGG26wj33sY05AIkgRnghZHPZzzz3Xbr75Zhf3zQNRi2D1HT6+g8OLu4zR8t73vteFpnAu2CeuOWWhzLjgvYWhANcB36VzQZID7mXuaUQv+/Cwjw9/+MN2yy232Cc/+UnnKNMBoCMAtDvsl+O57bbbXJkZHaJNovNBx4P7g5FrRDjnAMHrXX5eJ2b90ksvdSKezgNimwciHNgnn2MfLJ3PZ3qD7dJB4vy+//3vd69xPJxfOhSYBeyDhYc47ksuuSTp4tsjES5EikHvngqGnj3uAI6Hr0iFGChcP7h1OHO+4e8LnFUECd9BiGcSCATECiIllUS4W/o+b5gda+hyOcNTjZNNnXa8Mccqx1UFymyg7mUODik+EcWEonD/IDRxWrlWZsyY4c4/ApnPIJYRm4RV4PxyHyH0Efd8H1OF13Cc+RywTcQksdi8R90/kLBDOhPs97HHHrNf/OIXbnl6wloQvLQtHkQ99QEdczoehJggajku4NpndABxi7BndIDfBZFOB4QRNUT5c889Zz/72c+ck85+eI1nRDydld/97ndu5ABTCbi/wgUy7jbnjPN8uvuNz3BslAnYBsfE+WJfvE6dRVn5LK8FAYlwIVIIKigqdoYPcTqo+HzsoRCDheFtGi6E+OmgAaPBo5Gm8aShyxS8gEBwBKUhjwQ6DWMrq+xwfY41tQbDBYyG3YdbbcSocTZsWHIn0vUE4erFK+Xyf3O+efAa95SH9/2/ed93KMI/g4CkrieEwwtPvodAR0DiNOOyEwceLcRgE+LBfnGPr7322j5dcw/7ZrIjxxIu/MN/Bz5DmXnNd1DpVBCCc/XVVztH/Utf+pJzqjk+wlaoZ6hzcKfpePQG4j+Szq4vV8/wMI6TsjF6BfxNx4jnICARLkSKQCXI7G6G83BVcMARQpk4MU7EBxo8hDUOVX/QMOL+0dDihiNOMwEfiuLFUyqBE9jYMcRq6kIirzN13HBWyNx7rMMmTJ46IPc3ntAJpU7G4WWCIPHhiFocZNxtBCmCGWeYOpx4cJ79vYORggAn1APnm/AuhDL1OnHmXiATikHc9/XXX+++xz3KdqMBkUw8NWU855xznEDmPub1nqIUh57RVq53YrUpM50A2hygzBw39z7bY3Im28AUon2i7GyXmHWcdLKQELdNPDjhNwhwPkOYCdcl9CaMw4V+tHAOEfmIfsqKG08ZiLcPCmq9hUgBGIqksqMCJd4P1yBRk5NEZoEoYAgct60/EO0M83J90minOwgPxAjCKhVHn/i9xk+cYnuPZ4eEbeqI8G2HWq105PiQ+BwZuPNOHUwmj//7f/+vyxuOkL7sssucUCYWGrMEof7tb3/b/vqv/9qFX9CBI98319EFF1zgwlkQh9/85jfddogXR8jiIHsXmONGkBNbff755zshi3CP5D71IEoR0uwXYf1v//ZvLiyFEJKe7jB///jHP7avfe1rdtddd7nvso5AeOeTCZj/8R//YX//93/vJnZyzORQJ+QDgU/HnMmc3/rWt9y5QdRzvpgciSjHVPrNb35jP/jBD1z7xjFyf4WHowwG9oWpgNAnxp4c4+yLOP2gtJ1KUSj6hIZVKQqTD04Ek0uIA6dCYQY88YAS4CIeEK9KCi8aUO9Q9QXXIM4k4pTrExcMoZeuEBOLu8cxpqITzu+FM7ljz0HL6Wy0kiHZlhPhIjnJ4nh9h2080Gmz5p+aEBmUeo9rnjbJ5+6mXLjVTDS84oor3L3AvUQ8ONcL9xMCkxhqJiTianMNUZfjmCO2fcgEQpvwDZ5p6/ge28B84fsIWL7nHXcekUAZcZ/ZF+VB6F911VXuvPI6rjGOvl+QCyGNy41rz8RSBDbfpcNN5hKysJDiDzHOd5mcSceD42Z7GEboCMrPRG7OCx0Itscx+LkVbINjRbzzOcrFfUa5aO+9+85rbIt6iXPOdykv8etkWOF88ptgIlAeXuO80WayXa59fg+ceTowxJnT0UmmntCKmaJPuLhJOcSwFa7rQCFujZhRtkfFhKinAokWbsC77747o1bM5NwR/81EGipqKpsgdIhEekMaM4a7yY7Qn9ikCWGyFp9HkFNfpOv9iZtGg434SeVjJBRg3crX7azJnVY+NDckzrrfCBjtnV322qZGKx49y+bNXzSgdiNeIMIRzQhbrgnEJg4uApRyhgs76nFEL20Y9xNiMPy+4h4iDMVvg/uINhfBy3u8zoPX2b7ft99fNCE6fIfysD22z3582RCsTNTE3Ubw//mf/7kTvRwjn/P7xqn/yU9+4mLKyZxCWdgWnZDw9gmRzb74Du+zfbYB7BMHnuPjdfbB5/kcx0P52Dfb9OeKMvrsLJSHc4yuYBvck2yDv3kNEPqMQuDSc7+SxYZn0iMyKRWR/jd/8zfus8lCTrjoE26CwTrh3AD33nuvy2tKyiJi5rgp6fFy40UDN1cmOeFUJAgbevX0+nEV+hNEQsQCnCdSjdEA4hadDho+Gk3uSdxwGlE62+kGAgEBgIjwQiJVQcDU1pHF4piNKsmyvJxgqvCtB1qttqPMZs9b5AQV11pQ4HrnuqdtpF5GeNOm8e+e5eQ13uO887meHTh/D3G/ebHr2zje457iNZ7B7zv8tUgJ35cvi98WfxOz7V1iXH3OO2X3+0HE44T73OeE04RvKxz+zev+/fCy8jfb5cH540EZOFccH8++TB5/3Dz8OeYzPPy/eQ5/DSFPnnCMBcpMSkicfspEqkZGFpJJ5ozpi4TDzYro5kHcKENVNM6kLCIWjN6x6B3iCjlvNPoM1TGUFm1lK8RAoZGjgSUvcSTQODKEzIMGOh1zh2NKcJzp0BGmLpk/f4E1WJltOdhube3BGxA/cLzddtZk2bSZp9L+eZEl4guhLcRQE2rSU1QD9wAx3YSmENoRdDAUcPSvueYaVz/hmFP2P/uzP7Pzzjuv+1PJQ0646JPBOuHkCmXGNA0yaZCIBWPYim3SKyaui+dIyRQnnNATBDiNDrFrOBK9VYZCxAvvJhEKxagV7lx/IOy4TskCQd3B99IF6h7iXr17lw71D52J4SPKbc2mPVaY0+biw6NdRj5enGjosFU7W23C9EU2afLktOj4pAo434y8EuveW7tP3UCsNgv94CIH3RziXkWIE85JHD6LImFs0ZEYiK6JNXLCRdxAfBN6Qs+TB+4avWyEN04vDbV4B0YOmOnOUCDnithaKrt07nCI4MK1x8hVfytoemic6TAyb4EwNB7pAqEoxKPSaKdLh9iLqSVnLbXVe83217RbELIW1jV12Jvbm23EuFk2eUrwUhKmO4hqQjXohPcFnSI+kyq/DW0ouoNYfB7h4TXJRq27iBtMvEBoc8P6C943YmQZIFZLnAIB7mPx6LUvXbo0cDGQIrPgPsXpYhJfpKFjfIfQKa5d0mmmS0ebuoxjSzdHlvqFkc6zll5oy3d22r6a1qQK8ZMhAf7GtmYrGTPTZs+Z68SSEOmMRLiIG1TwfYnI072XaSBwEDoIcFI3IcBpfHR+UhtCGEjvRUgHi2889NBDduedd9qvfvUrt4zzL3/5S/dvlmx+4YUXXA5dcv/iuAYB3COGpClPNEvTI8AJNWM+A6u7pjp0kOlMpKMIB35nRi+Wnn+xvb6tyzbtb0mKED98ot1e2xwS4KNn2tx5851jqTrwFNQlhHIyWZ8OYSzxmVHA74fnVMdnZuH4OB5G5n02liAhES7iBsNZDFfRgHnXm78RnUEaDkomnBcmsiHAyctKCIriH1Mbv3rcb3/7W3v4kYds14GQgC1qtIlzRtiii6bYedfOtctuPsMuuH6eLbp4ik1eMNJyhrXY3urt9vRzT7qZ/KzsRmhSshsM7lEmaJKnPhroTPLYvXu3Cz1LZWjM+R0YxUvX0DDELkL8qmuusw2H8u3VTQ0Jm6zZGVL82w+12rJtbVY5ZZEtWnyGE+DiHciQRYf9T//0T+3RRx/tfnXwMPH63//9313oGKPT3/nOd9wqnOmQNIE0ih/72Mec4UEd9JGPfMRN0AyKyeGRCBdxg7AKXDFECZOaaMiYrElvlNjRaCZlpiM07jiMVHoLFy50kzAV/52acG2zwA0r5z386O+tqfOYLb54ql1521l2xoUzbdq8KquoGm6lI4qteFioc1qUZ0OGFlrp8GKrqBxuU+eMs8UXTLdL3rvIzrp8unXk1dlzLzxtDz74gOukJatRxP0lAwKOEhMuIwXBiqjj+2RCwk1OVXDSuC+DMIkr3hAjzqqIrQVVdv+yky5DSTyleF1Tp722pck2VBfY/CUX2Lz5808bixw0uO9P11Ee7Pvg3+cZARn+78GCoGexGjrMpO4jNIlJmeEGGfvxj2iJ5Hv9fWag36cjxxw07l0fJsffQRtdUXYU0Se41oPJjoLIZngdoYmr53OLIsJJF0TawmhuCG60dMmOQsNO+AHHw2xthv1F6sE1STabl1952bZs3WiV00bYgnOn2Zjx5VY05J1ctpHC5wuK8m3k2DKrmjLKsvO6bNPGrbZ75143ekSWkkQ2IuyLkRk6GNQHCOtIobyIb75L/UGauVSD8jOMzTlgIloiz/1g8KJkIOX1ox9FxaX28so9dqS21cqKs60g71SdO9hTQKhLU2unbTnQam/ubLch5ZNt6bnnuWwVQa/XMZSos1mcitAQ8k2TT59yI/o4d5x7QjreeOMNtygMLjMdC64ff3y8z2jZa6+95iY+8x0mQfM+1xuCmH3w+zFKikuNgUV7TLuJqGTflIc6gRFncvSziiVtiy8LdRPhcLTD3I89OziYBiyjjwHEtgmNQ+j7FTw5Rkblnn/+edeZpjw+WQAmElm82C/bxUxiP4hdvsd7lJ25IRyfX+CKMtH2YcxxjJwDzin74zNsm8/jXrNNFg/iPmShrE2bNrky+HvR1b2hc8y5YJ9+SX7eQ7dwLllfg+PhmsZIID1hkNCKmaJPuKgHu2Im22ChHiocKgcqC/KFsxxutNukckiHFTOpUKlYqJzJx0rjI1ILqk0aIRqPzVs3WeWkETZx5hjLL4h9iFVrc5vt23nEqnfXWtW4iTZn9pyECkJceIatOdb3v//9rrGMFK51hAHnitXpBlqPJAvEEg0555tHKoDJwbWBMPKib6DwuyGYNm5YbxXDOm362DwbU5ZrOaHNsg8uwf6uQhRGZ+h/iG+c791H2m13TacVl1a4XOW4sKlSnyOsf/Ob37jzQqcUIUlIIZ20L3/5yy4NL8Lyv//7v534BQQkx/eVr3zFGS6MKrFKI/OAEIy8T31Cu/ipT33KiWE+i9hFlHL9XX/99S4k5ZFHHnEjzGyD/QPtM2EXiF1WgaSjzL8ZwUJk02ZiXH3gAx/4g7Sh//Vf/+XmbfzJn/yJ+z5zU8idzcqStE///M//7IQr9zzl5EEd8KEPfcgd+1//9V87cTx37lwXsnbZZZe5dMQ//OEPXZ3BeaHd5lq87rrr3PcQzD/96U/d9cPx07mgjkFA/9Ef/ZFrE+m4E0bCYnX+c35U/eMf/7hbah9z7/vf/757jeuc34ER9n/8x3901xQCnu/zec7Vj370I3cOEOdBQk646JPBOuHAzcfwFqKbBxXNnDlzBpTaiIoKIZCqTjjlp/Kk508vn9XIRo8e3f2uSBX4HelcvvraK1Zz4pDNPXOSVU4st9y8+AiJnNwcKxs5zIaNKLL9e/fbgX2HbNjQU2m2EiHEuddw1rj3qAdY8CJSaIT5PiNhNOAMDyeizLECQUu5OdepIBTp9CDWEE3UvYM91xwzJsGMmTOtzQpt/a4Ttmlvg9U2doaEE2EAoesjtAsEdkfnux/tHTjeXXa0rsN2HemwNbvbbOvhbMsrqbJFZ5xtCxYsfNv5TBXIYIXzjUCl/v7gBz/oBDmvM/KL8GUCNkKTdurzn/+8E74IVJxkRCruMKYUi+F89atfdQ4tzjdiFrGNuCVMhPaX+w5ROm3aNOcyI2wR4TfccIP7PgKUNprPMZq6b98+J2CZX8TvhoONe4xopR3uea4R8IxKI4DZB8vQcwz87ixdjzC/5JJLXCz6vHnz3Eg2nQvCJ9knJh1lwGCjnIhx/v3ss8+646djwvFTbvaNI831Scec4+M773vf+9zf7Iv2kIxMjz/+uGsn+fvWW291E715n3ODa8+x/eAHP3DHirAn3pvOCsKc34N84HyGMnAs1Ft0LhDyQSP1lIxIOWgIuPjpnSbSwQsSXrjhNOCuXXHFFU6QiNQCQYYz9PIrL1pucYctPHdqSCAPtSyUSBzhlikrH2pzz5piBaVd9uaKU8PAiYoVR0zTEBJSxjmIBhphHggVhAT3QiqAg0eDjqDl+IMOQoY6BjA5YlnPIugRYTfddLNddtUNVjpuoe2oK7fnNmXZgyta7ck1rfbchlZ7cVOrvbCx1Z5e12qPrgo91nTYiv1DrDF/ks054yK7/j03OVGHQEqFTk1fIJxZrh2Rx8IvCGNEIGIUIUgdjxDmmXAIfg8EI/cA3/n6179ut9xyixPzvA44uXzegyD9y7/8S/voRz/qtgUIfQQmwpQl12lH6CjSyUVII1oxeNgPk6Jxmdl/tCsusw3EO8L505/+tNs/x0soB3UOAtlD204Zv/jFL7qRAAQ6x4fzTceCY6TO4F7i/HgQ+2yP48GYY5SMTiQhJnQmOBd0NohZ//CHP+w+4+9D6j4+h57AFECcsz3KG162VEAiXIg4QwWEO4ArQSWC24ADJFILfkcalLdCAnhEZZFNmzfOxW8nkoLCPJsyu9JGjCuyDZvXRpXDezDQgNPAIzRo2KMBsYWAx41CGCAWUwFfzlgL2niAwOG3ocyc52gEVzQgcjAPEFo4qLe9//1240232LkXX20LzrrUZi68MCS2L7Yzz7vCLr/6hpBYvC0k3G9yAo7rhxGFdADBSMcEON/eYWakEzFNR5MwTMIlcGx5n/ASH0by61//2ghCIGyDkAn//XDYbs/QCfaJ2OZ65LpEAPNbs01eI16ckAxELCGPCFXEKQZYNCDCOQaOMzyBAr89rxNy46FNC58rwnt33XWX/b//9//s9ttvt1WrVvV6/7Bdfz1wDNQTbBshzvXM+4hsXuf7dHS8CEd0Ux/TASFshbAaRiB83Dkd6FRBIlyIOEJlgEuBAKeCYAgzVWJLxTt4Ab5m7SobOb7YqqaOtrz8+Aid/iDsZcLUilBHYIht3bHJ9uzdE/dGB5HAxDGuXYa/o4UGFCHOUDTOH+czyCAGvLAJsgtOOb2DyoPfCXHWm6iLB+zHu5EIRkQggoyRDz9JLh3pTVQC54Lzj6j83Oc+Z//yL//ixOj/9//9f/ZXf/VXNnv2bLv33ntdaBcu8Le//W37u7/7u+5vvxv20XO0AHHKPeRdZUY+uJfYL4KWe4zfAKeYiZF0zAgzoQMQDdzrXPeIXPbnrzNGAfnNw0PSwsvJ/lgTgfAbXHGOHYec+78nfK+388ixIMA5PjoRdFzYLn9TBvBimxEV4tL/9V//1b75zW+68B5c+ERd/7FAIlyIOIFDSWXI7G0qCyrddG2U0hkaIEYy1m9Ya2VjC61y0siQAE/uUHp2TrZVTamwstGFtn3H1rdjruMJ1y6NPCLau8TRwJA4wgyXjoY9yHDv0uAjpuLlKg8WrkvKifhGlCFK+I0QT6kkQtIJrhVEL0Kc+GkcZUK4cISZ0Mk1xWtAp4Xfj+wj/JY8+ruHEcXEpBNywYP4cgQpIScIV9oZRhwYrSIGnZAW7rueYr4/EOHEb1Me8pMzeZOJjsSu444TgtMbHA8uNdcg26CeIJbbHzPH2B/EmtORYD/EhjMZlQwubIftA8dJR4DwNl5HpFM2Rh2IR++rkxREdKcKEQdoFKl8qSiJH2RWvBrG1IQKfv2GdVZUlm1jJ5YnzQHvSU5IiI+bMsryh3WFhPg2NwwcSSM3UGhYaeBpmGn4ogVhQuOKEKFzyj0SVHzZKHNQG3QEiY+x5XenfkGIqZ6JH9wDhIAgEL2wpeODEPavMbmScB0mH37rW99yISc41jjDuNVnnnmmc6bvu+8+++53v+tMGoQy26BDxTYQsOGTCPlN+S6imvuPLCg//vGPndgmppptgr9HEaiMjk2fPt2NSkQL1zwTHvk+k0y/9rWv2fe+9z1XBjKnMAGTMlFG70oD7zNBlM4Ikzb/8z//04ljykAoDdesP1843v5a5T7DLec1tkUSB1aOJjQFEU5IC9c2x0fZONdM6KQ+QaD/7d/+rZvMyvaYc5BKKDuK6BN6sYPNjhJLaGhSITsKFSm5X3EsqIwXLVqUUj1z8Q6IsQ0b1ltTxwmrmjrSLbATJBDilOnokaPW3NDmnGYaqnjBPUinhAlXNPbR3oc0stQrOPc0qrheQbs3OEaGwHmmsQ9iXYOY8eEyiDL+7cMg+P29KBKxhfNLXDRuN8LZn3PEMbHXOLQIaOp9YrN5kJWESZQYMV4kc5/y4HOk/COEh23619kGE2FxuIHfGYGLoUNGEb7H/sn4QcaV8Jhv6iw6yVzDzD9iQuNA7jHKQNtFeRD1HAdZVphwyfZ4cH/gmDNxE5HN8VEWRDcdDTKZMHeAMvAa2+F1zgtindf4Dg/+5hxyLrnn2A7nhPPAfnG9mXDKeUR88yC8h3LyXToidBw4v6mE8oSLPqH3Ptg84bGEnn3Q84RT8ZHCCaePCsjPahepB+KGiY/bdm6yMVNKbeSY0gE1ZomgpvqEHdh+3CaPn+GuuXjdH9yDXNvkSya8KtoJX8A9wqQxGl4adoR4kEDEEC6DwMKxCxrhDjjmCMP/XJd+oiDPEuGZCXHTOM9PPPGEE7pkLcHNTiWQpJSfmHYENa47xtZvf/tb1/knBhxhni7XuMathIgRNNzEATKBj6FHCfDUBrG4Z+9uG1qefyoNYUAFOIwYVWJDRxTY/oN735W5INbQ8OFk4WKT6WQg0KGncUU84mwhKoOED0UJwuhfTxAohPNwzvgtEON0jPg9gGs0yKOEIr4Q/kiYC9cEznDP7CqpANewz8Ly3HPPuXAeYuq57knJyOhAOnUyFY4i+kThKJFBuZh4grtHDBsCnCE1kbrQiBHT39B63MZMKLOi4mCFofTEOaFF+XakusayunKtrGx43Boq9oVQRYQzJIyjHS2EpfiMBzjh/DsInRxGP5j8BkEMRfEimzqH+pmyEg5BqALXLL/5QH4PkR5wXSBgfQ7zoI0yRQrhJYTeEN7DaBshL8R6E3oTxNGpwaAusxCDgEabWDWGzqgAEeDRpoMSwYNQrCM11VY8vMCKS97JkxtkiooLbMToYXb46KG4uuGIPOJRud4Hkq4QEI6MFLENsqX48Ipk411mjjGobhvlwvlGkHP++DeCnL/lgmc2iNWbb77ZxU0Ty52qcG3jeBPTTsw8kzCZgEpnPd3QHSvEAKGxZjidEBQaRWZzM8M7CI6eGDh0rAgpstx2Gz4ymBPz+mLk2DJr62yyozVHnaCMB1zfOK/EnHKeBrofRAIpD8nwQP5hnNxk44+FePAgQ91DWfkd/CgC12myrlV+O8K3gtKZEiJV0MRM0Se4gU899ZSbgUxln2yo6JkoGoSJmTSADMeztC/ON7PVg3COxOAhTGLV6hWWW9JuE6ZVpJy7uGdbtbXUZtu8OQtc5oB4gAhk0iqr/TH6M5AJmoCDyygSHZ8FCxb0uqhHoqAMzOvgmfMW1N+d8nGNIng5X3QYaMZ5IMaTYQIQhseoCKECqRiHLESykAgXfYIIZ+ndoMy251LFNUu2CEc4sHgBiyEQu8ZMbZ+ZQKQ+/La7D2yz0RNLbPio1IupbKhrtq2r99vMKfNczHa8xCQhL2RiwBFnqHigEM5FTmWGn8nkkKz5J4haJotyL4fnaA4a1D/UzZwnRG8QRt44b2SFwpAgzZwQIjJSy+IRCQfhyySsoDySDY7P5s2b3aQ9crvi3kmApw84vMeOH7Oc/C4bmiKx4D0hb3hBUY7VnjjuBFu8YOSHiVOEpBCKMFDIHUyMObHhpCDD6U0GjG5R3wU5FIVzQ7o2yhmUyaxCiIEjJ1z0CW4L+TqZpexTYCUTGqBXXnklaU44bg+L8ODGk2KN8xLENGZi4BCOsHb9aiso67TxUypCNWT3GynGwT01drK6zebNXuiyJcQDmg5iuVlRj4U3CFsbKIh4co8j7BlZSvS6BIS68dtzTEEORcGtp16m4x+kLBFywoUYGBLhok+o7LVYzylIQUj8N2KBVbwYOlcqsPSDOP9d+7faqPHFNnxUcEMS+qOpocU2vrXX5s9a7K7VeDmmxCYTSsIIAiv5DeaeYBGgtWvXOkFPGA0ZVBKFD0XBbAhqWjfqP8qIY09HIZHnpz8kwoUYGApHEaIfcL4RB4Si4PYRhiIBnp4gKrusw6X7S2XIGZ6d02UNjQ1OIMcLRCs58emw19TUdL86MAhtIb6cCZ9sL1H+EPsh1I3nIIeW+ZA8znmQBLgQYuBIhAvRBzTKBw8etHXr1rlQGJbPRSioAUxPcBgbmxotO9S/yi9I7U5WVnaWFZcUhkR4XVznUnAv4H4SR713797uVwcG28JF5XfAFY9nPHs4OMx0VNh/UO9tykgsOCMaysIkRPogES5EL9DoISoYYiXumzhVHL8gZIkR8QHR197RZvmFuZadk/pVIxM0m5ubnKiNJ4SqcW+Q5YSRhMFAyj3mWjBJk9U0uQ/jDecHEU5HIogTHTEDuDZ5MBlTdZAQ6YNEuBA9oEFmSJwYcATGnDlznNuXavmiRXQgcghFGagLXl/XaK+/uMIe+t1T9ui9z9qKZetC19LpRSQic/eOffbYfc/Z1o27ul89RVdnl+3bfdAeu/8527hma/erkUNISktrc9xFOOKVDCeMFrlFjgYJC/iQIpBUkbi/8QSBy/kJciiKd8Fx6YMwQV4IETukKoQIg6F78n9v3brVTX5CgLOynwR4+oMI7+zqsLy86J3G9rZ2e+bRl+3hu5+xZS+ttOeffN2J8eWvrHYCrye8Vnei3rZv3m2PP/CCPfPYK7Zr26lwDsRsQ0jQb9+6x5555BV7+uGXbUsPgR4JBU6Et8Q1JhxwjxHNPMiWMtj9IeqZe8FkP0aj4tmJQOCy/aCGongXnHoJQ0D1kBDphe5oIcJgGJyGnxUAEQIIC+XizQwQj13WaTm50YvwfbsP2RsvrXKx2Nffeplde9MldqS6xp586AVra/1DUdrU2Gx3/vz39sAdT9qatzZZR3uHE99wvOaEPf7g83b//z5mK99YFxJgbdbZEX3u7Lz8nJDIbH97u/GEMAnc8FhM0ATSKpIhhXz8PnVgPPChKEF1wSkbLjgTwbUegRDph0S4EGGQnmzWrFkuTRrCQmQOp8Rql2XnRN/p2rZpl9XXN9qMOVNs8dnz7PzLzrLyUcPtwN7DdvjQ0e5PvUN2SKyXlA21MeNG2ciK4d2vnoJ49KHDim105SgbNaa8+9XoycnNto7Od8R9PMFFRjgjFgc7QRNwfH0efkalcINjDcIeh5ln3PegEe6CUy/JDBAi/ZAIFyIMhERVVZViLzMQQhO6EOEDGPKvOXLcudmjRo9wIpq48uEjSq2zq9OOVB/r/tQ75IdE39Xvvcguv+58q5o0tvvVU5SUDLXzLllil117nk2dObH71ejJCh0HQi5eLnJPEIrcP0yoJJRksJAFhNEoQlx4xHqSJi4zTjhCP4ihKJSPtKg44FoUTIj0RCJcxB0akp07d7pc24lMPTYQcJvkOGUm7ncP6dWBiNampmbnOBcU5r99/bi/Q8+NDY3u3+HghJeFRHrp8BIrKHi3wCIcZljpUPdeUVHqhCAgFsnzjVgmU0osGDt2rFvSfuPGja4eiSU+FCWIHW6uQRYQonxywYVIXyTCRVzBFXv44YftF7/4hf3v//6v/fSnP7WnnnrKxXkKESROOeBZITEdvQjPy811QsnFbnd/3Tu3yVrYibJkZ2UPyNkfCBw/S6njYCPCY+Fc41AzORrBTFgKz7GADpPPnx7EUBTvgnMutTCYEOmLRLiIGzR0K1assBdffNENpy5YsMA1fE8++aRLPxbr4WUhBgNiFSHZNYAY6qElxe77J080uBAUOFlbb5jqpcOTswx6R3tIhHcfU6LAtWWC5vHjx+3o0T+MhR8IbBMhziTNY8eOxSS8xoeiIMAT1UmJFOpNJmNSP5IRRQiRvkiEi7hBQ0zDSaO5dOlSu+666+yMM85wQnzLli1WX1/f/Ukh+ubw4cP21ltvuY7bYBeDOR04jlmhKrGtLfrO4cSpVS4OfPP67dbU0Gz79xyyo4eP2ZDiIhs3YYwd3HfYHr3vOXv5meXd34g/rS1tlpebl9DFXfwETfZJpqFYMWHCBJern5C2WLjhiPCghqJQLupGBHgQY9WFELFDIlzEDdKV8WAVPFbU45ll38k6grCK90IcIj1oaGhwGTd2795tzz//vBtJWb16tR08eNAJlljhXFHL6TWlYH9MnzXJJkwa58T3D7/zG7v9P++whvomO+/SM50QP3zwqD398Eu27KUV3d+IPy3NbaGOQWHChRwhKQhmUhXGYoImMJK2aNEi54Qzv2QwGV98KAoOeNBCUSgbYSiMXig7kxDpj0S4iBuIbCZh0tD5uEb+RhQgrGIV3ynSHyb9zZ8/342oTJ482V1Xa9ascfMNXnrpJTeyMth80k6EZ4VEeEv0InzI0CK79ePX2UVXnuMmZA4vL7MbP3CVXfXeC53YY5LlorPm2Iy5U7u/cYq8vFybPnuSLb3oDKua+O4sKbw3cco4lyll0tSq7lcjp7mx1QryTt1vicRP0OT+prMdK1g0i2wp/O6DGUXzoSiUM5GhOpFAuTg2QnC0PL0Q6U9WqNEafICdSEtwsZ955hk755xzBhSbuH79erv77rudCPnABz7gcm8TVnDXXXc5V/yjH/2ojR8/vvvT/UOMJNv7zGc+k7AGChGBC0umApEccFMR2KSO5FpCROFk8qCjR4eO13FLmciGC0v4AqMv0Uxq4/pauXKl1bcftWnzxrk829FAVcrS9S3NLU7cFQ0pdC44tLW2WWNDc+i6zXbx4x6+09zUEhJf7aFOQL4T8B7ea2kOHWcLjnaeFRZF59puWrXbSgtH26wZs915SSQ41swHYb/UH7G6X/2cEhbROv/88we0XZxmrifCZoKU+g8XnHJxjMTVc02nCtyj1PfcezNmzOh+VQjRH3LCRdzAWaSRo1HxYQP8jdjBhUoFp4eGECdRj+Q9uE4Qtf7fXDuIsBEjRrjrC/cQIU68OMKV17j2or2++LwLAejMspamU5kzooEyDgsJ7JEVI9xCPV6AQ15+npugGS7AwYv1ktKh7xLgwHsIbxb1iVaAI+gaTjbb0CHD3LlINISk0AlCjMdqgibw25555pkuNIlwpGih7mEUhd86aFlH/HXMuUslAS6EGDhywkWfDNYJJz3hHXfcYZs3b7aPfexjLpSA8IFHH33Uzj33XLvhhhvcEHOkJMMJZ588dJskDwQXccA4n3TiEF88WMAFUYZrOGbMGPfsw528eI8WJhNu373ZRowrspFjSrtfTT3qTjTatjUHbcHsM9wIQjI4cOCAG1kgzzfx3LGCDsayZcvc9m+88Ub3W0cK1w8TxpmQSUcuKHBMdFioa7iO6YClEnLChRgYOd8I0f23EO8CxwjxQyOO2IkWHEvEEiKcYVYaTcJRaASvuOIKmzJlSlSOD0J4w4YNLsNKopwi9oOY88JOj8Q/aODJjMJCT1xLCBVcVmLE582bZxMnTnQxyIQ+cJ3ynYFeH3yvuvqwdViLlZWnbnq4w/uPW05noVVVjk9aBhB+Bzry/H4Iy4HUIb2BQOX3ZgEf3GMme0cKYWW4zYTDJaojHwnUtdSLhMhw3lINyo/p4sPBhBCRoTEvETdo5C644AI766yznIh67LHHnHt5zTXXuAlWqdjYiMRDZw6hTZ7566+/3i666CKXNxohTviIDz2JhXvI9gjhaGpoG1BIShCgs1p7pM5Khw5PeCx4OPxuCDLi9mM5QRPYNiN0TNJEvEYCnTfEIp2BIIWi4ILTUaGzlIzQISFE8pAIF3EFx+rjH/+4/cM//IN9/etft3/6p3+ym266yTlRQkQCYnvJkiVOiJM1woecxGPInm06J689x+pOpGYKzbraRmtvs9A9Njypoo5zSdw+gpe48FiHdDH5llG6V155pfuV08O8FER4MjsmvUGZ6KhEE5onhEgPJMJFXKEhxrUiZnfatGlOlCMM4iGgRHpCiMhgQkyixWVVySq0E8fqTy1Dn2IcOVBrZcNGuAl+yYYODecTJzzWbjjXA3NL2C4pKk8HHQBEOG54kBbo8RlR6FwGbaKoECL+SISLhIDo9g8hggydxFGjKqy1odNNcEwlmhtbrLamwUaOqHDCLtlwvxPnzDMxw7GGCeOEpbz22munTSOK2MVxxhAISiw4HQMccCaLBqHDJIRIPBLhQgjRAzJ6ZHXk27HDdSnlhh/cc8yGDRnuhG+iRg76AzcckUlICpMiY83cuXNdppPXX3+9+5U/BAcckR6kUBREOPHsnJsgTRIVQiQOiXAhhOgBDuu4yiprPNFmJ47FXjjGg/qTTVZ7pN7GVlQGas4F4R8IcQR4LHOGh3PhhRe6yd9kYOoJYhe3GTc8KKEolImVMekcyAUXInORCBdCiF5g4l9e1hA7cvCEW7UyyCAw9+88YiXFp2Kwg+KCe3xISjwmaAITQMm49Oqrr769MJjHu+CEogQlHI7fCxeczolC9ITIXCTChRCiFxBt06dNt+YTnXb00ImQcArmgk2IWvKCt9R12oSqiYF0VhHh8ZqgCXQ6WD8Acbtq1ap3CX1eQ4S71VADAikJKfNAFkETQqQPEuFCCNEHY8eOtbGjx9nR/XV28lh9XFzcwUBxCEM5tKfWxlaMd+UNIri9ZEZCELMyZDzOI/m/WZNg06ZNbh/AfpiQCXSqggDOPBlR6JgIITIbiXAheoBrRtYCBIPIbBCPM2fOtKEFw+3ArmPWWNfshG9QYEGhPVsOW2lRuU2ePDnQae4IvcCNrqmpscbG2Ged4bcibzgraL755ptvpyTkXmZCZlDCPghDocMQpFSJQojkIBEuRA+2b9/uYkurq6sD53yKxEPKQpbIz2otCAnxGpcGMAiXRUtzm+3ddthyOgpt+vQZgUhJeDoQ4AhxlrL3TnWsIZ/8okWLnNO8bds2J8JxwoMSikLHgFAUueBCCJAIF6IHTMjDNSPbQl1dnYS4cCnwFixYaM0nsmz/jqPdQjw51wW7RYDv23bEWk6azZwx24V6pALEhQMTNBHIsYb7lt9qzpw5tnbtWrcfYq+TuXKoh+uFzgeufBDKI4RIPhLhQvQAR3HWrFnOsdu5c6dLbyYE7uXiRYutqdZs7/Yjp0JTEjxZEyHX1NBie7ceDpWj02bPmuvCL1IFziEdBiZnxtMNZ3VeJj2uWbMmMLHg1COkJSSTixBCgES4OC3ERZPfF0c4CI9EgbCZMmWK7du3z/bv3x8X106kHgjIJWcssfa6XNu96bBb2r6jPTFzB9jPyeMNtmdztbXWZdu8uQvcokKpBK4055CwDGKj4zXvAqcZN5x90JlONt4Fx6UnHlwIISArVDlorF30Co3XI4884iZ7BWFFNy5VGtVPfepTCSlPW1ubrVy50sWXLliwwCoqKgKXf1kkBzqmq1evthMNNVYxvsSGjxpmhUPy4zL5j+u+tbnNjh2ps8N7T9rQwjKbO2euDR8+vPsTqQVu8LJly9zExIULF8YlXhtxzwRQ0hXiQF966aVJXS2Tiai4/0wcxalPN4hzX79+vYv5nzFjRverQoj+kKIQfYKgQOwiAnCCk/2gYU2ki0TngwVAOAfEhyMe1GcVgHA8++yzbcqEGXZ4Z4PLUHLs8ElraWqL2TXixHdLmx0Pie89W4/Ykd0NVjV6kp255MyUFeBAmAhuOJ1bHvGAuoJONJltOI8bN250dUgyoCyYB+RvT0cBLoQYOHLCRZ94J5zQjCBMJKIxW7dunX3mM59JqDPPUtgrVqxwEzZp1DWpSoSD47plyxarPXnMhg7Ps7JRxTZkaKEVFOVbTm70PkdHR6dLPdhY32Inaxqt/nirFReW2PTp091oTFBS7Q2GI0eO2BtvvOGc4blz58ZcnJJmFOeZ87V3715Xb5x77rk2ZsyY7k8kDsLo6GxQjwZhRDEeyAkXYmBIhIs+QYQ//vjjTngGIactIvzFF19MuAgHFgAh5RmCYfz48XK0xLugGj106NCpjDoNJ6xwaI4NKcm3oqEFll+YZ3l5OZYbemTnZFt2dpYT0nyHiZ2I7va2Dvcg7KSpISTA61qtua7DhhQOtUmTJrlFeNLpmsOVRoQzurR48eKYpuyjnkD04oSTjYVQkLfeesv9+/zzz09oJ5rjPHjwoIsF55GuSIQLMTAUjiJEBEydOtUNoW/dutU5nzT0QngQ1Qjl8847z84+c6mNGDrW6qo77eC2k3Zge60d2HHMpTbcv/OIexzYfdQO7Dpq+3byWo17/8D243Zw+0k7eajDSgsrbPHCJW576djpoxONK028Np39WN5PdG4Q3j7WnOwoZEshjp9sR4n0nfxk8qDkKRdCBAuJcCEigPhwsi0wMRNHnAZdg0iiJ4hxUtAxkZfJgGeecbZNHDvVSgoqrKuxyBqPZNmJAx1Ws7vFju9rC/3brLO+wIbmjbTxY6aGhPeZdvHFF7sFZwilSNfwBaBTy31FaArhI7ECYY8D7UfvuGf5TSZOnOgW4iI+OxGQAQYRTiy4JnQLIXpD4SiiTxSO8ocwtMyS2DTo5BJXujERLVS5iESEWaaLM7KXkAL0jDPOcCMJg4Vzy0gVz4j8cKjPuHfJkrJkyZK437ukJGS1znTvTIHCUYQYGOqeCxEFCAUmyO3atUv5w8WAwC0nvETuqLk853SuWdmSmO3Bwv0YHooSDllZyP2PSOfejSe48YyWyQUXQpwO1Q5CRAnx4Uz42rx5s3O7FB8uxMAgTIQHISlM0hwsOM/Q2yqZuNHctzjThKXEa/EvXHicYSaAUo50yGYjhIgPEuFCRAlxrGRJoVEna0pTU1P3O0KIaOAeYoImrvFgJ2giftkOLnhf7jNhdWSbYT/M7YjHSBYdAeqEYcOGSYALIU6LRLgQA4Ch7fnz5zsnnMY8FkPpQmQiuNOE5+CGeyd7ICCoEb+ny0SCKC4rK3MZZ0gpWV1d3f1ObKAjQGcCsY8TLhEuhDgdEuFCDBAcPCZnkvaMGFOFpQgRPXRoEeIsrjOYEBEyrOCA95cHnAmZxKLjVNOBJoY8VtAJoEPOMSkWXAjRH6olREJgmHjlypVu5cl4xWImAyZ60aCzIh+pz3DChBDRgTONeB3oBE3uO2LKccEjcZ8RyewTAb5nz56Y3Ld0wnHBKYOyJgkhIkEiXMQVGlRCNlavXm1PP/20W7mOSUvpgs8fTqO7du3amOY7FiJTGD58uHsQHjIQZ5qc3Nx7iOtIwKXGfWc0i2XtqaMGC+VGiJMCUS64ECISVFOIuLJhwwZ75JFH7KWXXnLDzcRtpptbjPPF4io44UzUVFiKENFBTDjpP3GSGSmLto5AALONaBxoMpf41UjJlkJawYFCvYa5QF1Ax1wIISJBIlzEFYaGmaSEy9VfrGYqQ9qzefPmucY8VsPbQmQShHWRLYUJk9FO0CQUhRjvaCGPN/ulA33gwIHuV6OH/VPXyQUXQkSDagsRV1jY5vLLL3fLeA+kkUwlJk+e7NKfEfteW1vb/aoQIhJwkXHDWZWWOSSRgoPNg+9HCy54ZWWly5jCAlwDCZUjFManRmR7QggRKRLhIq54F5xYzXRfupkGmPhwGmOWx1baQiGiY8KECe6+IV0h4jYSEMCMsg1UAHO/VlVVuf0ixKPNHU74DO434S1ywYUQ0aAaQ4gYwnD0kiVLXGzrqlWrul8VQkQCq2fiSuOGR7IIFmFfuNeDGWUjjGTUqFFukiYTQ6PJHY4D73OTKxZcCBEtEuFCxJjy8nI744wzbOvWrS6HuBAiMnCzcaXJVoLD3d/cCkQwzjWd38HAhE4maeKo44ZHmqEFF5wya3l6IcRAkAgXIg4wrM5CPsuXL1d8uBBRgBgmdG3fvn39ZixhQiQCPBahbiUlJa4DgLBm8a3+OgCkRGQCKftXLLgQYiBIhAsRB3x8OEPrr7/+uuLDxbsg3nnHjh0RhVxkGswjIWMJIvx0jjQiGcEcqwnfxHMzSZORrP5yh7NvOgA46FqeXggxUCTCRUJAjM6dO9dmzpw5oCwGqQhD1GeddZZrrBUfLsJBhMd6yfR0gixDdFxZQbOvCZo40YhhRHus4J5lFIvt7t69u08nnn1TPvYtF1wIMVAkwkVCYHW6Cy64wIlShn0zBTofZ555phNcOJ9CeBByWtipd/wETdzwvnKG44KTdSnWGUlwwkmVSIYWcpb3hN+MfcsFF0IMFolwkRDIHMCwcSakKgyHBpo4U0JTWLKfRUGEEKeHOoLYcFbZ7S1kB6eaiZvxWHuAfU+cONGN2OGGI7jDoTxMBpULLoQYLBLhQsQZGmoWLSJf+rJlyxQfLkQETJkyxd07ZCvpGRZCGA9iOZpl6qOByZYIcfZDfLgfsUB8E16GA85DCCEGg0S4EAkA14z84TTqK1as6H5VCNEXPm3gnj17/iAkJV6hKB5GsAhJqaiocJlScOSB+9fHoWfSiJ4QIj5IhAuRAGjUS0tLnRAnd7jiw4XoH9xwBDjx2X4lS54Rw4jweIILz/4R+nQEcMAJgWHyplxwIUQskAgXIkHQmOOuKT5ciMjwEzQRwT6MCwGOS56IeGwmkZMthSwtdJzpTGt5eiFErFBNIkQCQTxMnTrViQvlDxfi9CB2J0+e/K4sKT4UJRFZSdgH6RJ9R4B0ifGKQxdCZB4S4UIkGCZ9saw9KepwxIUQfTNt2jTnem/ZssVlJuG+IXNJIkQ4kNmJxYPoMNfU1LwdFiOEEINFIlyIBIN4YJgbIU4KNMWHC9E3CHDccJzo2tpaFw6SyEmRZGbB/WaSJo488elCCBELJMKFSAKICOLDZ82a5bKlKD5ciL5hgiSx4IhgRpIS5YL75em5X+fNm+fEOB1nJmgKIcRgkQgXIkn4+HDyh7/xxhuKDxeiD0aNGuWyC1VXV7v0gIkS4cSh44TjvrP/GTNmuHSFrKSp1U6FEINFIlyIJMIEs0WLFrk415UrVzrnTQjxh+CGh6cqjDd+VU4mhyL8gUwpY8aMse3bt9uxY8fca0IIMVAkwkW/0OgF5ZGOkHlh/vz5bmU+cohLiAvxh7BEPWEhGzZsSEhdQMeY0SkEOJMzPYSQ8Tr3a89FhIQQIhqyQg2+WnzRKydOnLAHHnjADbsmavi3Pxga/vSnP512q9XRmCMuaNjPP/98Ky8v735HpCMIvCeffNLOPfdcF2ohTg/ni1AUJmcSDnLDDTfEdcEc6jzmafBMuFjPnOSbNm2yrVu3usnVlZWVgakfk8XJkydt/fr1rt4iZEcIERlywkWf0LAwCQonKAgP4jJ5pCMICobbcftWr17tRIcQ4hSEhVAXTZ8+3eUJJywlnv4R9x85wal3elsUiLSJ3KuEpVAeIYQYCHLCRZ/ghD/11FM2e/Zs1wAmG1ypp59+2j7zmc+knRPuwe1bvny5izslVjwRqwKKxCMnPHK478mKgstKPcToHO70hRdeGJd6gFAXn62I/fS1Dxz51157zWbOnOkmWIeHrGQacsKFGBhywsVpYVISMcus8JjsBw1iukMjRqN+8OBBlwoNASJEJkOHhXqI0SJG5+bMmeNy68drtIgFgbwLfjqRT95wJmpSFkS7/CwhRLRIhAsRIHC+q6qqXJwpKwSyQp8ad5HJEIqCIEaIA2FbCPKNGzfG/N5AfCPCcbXZZ3/QYaZcTKjme0IIEQ0xEeEM3xEXx/BcXw8WPGCxBdI68dl0yHTBsRCbSMXdGzQQDNMRYoCYEiISaPwRGsS/IzS4b4TIRGgnELfcE37yIwKZ+2PXrl191r0DgfqafTH6RNiLF/2ng88RrnfgwIGEpk8UQqQHOd8I0f33gEFUv/DCC/bwww/bm2++2euDio0lh5999lknSFktMNUn2f385z+3l19+2ebOnesq454z5BHgxC8S+4lTcvbZZ3e/kxqQsYNy48yysEyyoZEkgwgZCSJpIFMZ7g3cPrKlMOw+cuTItI2Dz0QQj0zqGz9+vBUXF3e/KnpCB5SMSCUlJe+6/qmP1q5d69oR3osF/CaYRYxGMeky0ownLOJDOAohZNyn3LuRfjddoK2gE0I7qMxOQkROzJxw7/iykhju3bJly2zz5s2uYuJ1hDrPb731lns9kni+eA7Ds+3Bbp/FVZiY05tTSaeD9++++24nZHsTjYr3FX1BI07MKY4f9xSp2eSyiUzDZ0Xp2QEdPXq0mydCqsBY0NMFj0ZE81ni1GnT6DRr5VshRKTExAlneJAYVhzKJUuWOEHOpLJLLrnEbrvtNjeLnQUOCN9gBjUT/RAYR48edaEqOBBUfF6o4irwfWbE455TqbGyYM+Kkd73tm3b3P54H5HCd9gu28ItYZ9UjLzHZ6hoGTpkKJMOAhlA2K53L+jN79+/35UJx57y+XhEPo8Y4jN8lswhOCfXX3+9c0PCy4dwevHFF50AX7hwod1yyy3uuCkzZeT42A9lBx9/SHl4jwqdjgv74vzGMyduX8gJTy4cI/cFQoRrD8cvWoEggomc8P7hHFEfct1TB/a87hHmpPMkLnuw9RNtDHU52+mtrekP2g/qJ3KH+ywumXSfygkXYmDERIQjFmhIcCaoMHHCmVRG+AUpuEi3xs2JgGUIkcoV8Uy6uWeeecaJ4kmTJrnvIpofeughu/POO12ox+uvv+6+R2MVnh2DCo+b/jvf+Y6tWbPGrTiIWLn99tud+EXUsl/CX37729+6SpyZ7ITG/O53v7PHHnvMXnnlFfdvKl+cFYYgCR3h84jv559/3jn6dCDYF2W699573Wt0DjgGhkp7inDKxnYI0WHbfIbGZPHixW4k4De/+Y09+uij7thIR4cQp6xU/m+88Yb98Ic/dOKXBoZ/08Hh/UQjEZ58uG5p4OlYcs1xDySjQyZii0R4/1B34kxTL/YWisXrtDPUBYSlDBTqFdoOfhPagIGmBcVkobOMiYTJFIQ6M1FIhAsxMJKiZBDVNDw45Ah3hCYPbmTEKyKc2DpWRWNRBMTyHXfc8a7wDQQv4oSKD9eZNFE4xzgRhL3QwCFueZ1KlooB0UyMNqL/zDPPtKuuusp9H0f7pZdechUxoSU44ISZ4EaT/5Xv33fffU5A01nA7Wf7p5sNj+AfN26cayAQ+Ah5nO9f//rXzglfunSpXX311S5HMB0FOgXsj3NA+RGbVGrsj4ZBZC7cI9wHiBKuO64RIdIZ6lzqYur4vuZC0BmdPHmyuycQ0AMFk4R7iu0NpoOLeMcMov2grlf4mBCiP5IiwnFWP/CBD9gnP/lJO+ecc1xFi/BEhOJ+UykidImzO++885zgJr7aL6DgocKcN2+eq0CpiKn8EOoIW5+VBcGNoEcQI8hxdnGkP/GJT7jHNddc4xwVRC+f9VDGj3zkI66MiG1CWnC7+c6XvvQl93pf4pjy4tYyYZMGBAF+8cUXu/hFnBL+/bnPfc5t/9Zbb3VC3cfPA8dAeT/60Y+6zyDERebC9URHDteU+4ROnBp4kc4QHoKwpo4/3agXnVNGiKjrBwJ1LfU7oj8WIxI44HQMqM8Z/WS7QgjRF0kR4YRW+BhonGgcBEQFlSFuH6xbt84efPBBJ8oZauRzhKqEQwWNoOW7VHoIZQT4WWed5VxwXHGG8REwfN/HXyPKGdZH3FBp4jRSYYZPsCTtFJPiGF6jkqdjgAhiOzQKdBDoPEQKZURAEV6AwPcOD+WgzHRAwo+PzxBLzv5P1wgFHRo5jtuH1hA6xHGGj2qI/uG6oTPG9cJ8Bq5rNfAiXaEu5prvLzSEup36HBNlIGDgUPfSHrG/WOBzhxMqo0maQojTkRR1h/hEAPeEiosH7yFyccN5XHTRRc5JRgCHw3YQ9IhoQlwIN0EoUwkSWoLwY3uIFypZKnSECxUvohp8CAgVcPiwJ/F8/t++TDQM3oHk72hEEN9HeCM+6WjwXR5U0nQ+2Fd4DCFljVWjkEwYXSDUhjh4/yD8p2eHSvQPHTLCo7hWGPkh/EqIdIN6kTrxdKEo4TDiyGT2aO8H6nLqf+pm7q1YwbYIS8EUwoCQ4SCE6ItAWaxUXghmKkUEKIIDge0r154iHBDXuNZ8hoqY7/M5RCxOBN/H0eZzTHAkhITXmVyJ206YC64iMdw4Kr2BK82kUcIAiAsnw4vPjBIpHA9DpzyzfyZk4t4wMRSnHUee8qUTdDA4Ts41x0dnit+YCa+MXMglih6uZ+4LrndCq+hACpFOcE0jXPsLRfFQdyPYMWGiwceCUyf157hHC2YQ9TmJCMJHWIUQIpzAxTlcd911Nn36dLv//vuda/qzn/3MTZKkUu6tokRc44TgauCgUCET24dDjstBqAcVIpU5DjmTQXEnmOj5y1/+0k36ZEiT2HQ+2xuIcLK80CgwQfNXv/qVE+N0FnhEAmXnuNg/opuFfpikiZgn/vuCCy5wAiud4DjpuOBmcXw333yzG9ngnCEgo+nEiFNw7ri2fXy4T6cpRLqACx4+EtkfCHDMF+b8RHov0F6wH9qFWLrgHu5T5ivRBjFqJTdcCNEbMUlR2BMqOFxlhuSI5/aVKa9T4SFGJ06c6EQtr+Ey42bzGoIUMYq4RlR7gXrttde6z/eEbbNNHGb2t2jRIud2UzEjVpggyf4AcY4jy/6o5Pk3wvyKK65w32X7VOLsn3AYvo94pqL2Ljrb5X3KhODHZWefvB4uyPmbY8OVpzLm++yTY6S8fJ79sX9CbYhjZ19U1pSL8rD9ZIJLNJgUhYSirFixwh0X2Wjo7BCGgmPF78axR5P5hesh01IU9gbnjmuEeQxk0OEcck2FX38i2FDPIM7oTPFbilNQ/3FdU//3rFNPB3UprjN1NvX76aAeQRzjUDMpv7d2JRZQfuop6izqvnS+R2krlKJQiOjJClVIgZzdxVAhEym5qXnEEsQxFTANIduOtBLmVBEGgOCPpoHoCQ0NMescYzwbgcFCY0ged0YJKGe0ELbDiqE0RO9///vdJFpGEO666y7XOSH7CyIkUvjd2N5nPvOZiF2ydIZsQEx05VpkNKg/8SGCAyKQdKyMsPU1ApeJ4E6TBQujg+s6UqhTH374YVefY6qcDup96ja+g2CMZ4eekDvWi2AfjILSdqQjtNXU95zPGTNmdL8qhOiPwNqJOK+46bEW4ICAwz2MduETRDdCB5dmMI4GFTL7p8IKqgCPBZwjHuH9PP/3YM6fOAVChfhwBAXzIRQfLlIdzBHq/t5CD08H9Ylfi8FnweoN6h/uE2+AxFOAA6KbkVLmHTGqKIQQ4WTumL6IOzhZdDJw/fwkTJwu/qZzla6uUKJAeBDmxGgCoT88GC0QIhXh2kUgU2dEO9LFvUDoIt8lhWdf4IJTB/nRzESAmUToHaNWp+sgCCEyD4lwETcYaWCBI4aXiRfE5WJBIiZkErsZj1GOTAPHkMVBGKHBaSPmPqARZkKcFjrrONMI5IGMlCGqEeJM0OytMxrugjMSmcjROEI06CAgxHV/CiE8EuEibiAMScvI8DJxkWS7ISUjE9F4XRPSYgOdGZw2YNKrss6IVMQ71NGGongQ8EzCJyuTX304HFxwjADE+kAmmg8GQhiZUE7YGBmjhBACJMJF3GBImXjIK6+80jV8LKjE0Oz111//9qIzIjYw6uAFiOLDRapBiBoPxPFA6wWcbeZJMNF106ZN3a+egkmYOO0I8US74B4yhZFNi8npdDiEECKboTGyLLBwDVA58DfZO1Id4u9Ikcfj8OHDbhn7V1991U3eiQfPPvusPf30066iDwpkc+GYeSRDmNEgskjPBz7wAfvwhz9st912m5133nkuTEXEDkQFjTxpLVmp79ChQ4oPFykDdRNONiJ8MAIZF53OKDn0mbDs4V6gTUvmXBSOj3S1tA8bN27sflUIkclkI7pZGAcxjlPw+uuvu4kt6eBS0rkgDRgL4uDCIsY5VlasjAf33HOP3XnnnTER4YQUsLLk7bff7uIIBwrO6O9//3uXvovfNxkguHGAyL1O/LJiweMDAoTzTBgQHU5+e8WfilRgsKEoHoQu803YFiNCgAvO9nkeSKrVWIILv3jxYrdiMPNkhBCZTTaO2apVq5xrjEhjBUn+9tksPFRgkYhLGv3whj9SEXC6z0WyjZ77BSpcskdQMVO5s2AC+an7c4RxTTjevuhtX0AcIo/e3jvd9nqDyUN0Fl566aVeYwj7KoPHv8fviCvEQ85o+kPsKZ0dfn8a+nQY0RLpDXUdbQsuOHX1YCH0jVEhJir7dgtTg/ZgsCI/FjBaRVuEKaQ6WYjMJucTn/jEN5544gnnfLNK44MPPuiyWdBbp9dOb/2RRx6xRx991F588UUnDKkoCTOgoV+9erV7n6wMDLEh6HE+cR5Y6IX3mJRHjB6VLCKY7+POvvzyy66SfPzxx40y8H1i+vg+Q5IIiAceeMBtgzg6ZpfzN84ww3qA6OUzbGP58uXO/SY+lkl/VL5+gs7ZZ5/tnEHKxXd7WyCDMBWcc1xjyoyIwbWlzJwfysMx8T7ngklwnCPep7y/+93vXKXKwjQ4MXRqcOEfeugh93lGGDgG4qKBzg6vsz1cb9xLvsdnOF7OD/ll6TRwTqi4OR5CXjgPy5Ytc//mPRoYysDxcy55n9/G/0aU/6qrrnIiLVLY72BWzIw1HItWzOwfRAjXEFkiOE/++hXBgbpJK2aegnqVdoC6NhYimWue65/2hLaAa5/zzd9BqDcoD3U25aO+9+1BKkNboRUzhYienL/927/9BhUBw9g8qAwRXaRUwj244447nFBEZCMqEeE4s4hPXGaELyKTBp8VsxC5LA2PQEQMsg0efA9Bx4Q8KkO2+8Ybb7jXEJp8H1HLjcwS55TpZz/7mROxDCtSUbMsMQIc4cky9sT8/ehHP3IZNygb2+Ez7I+FG7wbTOYIKgYqYsrMcbL9cOh4cBzPPfec+zefpeNA+Ygx5HgR2Yh9zgWz7Imd57jovCCCw0U4lT3hKQhsyoUjTdkR+pMmTXKNDcdGeAyhMghytuUrMh+nz36otPkOQpjtUUaOkc9SkfMZfjM+RxnoSPAbMcpBQ8+22KZEeGZAZwxhx73MfcW1y/WpcxYcJMJPwT1N3Ud9TN0Ui2uU65+6kHlA1H10QhG9dE6DAp0EoM2kfg1S2QaCRLgQAyMbd/W9732vWz6ZioBMFj6bBU4wE/roqf/pn/6pffnLX7bLLrvMicXXXnvNOcuITgQhzxdccIGbeEej7x1nlib/whe+4MQvopaKkc8yBMn3SFX3yU9+0j772c86YcoQHd/FNUb8I66/8pWv2J//+Z+7YXa+w2t8H7cY0T1x4kT3PvuiQcP59S42AtwLWIYB6Vz0JkQRx3yHCvySSy5xS6NffvnlzpmnvJSdjgVQXs4HQp+OA6/zmXCokHCjKSvn7XOf+5wTj+yDkB/ef+yxx9z+/DnifdxwJtYxEsHxcgz8NkuWLHEClJh94qo/9alP2ac//Wn32+CYI+Q5FytXrnQN2h/90R/ZX/zFX7hzI/GVeSBC6PBy/dJRY4KuEEGDepzOInUW12ysYHvU+94AoR4NEtTJmEF0jgcz50cIkdpkU1nhFHinjEldPKi4cNFwKhCDuL2IzoULF7rP47ISZwz+M6Semzt3rhPWZMSgEkQ44jDjzOL+sF0qXQ+u9+zZs+2ss85ywh/RSq8acYvDi5A455xz3L6vu+667m+dinXmMzzjkiNEEaD8m84BYhZRzzY5Lh64DxxvbyDMEeq43LjNOMrsn44FHRVELkKGstNRIFbbdz4IwQkX4ZwP3HucekQ2nQU6M5SLbdJJQIRz/hDRF154oUvlhxj/2te+5sQ/55jfgYaJz/A3n6d8bIcysF/KwL99JwJXid+K7fF86aWXut9WZB5c71wDXLN+lEqIIEF9T93cV708UHy9ybaph3kOGrQ5tKesdOsnkQohMos+ayYabgQjQhZ3mUoNQUnDTuWB2EUsexCNVHp8DqFITDXhKIhhwk98nDcCNRxe5zsIYN4HPsO+AVedCpr32E74ZxDfHhx2RDIrptEh4LPRwJDgzTffbOeff77bN8KZOG3EOCEZXnBzPghdYX+UjUoUl9+Xy8PngeNiSBRHhg4B4pgy+vc5n7g0bBexT4eE5574881x05mhDDyYgMQ2OY+cD97jb3/OiH1n2yIzofO2YMEC14FjdInrSIggQF1GnUZdFWsRzra51qkLGVnk30HD18+MbGKoqJMsRObRpwinUiS2C6eCGGxEOQ+cVgQlwpEG3kOF4t0GhDeVCqEQH/rQh+zGG290ceK9VYQ9xasHQc97uPEIVr6Lm+e3wb4Q2pQT4UqIyMc+9jHnluPCE3YSDTj7iGVCQv7qr/7KhcAQr4kA9xNovFAm5Ib9IdpxmnHq6Uh4KLePi0Oof/zjH7dPfOITdsstt7jPI/Q5d5xPKl6cGoQ/ov/b3/62m/wZDsfsxTrHjbtJzm22yegD4TOMPrBPysnv5TtIjEAw5CsyF65ZRpK4jhmB4boTItlQR3EtYlTE2qmmzuPByCxtFiOZQYQ2hZBJ2gzaNyFEZtFnzYfbTQWGWERQ//jHP3au8H333edEIWEiOMC9QeXnw0IQgYhKP9zWmxDvDdw7hDuC/5vf/Kb9x3/8h/3kJz/pfveUw4xgZntMDmWhHPbzi1/8wjnw0boKiBMmPJIdBrFC+dk2jQTiF8cbkUs8PJ8jvOTXv/61eyDee8L5QcQjiJl8Sdw4n7333nvd8CPHhnCmcWACKq9zbn2Odholnv2EVCZxEd6DY49Lz/FynL/97W9dphnONY44McCEqpCvnPfuuusu1wiJzIXriMnFuG6EbPlRJiGSCQYPIjTWLjh1NvUhI7jUhzyoV4MI4ptwQdpaDCdGWIUQmUOfIhwRyDAZ7jKC12fyQEASJ33NNdf0WXniutG7p+JDCFK5IGAJx0CURiICqJj+7M/+zLncCFDiqJkUSqXFg32zj4985COuMqdsTISkA4ATzqSXaKDMiFgq77vvvtt++tOfuvLjWiPAEdS4z4hgRDgiF8d/6dKlvWbroAFgsiWhJ3QO+DzHgYtNDDju5K233uqGS4lnR0gjuIkHJz6ezg+im+3QySADDB2T97znPW5fpIwkdh0XnfPCZ/m9mGRLaJBPfchxsQ2R2XC/MLmXjiVCXKMjIpkglHHCYy3Cub79vCLqQdocJuRjsgTVjKCTTFghbQL3Zs9J/kKI9CUrVGn1aU3zFo01scdUYlRuuGmEiuAOI4ZxnInFRuj5CYBUIohZQjyoZP0EGdxlvofLToXItnEpqITZF44y3+XzxDYTW04oCiEdVFR8B2FOGXCPgcqWz+EgUB5WS6PyJXwjGtg/x0IZOFb2T7gL+/L7p/wcKx0JPoubTfk5dvZNGdgOr/NvtoFIJh4XgU0l6z8PbI+ysz/+puzsk/MDnG/OPZ0WxDodGY6Xc8s22Qfnim1yvPyb9/kO7/vvsB3e43M9Owung7LTgSDcJgiTO7k26CCRuYbfQ0QP1wWjKGTfwR3XeUwO3JOkEiXzEXVMpkH9SX1OvRJLkwBxT7uD+Ka+A0ZTCfXD0MFxDiK+/WMuFeVkXlMqwW9JOA3tTbShoEJkMqcV4R4+QuXGM402gq4/+KzfdDTCz4Og/epXv+qE+k033eQqVBxo0jnhxBO37fHlg8GKivBjpdy9lT38/UjOBZ/n0du5Cy97X9vjM+Df6+87/v1Iy9cXXoSz0FFQRDi51yXCBw7XBSFVOG6MoPgOo0gsmS7CMQowKTBMYuWEU+9hdiBmGbH0dYSfaI9QZA5NUMGIIcMVD9IEh8+5CjoS4UIMjIhEeDJALJBHm3AWXBOEAq8RkvHFL37RucYiviDCiZGnsQyKUKNTJhE+OOjMEALFKAyLXuEaisSSySKc+gShzOgdo3WxqltoH0jVinhlux6aOF4nrSznm9C9oIKYZQ0ORgcwm1IFiXAhBkZgRThQWSPACdcgzIIbnMo1PJ2hiB9cGpx3GregwO/uw3XEwOF3ZV4BTuTFF1/c64iPiB+ZLMJxq3kwukZ4YqxACBKqhwve83rGUGChM/bHnJygQl3LvCuEOCOQZBhLBSTChRgYgW55iScnHpsJh0wwZOjcxz6L+MN5xiWl4QrKQwI8NnAfMYGZrEUsehXgvrhIM+gAIpIxU2IF4pWRnb7mvVBvMPkRQyfIq8dSdub54NaTFYtzJYRIX1LC/kIMSngLEVtwrc477zwXmkKMrhDxhrhnHhgsPGIFTjchan3NXUHwE8KIWGfxniCD8UGKWzrGyh0uRHqjMWghMhiGjhlpevrpp134lxDxhDkdGCrRZq86HQhrOpE4yKeDOGtGU4OaMzwc4tpJwcticbj3QYdzy3ytVAmfESIoSIQLkeEQI4swIre8wlJEvODaIhaekItY5gYnDAX3uL9QNcLZEImkvfWLxwUVRgkIn2G0irAUJlMHGUYhEOKx7FwJkQlIhAuR4dDgs0gUDiHpCyXERTwgDIXRFgR4rEJR2CaTMRGr/UFHE4eZychkSwn6dc58KNxwYth1XwqRnkiECyHchDZSopGVIRWGv0XqQShKrCdk4oIjViN1YHHDyUbDAj5BnqDp4b7EvWe1ZTKQCCHSC4lwkTAYUg36sGom4+PDX3nlFRc2IESswMUl0wdudKxEONsj1aFfGTMSEOtM0KQeIhVg0KG848ePd8+bNm1S/SlEmiERLhIGcZgsKa0JgMFl6dKlzq3EEdfvJGIFLjgCEgEei4W2EPW44ISXRBtfTgYVwlfIkpIKopbwmSlTprhVpPft26ewFCHSCIlwkTBoRGg4g7T4j3g3iKTzzz/fdZa2bt2q30rEBEQ4xMoFZxE3nHAEarQwgXDcuHFugiax4UGHTsvo0aNd9hdy+rMMvxAiPZAIF0K8DeECDO+fccYZtnr1aquuru5+R4iBQUculvHgbI/OPKsnD2SCJ+Xgu4hxOpup0NHEvSdUjNEphLjCUoRIDyTChRDvApHCYiEs//3mm2+mxAQ2EVx8KApxzVxbg4U4cIQzoSgDBVFLZ5MJmmwvFSCEBgefWHbKLYRIfSTChRB/AA7j4sWL3VD4W2+9peWzxYBBhBPHHAsXHDFPSkLCUAYj6MkrTogHKQ5TISQFiH1HhJPhhWwp4fck51ex4kKkHhLhQoheobEnLIWhf+LDNQQuooVrBqFLZy4WIpxRGcQ3TjahU4OBkJThw4c7Z9nHrAcdOh+kLGSZfvL6E56Ck09a0VRx9IUQ7yARLoToFUQOk8HmzJnjFgs5ePBg9ztCREZ4KMpgRTOCk1zZCNHBbguICccNR7wyaTwV4LgpM7nO9+zZ45a1X79+vS1fvjwlUi4KId6NRLgQok8IS2FCGEtos3w2oQBCRALhEd5hJvxjMLAt3F9CMliePhYiHHceJ5wOQqpM0ARGFOiIcD4IFSNbCq8xSqC0okKkFhLhQojTQgOPG44gJ2OKFvIRkRAeijLYZerZDo41ISSxEOAeVttE0NbU1KREOAf3HrnCce65Lyk/4Sks6EOHR5OohUgtJMKFEKcF0UNjP3fuXBcOQHy4HDfRHwhn3OXBhqJ4Fxw3nUcsRTiuOuEdCNhUCOcgt/nmzZvdfThv3jzXgUCU08nhPGlpeyFSC4lwIUS/MBmOONRp06a5OFQEi7IxiL7woSg8DzYUhSwgOMB0BGMpwD0IWbZNSErQswAxIdUvY89IAx0IFi4iTIwOD054qoTVCCEkwoUQEUI8LkPfNPwbN250WVOE6A1GSnDCuWYGE4qCoMQFJ1NPLCZ39gbClg4m4ShBz79Nh4Yl7MnhT2pFykz5EeGIceLDeRZCpAYS4UKIiGH4fsaMGU5cbdiwQUtoi15BgOPUDtYFxwFnW2QyicVCP71BzDoL97B9Yq2D7iTTGZk0aZJNmDDBjh8/7s4PDj6hKISrKCRFiNRBIlwIETE4kaxUOH36dNfgs2iI4sNFOISgIAwBwThQEMMISgR4LHKMnw5CUpj0iRPOdR106AQjwslcxPmms4IrTkgN50yhYkKkBhLhQoiowDkkJIXQFHIVMzFMCI8PRUE4c60MFEZZEOKEosTLBff4CZo4ygjZVIAwH8JSmKdBx5hzRUw44Ts+NWQiYL+cN34vOjB0BvwIhjoDQpyenG+E6P5biLiCWKNhZgGYwTTOIvnw+yGOaHRZxAcXkX+LyECoMorAJDuc3nTCT6TkuHBsBwKhLIRasI1Y5QXvD/ZBqkLKjiAfbFrFROBXD+U8UW7uR845dWy87kcEPvNBqqur3QTtffv22sED++xw9QE74h4H7VD1Iff+kaNHnTNP2Ti/nNN4d6iESCUkwkXCkAhPL2jsEUgsmY1g4ncdqOjKNNJVhOOKegebjCMDFVw4ujipOLyJEsNcu7i4CHE6lZQ/FUDcIsQpLwIZJ5wYd0JsYtV54ffkvOzevdt27dxuNYd2W8PxvdZad8Csqdry249ZfsdxK+g6YXkdtZbTdty6mmusrf6INZ08aieOH7XDR2qs5nit+1051/yuiehcCRFkJMJFwpAITy9oQIn55bfEDadxpfHXb9s/6SrCuQYQ4dznA3Vi2QbZPhCWsc4LfjroMPC74OAiECsqKlJGJFJOzjedFjoSnDdE+GDvRcJJmKxKbvKDe7dbS+0eK+w4YiMKm2xsSYdVlmVbVXmejRmea6NKc21kSeg59KgI/T26jL+zrbSow4qym0M/7Alrrq9xLvrho7XW3NLq6g8EucS4yFQ0LiSEGDA08mPGjHk7ZRoPkbkgoAebFYWQCq4rtpHo0IXy8nLngiM8U231SYQsBsf8+fPdcQw2HhtHfcWKFbZhzZvWdmyTjck/YjNHd9i8CYU2uSLfyofl2pCCbMvp4ydCV+fnZlnpkByrHJFnMysLbM64HJtYUm9DWnfboZ2rbe3qFc5dD3p+diHihUS4EGJQ4GYxSZOGH3eX8BSReSC+CYdAOOOEDwS+T55rXN1khDYh/HHAKQNCPBVhNIp7caBhPPyOO3bssDeXL7PmI5tsfPFxm1eVa1PG5FtZcY5lD9C0RpQX5WefEuTj8mzayFYrat1ju7assg3r17nRD03kFJmGRLgQYtAQUsEiIjiYLGvPkLjILHxWFDplg4kFRzwmMgylJ35SI53JVHVouQ8H8htwvKtWrbIdm1faqNxqm1OVbZNH5zvHO5bk5WS5kJUZY/NsUmmDNdVstXWrV7iwNjoBQmQKEuFCiEGDYBo+fLhbRIRwApw0BJnIHBDhCCgm6w4EMmjghCOAEzUZszeY4Mi1TFYPJhxnCnSAli9fbicPbbbp5c02szLfSoriO7+jIC/LxpXn2szRXTak46BtXr/C9uzZrbpDZAwS4UKImID7VllZ6R6KD88sfCgK18BAwkgIQ/Dp9ZLpggPHgBtOp4KMIJkQIkGH4803l1tW/W6bUxkSxiPyLDcnMb9Bdui3Jsxl+pgcqyiotR2bV7v1ByTERSYgES6EiBnEAuOGk5kBN1zx4ZmBD0UZqIDGBWcbuOiI4GRDXHiqTtCMFo7vzTfftILWAzZ7XLaVD8tx8duJhpCXyRV5Nm5og+3cstrlH+eaECKdkQgXQsQU4sOnTp3qxNi2bdsUH57m4BQjlryIjha/0iMdOOLJk+mCeygHQpx0iyxln64werFy5UoraDtgsypzXPhJMk8/4SkTRyHEG23bpjUuXSTXhxDpikS4ECKmIKLI0IAjzjD3zp075WilMYgkJvT5BViihUwkbAMXPZmx4D0hJIWOASEp6ZhCj3O+Zs0aaz+5z2aMSb4A95DWcFJFno0sqLPNG1a7uHxlTRHpikS4ECLmEFIwbtw4Fx/OIk0sby3SEzpYhKIMZHl5YsmJBfcueJAgHIUJmohAcmanG3SOaw7usJljzcqKswMhwD0I8elj8iy/vca2b93sOmpCpCMS4UKIuICwIm0hYoawlHQe1s9UcCgR4AhxnOxoIdwDghILHg7lISQFFzzdsqQwQrV50wabNKLNRg4j93eAFHg3RQXZNqsy12oO7bCDoU68RtNEOiIRLoSIG6Sbmz59uhv6ZiEfL7pEeoCTjUilwxVtKAmiyi9xHzQX3MNqsCwFz0hOurjhdJzWrVtnZXknbezwnIRlQRkIZE2ZMsps2+a1aT9BVmQmEuFCiLjh48OZqElsLUtUy9FKH3xqQibjRku4C57o5ekjhQ4CbjiTi1nRMR04dOiQnag5aJPKs2xIfrAlAAY9EzXzOk7Y3j273LUmRDqR840Q3X8LEVeIDaZRY8JT0IaeRfxAiLMACmno9u7d6wQb7mImQ0eEkYHx48cPSMAGARxVYnX5XYmdjiYenBAWQiIIYWG0JNpY8kRCXcVKjnQUWA4+lesuRqRWrFhhI/OPW9WIYLvgnpzsLCvMM9u4q8ZGjx0/oLkHvcG5wBR4+OGH3QRV/2DFX65p6izaq8Hw7LPP2uuvv+7avKFDh0ZdbuZLvPrqq65cfdWbpNF8/vnn3egGn+GefOWVV1yKWI6Be41yvPHGG84QSVTdy/llBOnJJ590q7By34waNar73eTCeX3uueds48aNLp0uv02ykBMuhIg7hCoQlkKjsGXLFueKi9TGu+AI6WidbJxlBEmQXXAPjTQP5jTQcUhlcMFbG2psbFmW5eemTvPPEvcl+S22b2/sVtNEJLKg2IMPPviux+9+9zv793//d/vVr37lztdgQAyzTdZLYH/RwmgRIv7pp592HcHeIEzqrbfecp/jGuXx8ssvu30fO3bM3Wu8/+KLL769+NR///d/2x//8R+7ujhemWfoHNx777121113ufL0Vf5kwDmh48J5TfZaFhLhQoiEgOCaPXu2E264NMp4kNogwnEMo3Xy+f35HuJ9sE5jIqCTMHbsWCeIUj0kZdeuXTZySIsNKwxWNpT+yM7Osimj82zPrm0xTRfJNczvShanz3/+8/alL33JrrrqKnddImrJod4TRGtP4UrHgG31hLKy/d7e642eQp39sA3qyr62wbX5/ve/3z7+8Y+7ifBsg/uL7/E37vdtt91mX/jCF1zaWEB4siopnxssvow9wW1mpIFRgA9+8IN2/vnnd78zeBhJ5NFfB6K3jg/f8efodOc1USgcRSQMhaNkNt75xBUnFIO80jiMQXdC40Gqh6PQkNGA0fhGG4qCc8f3GRUJUl7w00HIDAvHICwQNUGdSHo6OO/bt2ywySPa3ITHVBLhUFyQY7sO1lvhsHIrLR18vYEQIzwOxxjxevPNN7vRugkTJrhJoISAIFr5rX/729/ahg0b3OOXv/ylq8f43OrVq+3nP/+5/eIXv3CON/8ePXq0uycoH2EgXDfTpk2z++67z7nrhIVUVVW50CbAnf7JT37itnH33XfbsmXL3P1BmXBsWc2U7DzUEw899JDdeeedtnnzZrcPwjtw63F0N23a5CYSc1yUnf0vXLjQtbVPPPGEC0Pi/aeeesrtAxHKSADbxbG+//77XVgGn+E7v//9792x0YmYMWPGu+5xykeHlPdvv/12d2yEzdDBptxs9ze/+Y1z2qkn2Ab3O2lrPbjzP/vZz5whwzmjY8B5JnwFjcCx3XHHHW47hNAwN4OOw09/+lP3PcpLR4nzyGc53kceecSVh9+MY+Kcvuc973H3Ldv58Y9/bM8884z7fTlvdJ7OPvtsd8zJQk64ECJhUJFPnDjRNULEXmpZ+9QE94hGPNp4br7jQ1hSwQX3UFaEAo15qoakEA4wLL8lJGazUk6AQ05IrVSV59rB/XtiFpLi4RpGeNIp9C6p/zcCkhEEhCwiGGHJ+7jkiGpEMmYCInPt2rX2r//6ry4HO0LVw+dI0+rFPd4noSLcR//5n//pQiMQjtSNdM4R2ohUD/Xko48+6vaN+CW0hM+wHy+m6VAg2nvC/UZsNsfAsSBW/T3rj5uyI3ARtWwPXnjhBdfpoLPRE4Q15UbQYyhQn1MGQnnuueeet7fLM/vjPPIcDvcU54NzRkeF769fv96dT8rL+aFjQbno9PCZ73//+/bSSy+58nI/cq7+6Z/+yZWT343zRAeFzgHlp/OCUYC457cjRIZ7mL85d0FAIlwIkVCojOfOnescGCrPdMvBnAkgHmjcEOGRgihBJPD706imGrhlHAPOZaxFYLyh3Ijw0sI2Kwx4RpTTUTUyzw4d3OeEZSxBkOGSfvvb37Z//Md/dJP2cFcJ9eDc8WCfl156qf3Hf/yHC63A+cXFvfHGG+3rX/+6++4FF1zgOmmI5PCUiueee66LM8fx9isJP/744+4+YkRw6dKl9q1vfcv+4i/+ws466yx3nxDK4UGgX3TRRfajH/3I/vZv/9ZmzpzpBCgdAcqGAOXB373h32c7hK7gVsOHP/xh5wRTPu5JnHzua8QqI9eM+syaNett0Q5shwmNOOucHzodf/d3f2df+cpXnMDFZecef9/73ufeJ9SHc3TGGWd0b+EUiGjuKYQzgptnzjHiHZcak4bzRFlZa4JRBToaF198sX3ta19zvxOjFxwzrjjf9eeCTgKf+cEPfvD2uaau+pu/+Rv3O3z5y1/u81wlGolwIUTCoTFYtGiRc2ZoyLz7IoIPjRy/Fw0tv2Ok8B3EK409wiPVYNgbxxOBEi6wUgHEUWtTvZUWMSEzBW3wbkqH5FhRTnuoI3Q0prG8TGbEOUU8I8gJ9bj++uudQPUgBhGrPCPyEI4IRgQx4RNc14R/ENKBgA6v08477zz3OmEVCG5ELc40bjCCkBSuTJZEzOP0IhDDjw8RumDBAmdcIGoxMfhNo10Ajf3iSntR7R1qhDadDo4JoYu4516ls9HzXqVcuPocO+XgvuDYccPpYFAuXG3vhPt9sp9wOGccC/cSLjfCm5EAQvToMOKC8x4hQhw/55Tzjpjn9+HccS6pgxDs4eeLDgu/HZ0ItsWxEM5Cm8PvwPFS3iAgES6ESApUpPPmzXONEa5LLBtVET+8CB+IC07DnIouuAeBgLOWagv3MNpUlNdmhXmpK8A9o0py7djRgWUb6QvEJGENhDsQR4wrftNNN71rvgYhVDwQldRV7J/rOVxc8jfvI/rCnVa244Vv+DYRlbizv/rVr5wTvGTJEjvnnHO6330H9sO+AUHr/44VbB8HnnuTdIKEhBBmgrPfUzyDHwniex6Oj39z3Hy3P9guIhxxTAgJnR/uL0Q39xevYdIQT0/4iZ+IGd6J8Pv35fEg2v1nOMeAaA//XlDqIYlwIUTSmDx5snM/iAVU2sLUgMYw2lAUGlO+R8NHI5qqIBoQBLiFqeSGI8KH5LZH7YJ3hkTPzv3H7LGXN9ujL22y7XtrQuKz72H81rZ227nvmD39+jZ74tUt7vMdHZ3WERKsew+dsFdX7+71sevA8dB3I+uEjyzJsWM1sRXhXMvEPlMX4dD2N1KDgcB1gMDD9aWDiTAnRIRrnQmIiD4P9Rv3DJ8hBA8xieDEUcbhZeIjYR233nprr6NLuMtsm+8TE871h5inHIOB7fnOAiKc84AAJyyFa5362QtXD+KZ88R3caA5Lu5tXy7u8UgnOrIPQlYIb8GIIUQFEc7xEv+Ok+0TOfA5zg2v+/ONW44A57frrbNA2X0YGW47o1iUlfuBWPMgIBEuhEgqDLMyRMgEnVRzGDMN74IjMMJFxumgsUSY0JBGI9yDCOIMMYAbjlBIFShv0QBE+PPLd9hf/Osjdvt9y+1nD7xpX/veE/b4K5tDoqb7A2E0NLXak69uta/+5+P2g7tetx/fs8y+8YOn7a4n1lp9Q6u9smqXfecXL77r8e2fvWD//NPn7Zll26y+MbLUgyOG5tiJ2uPuukoWXPtnnnmmC2kgD/YPf/hD++53v+uylCD4LrzwwnctikOmDuK5/+Vf/sVee+01JyavvPLKt8M0EPJ8l4mNxFRD+PHx+z322GP2b//2by6unLzbCE/qzoHA/rkfmWyKAEbIIqw5HoQ0IpdQFO80h8NrhHUQeoJ7/c1vftNlLGGiJsc+Z86ct1Mh9gf3Eg/25zsV/Jt90MHBBScEDAgxQVCTtYVzwDlnBIFY8BtuuKHX+ggRjtPOb0Xb8vd///fue9/73vfeFS6UTCTChRBJhcqTOD+cRcWHB5uBhKLQmPI9Gtne3KpUA5GAm0b8bM9h8CCCMOI3yMvutGjW52lpbbfb730jJBSz7EsfPNe+/KHzDO1979PrrLbuD3P843Tf+8w6Ky8tsk+89wz76A1nWFFhnr22Zret2XrQ5kytsNuuWvD24/qLZtn4sWVWXJRvo8uH2ZDCyDp1QwuzQ8KradDnHoGGCMbRxr3t6fh6+AzXLtd8+PVLnDchK7i1COfly5c7M+GLX/yiixP3nU62f+211zrXFocZockkRgQlDjiTPbk/CIPB7b7uuutcnYhzS5koG4Ib4YsLTJgGMeQIT77v90MZKav/Nw/+psz8Tdn4N9sk5AUnnthvhDTnktdxwwl14XPEv/c1asW+OAb2T5lJ+8c1xrEw2ZNtsQ0+x4O/e4NycWzcUwh3ziV/44hz3jiPXoQj7j/ykY+4z+PWE8NP+T75yU+6srIPOhd8L3w0geP5zGc+4+LACfkhRSTb4Fj9OUkmWaEbtO+xJSFiCOmPuCG5sSJ10UTmgABnxj2CHFcm2ZVjPEHIkg+XxoMJUakC5UYcMNzeVwMdjh/6pVFmAhfP6QAT+HDgcNi8SEgk4c12f+cUcfTiC8/arBG1VlUe+YTYN9fvs7//0TO2YMYY+9aXr7amljb791+9ZOu2V9vnbj3bLjlzavcncW07bcXGA/b9O1+1cxZMsC/cdo4dPtZgdz+5xt5Yt89uuXye3XjZnO5Ph66L0Oefem2r3f/sejtrbpXdHHp/ZFnkHbuH3jhpZ190jVVWjkv6NUU4BuIOscs1Hi4Aw0Fo8zmEZni4C78lYRIcB67t6WBfuMYIzcFObkZ4cz9TXrbF9YwoxyXGESeNIiL5dHBMdEZx6qnHKFe8oU7xYSWcL8ofyTXA5wl5RHsMNownlsgJF0IEArIOIL4JS6Filz8QLGhwEXQ4S5EIcODzDKvT+U4XAQ5cpwxv84jHdco2/YPz7h+cS8QS55VwGMJ8+gvLQLjlZne6PNvRUH3sVLjN2JGnwiqyEYnlw6yjs8uOHm90r3lY0XLm5JH2d1+4wm69cr5zzOubWu1EfYvl55FF553rhdO1dfdRe2XVbisbVmhLQ6I9GgEORQXZIQHZFJdzHy2IQEQr8c19CXBApOPw9hTP3Be83p8AB7bfU8QPFLaBaEaUUgYWumFBG4T5ZZddFtE+OCZitqm7EyHAgbqHc42bTV0Uab3C9zjPQRLgIBEuhAgMpPjCfUGIE54ShEZWnMKLcAR1JHinjUY+1tkckg1D5pwHJpMhhGMB1zpuHSLbC222jfOJ00jHFAeQVG6MRnB/IED6GzFim9khWYyIjoa6hlMx2l5A83UEdVdIhDc0vTsUhHKUFBfalKoRNqKkyA4eqbMX39xha7cetMnjRtisSSO7PxnqmDW32rK1e23X/mO2dP4Emz7hnfciJS83yzra35lUKAYPoTJcc4xEMkIXC6Ev+kciXAgRGBBsfhIN4SmIEZF8EDuIah6RpPbi8zToCPd0c8GB6xQhjjBGJMcCxDIZJtgenRccbs4f55K/eY0H5xI3D+e0v3ABYBvZodMf7U+Ql3dK3CN2AbmLC87+8/oILm9r67Atu4/arx9e4bKjzJg40q69YKZNGveO+7g59P667YecYJ87bbQVhrnkkYKrz/kSseNP/uRPXIaWv/7rv3Yp/kRikAgXQgQKBAaOOOm7yBrQ33C7iD8IQVxZRF8ksfp0nrwLfroh+lSGIXGOEyEeC0HIefWjBnRcGD6n04Pjzbnn3wz5E3eMSIo0JOiUWxy9Y1xeekrg19admijNZggvIfSkrKTI/bu9vdM9XCctJNbXb6+2Xzz0lm0IPZ+3aKJ96qaz7IzZ40LfPtUDaAt9lrSFTOKcOr7cxo0emNhja6eOS8QKwkoIdUnnuThBRCJcCBE4iDFktvyaNWvcxD7f4HpxJxJLNKEofJbfiN8s0tCVVISJaAhin9JtsPhrHNGNsPfL4yO86ZjSAeJvnqMZWUBUdRGQEqVmnTKO2OMc27HvmB08ctKqa+ptR0hA54dem1Q53GVPWb3loK3eetBOhIT6oaP19tDzG1ye8LnTxtjlZ08LCXayptS696GmtsEJ8PzcHBs7qsSGFg1sgn5756lFW+IFv0W4yPf/5tr2I0L8HQmYCD6XdiygHOGjJDz7v9MJjofzTJ0f6blORSTChRCBxOcPZwU3JqEhTkjzxWIXInHQGCIiaAgjCUXxHSUccJzddIaOIiEkhE8NRChwbhFndHB87nH+RmQj8nEmmfzG5zj3AxlVQKyyvg6PaBg/ptQWz6q0mhON9sN7lrkQkwMhMU6IyfQJ5S5N4Y9Cr//o7mW2LSS89x8+Yas2H3QhK5t2Hrb/uuNV+6fbn7fv/uole2nlTrfNYyeb7GhIiJeXDbHhJQNfsRA9y3HFI8yJ65elzom75zelQ3TgwAF3TfM7EzuNOUB9FAmM5pEbvOfS6gPFl4FwPa4ZRgypF/k7naBjy3GS+jHSc52KSIQLIQIJAo5lnGlcaGRIn8UqZ+TKpaEUiQEBSIMYiQOLaMkEF9zjJ2gi0uioRArniWuY88pID0KP79PpxF33nR0vyDn3A50ox/faO7OdOI4G9vvZW862s+ePt6bmNjtZ32znLpxon3jvEsvLzXGO+OzJo2zW5Aor6o7rnjt1tM2ZUmFVFaU2anixe5SXFb+dAxwHfPzoUps/fYx7b6A0tXXGLcyJybZPPfWUE82Iv1deecUJQX4LfueHHnrIHn74YTdJNhLWrVvnFpVhgZ1YiHDycrNoD4sEIcRZ4OdnP/uZE+PpBPcF55nji/RcpyI53yAZpBAJgMoNYeWXoRWiPxACOI2IcITd5Zdf7pZ5RpQELdVUNOB+0piyYEbQxSrCgQaR891fCABC0gt2HukO5wP3mowlLL5yumPm+vWhCcR4e9cbkUyMNw+fco3X+TzvIchxwwcKde3OXbusNK/RSoewWEv3GxFAuMh5IeG9ZE6Vnb9ool1+9lQrHXoq0w0L8SDKz104wSpGDLWqkLi+LPR+z8dFSya7DCkwonSInTm3ysWJlw0bmBPOUvprd7farLkL3bnpr2MYLXT2qW9YzIXrnhUlGZUgLSUQIsFvzWqO/D5c79zP3pmnE8pvS0eL13if35LPswy8H9nA0Wb7/Nb8RuH3FtcJ71P3sT/e920m1w+dATpsZDLxozCzZ8/uNc0h26I87IuygC8r2+Y9yk+Z+Iyff+DLQ2fR74PPECbFMXLs4e24LzMPvhNeZr7HaxwPpkr4+7zHOaAc/tr31z/P6AUW6iEUi06RP1/+/LBfdEX4dcBx0rGlnLzHZzlvdNxifb0MFolwkTAkwkU0UOHiRlGZ4g5SobJIDA0vrg+rxgWtQo2UVBHhviHk3BMacbrzTWNI48czC9gMRjimEogRrkeWKUdI9zxuxAtih3PI+eHB7+87kogpL4rAP1NXRpMHuS8oz/79Byy/q87KhmRZDqlSooD9DwkJbtzswZYlFjS0dNqOI2Zz5i105yjWUOeQM9u3VTjhLLKDgOb38Au+UBcRtsL7iDy/UA/hcrjeCE3EO+9Rh7Et8olzTyHsn3/+ebeAnQ8l4dqhLkAs4p7zPqs7sqIlwpjry3c6uKa4dubNm+euLa4lFsHrWZewLUYOKSMhMWwXV5njQNTyN/tB1PN46aWXXHpYBDH3O59j9PHxxx93ZcQAefbZZ98ejeSYORdc23zPl3lXqNPHa5TZnzNGE9g+C7Lh4FM23uf7vMa5oM5fv3690wqUz4fYMEeIY2dpf8IT2TfHxEqlzMngHuJ8cG7oED/33HPufX5L4G/KREclaPWSRLhIGNzYVBLceBLhoj+oTIkJpOEiPvzo0aOuocBRojHBmaKCT0VSSYTjjtEA9uds06giMGkQU/V3GQicF8QMQguH1IdJ8BtzThBQ/kG9R/1HJ4Vz1JsgQEiEO5GxABHU3nQ8JMK7LD83+UJ6MFTXdlhdR4lNnjo9pufIg8CjY4X7yu/JPrhPEYLEiT/wwANOjCJ6EXYPPvig+50ReAhHhCYhK/y+bOOtt96ye+65x10XONeIWlalRHiyH2LGWYId5s+f70T5j3/8Y7c8PftGhCNQuQdZJp77EXHKtujw4gZTPh49O0mI3TvvvNMt845wpw5FjNOxph6ljuV96lMEK9tFYPv9cYx0Km6//XYndvkM7ThCmfIjwlk0h8/85Cc/cZ1RrnHqNkQ39wYhW5yTO+64w90jvhNCXD2dFOr3J554woWe8H3KzL65T3idzy1evNh1CigHHRw6Pxw3zwhx7j9ym7PtX//61+5885tQVkQ7x4Owv/766+NyzQyGzLAqRCDgpqeioOIRoj+ovGfNmuUaHRoAGjScEho+Gkfvcoj4QSOPo9VfR4HP0bAjAvoT6+kILinXKa4n54vGH0Hj/43bR6gAbigCo6dY6kl/70cLLmFTe661tqV+Bo2jJ9ttRHn8RlMR05/97GftvPPOcx39m266ya699lonGGMBrjIinvUQvvCFL9hHP/pRJ2Sp17hecHERlYTDfPzjH7errrrKXUOIZ17Hgb/kkkvctYQwPfvss2369Om9XjNcg3T4Lr30UvvQhz7knnHcEfjeZQbq1Ysuusj+6I/+yAlVtvX73//edRw9lO3GG2+0z3zmM247/Puxxx5zYpgy09GjLJSZsEHuAQQy4pcOKa4937/tttucuKdDw3vUHYBopqNywQUX2Pnnn+/K2Rtsiw7Rpz71KfvgBz/o6huEOt+nncCpxwjgeCkrbQjfCSoS4SJh0AOVAy4iBeGCM0TnDQccx4hsFLglVNY0WrhWqQgOKEsoe9c0iPhQFO5bfou+4HM0gDxo/II23JsIENj+mkSMIGoQF5wP3kNQJNN8cCK8I8+aQyI8lWV46FKzo3UdVj6yImWvM1xn7pkrr7zShdTh4H7iE5+w973vfa4+w4kG7j1cdOo9rh1EM+I9GhCriH2uQ8JFcKB9eJkXv4DhgbBHKL/3ve91LjSuNR1LygrUvZQZM+Q973mPqxe41gnVoU4GRsIoMw41dQYCnW0wkukNFcJVcOB9mFZ4OZYuXerOA+tEnK7jj1Dn3NFRYT9sh/qHzgV/c9x0FNgnxxPrTm0skQgXQgQWGlpcRoYjaTxwV3A+cFD4G3GeitCo0sEIcigKcI5pwE/XiHkXnEYZlzdTQJzQ4CM8EDUIXe/s8TdOZVA6JYRJ5OYPtfpms/aO1JXh9c2ha60914aPKA/EefX3BdeCF6tcEwjMvuBeAX+vsA0WfuLBPYSYZFvcewhwri9EKeEn/I7RgGjHeX/mmWdcGAwhMr11qLlOvUFGZ5JyUC6OxUNHktd4sB3/eS+AOWY6n5SZY6TM1Nv8ToTDEG6CQOezfY0G4dpHMpLm7yvq0fDt+PL6cDjeC7LRARLhQojAQ+whrgeVLw0ElT0VLq6Rb/xSCRoHGpsgjwxxfnHmTtdR4NzTqPK5oAjOeIPYQHT7cBPEEsIb982fj57iINlwnY2qqLDa5hxrbk1dEX7gWLuVlZ9arj8I5xdBy7nF4SV0A+eXjtjpRugYAaPs1F2ESRBictddd7nwD64tP6qCK/zpT3/abr311redZBzrSOFaJB6aeO1Fixa5UBPcYVzunlAGDA2ua9xkrmmErJ/sCBwXDjfXN9vkGPkdqJspM8KaMBLKfMstt7xdZspBWArnClf6wx/+sHu9N9hXpL9rb58jVIc6iBEpwhVx6dl3kNsIiXDRJ1QQ9GrpQQfpEeQbSsQPKnkaE+IfiQnnOqDhQAiJ2IMDR8N5ujAKxCfig8949ykd4VqjPuScILQQ4AgWBBiiBiHCfBcEls/8EDQQcHVtBVbfTKq57hdTCPKc76tps8pxE1xHPAjwe/P70y49+uijb+fuPl0MMqEU3C/kIr/vvvtcHmycaoQ8Tjfim+uNyYy8jpONQCeMJVKBCmzDi1q2jQvNNgkz4b4Nb0e5ptkHExqZQMk9TXx3uPOOoOU9PkO5OQZCXXxcOtt88cUXXZmJFWd7iHVEMWXgnmCSKfHj/ljodJxu1CBaaBuI6SfenAmanFtixKM5b4lG2VFEn3AjMsOZhgfnEbGT7Ae9dG6yIN9UIn5QoSN4GBql8qbxQAjhgIjYQQNNJgXOc1/DuXyGYWceDCMHRRjFEq4xHD/qQOpD73ByThBfOIHhrjfPxMfSSWQEIUj1FGU+WH3UOltPpSrMzUmtOvToyQ7bd7LAZs1ZmDQnHHFHxibqIUItmFCJ+OQewCXmeiF2mlEhMpkwn8W3XQhE72YzykQ8NTHatK1siwmgOMo82Cb7or3ju4yyXHjhhS40L9Lj9p+jbMRgI6KZXIqZQflwqrmeCRVBbPNgf4hlYsNvvvlmF1JFB4MUfxwX1xCx5dS5jEzecMMNToTzOcrMfnD46aRy7L7MnBfcdh7UGzjs3D+cPx50EujUEnJDZxb4N+eUsvI6dRFZVzAGcNz5Ptsimwx/X3zxxW67HCOvc179sSD6uR+ZGErZg0RWqLCyFUWvcPPTW6fioNJLNtzI9LKZ8Ry0G0kkHipZnBYaq2uuuabXWEcxMGi8GGWgQexLXCMkcNUQoTTE6QROJueAh3c1OU5ECI++6h8+jwtIp5CY2KBdk8QIb13/hi2obLcRw3IsVWQ4i30u29JoRaNm27wFi9xvkAxIy4fDyqjPJz/5SZflg3qIEWOEpxe5iEpEI4Iao4A6io4qAhwBz3cQvDwjDhGidNwASUaHj84cbTD7Il6cayrajgf3KCKa/VMuhDTlIdyEbRK28cMf/tCVmzARXmcflAeXn7Libn/729922WI+9rGPuWuIMrEtxDdQZjqqlJnzwL4orw+fYZ+MECD6ec2fI+4PzhHfodPPdzBZABHOeeUYKA/fYRvshw4N/2a/iHA+g07hO6RPROzzHXQL5xivmUw3//3f/52UztvpkAgXfUIFgOg955xzXG802dDTvvvuuyXCxdtQ6dLIUHkHfZJjKoFLR8PmhUFP6BD7ETIacARqqkNTiEjgmuKZfyNCEAqIjnDH+3QwekiqtKuvvjpw1ySdhFdffdlG5lTbtNE5KZMz/MiJdluxJ8vOWHqpE238LokGYcfkQtpERmNJLYgQTWVYHfR//ud/3D38la98xT33JFyEf+1rX+t+NZgg9lnS36dLRKjjgvMgowtx8UFDMeFCiJQFcYQrIhc8diA+ccROl4mBDjEi3IdjpDJ0KHAecfVpxBGquP8YD7iXDHVzfUXqoDEM78MTOE9BAgd56tTpdvBkrp1sJC64+40A09HRZVsPttrocZPd75EMAQ7cEzxwVBF43rFNZegkkuoP17iv+5jrn04Hi+oEHeosQlVw2wmbYVImZgICnPSKQUROuOgTOeFCZB4+FhOx0ZvgQbR6QYIrmYqx4DR7hJkglhHdHBN1CmIboYogGYzYY3ltGv/LLrssaaETfUG5li173fKb99jcqhwrzAu2F7f7cKttO1Zki8660Dm1yQon4HonRIt2iJE3BF/QQhuihWMi5IPrva+F9OiYMrKDGKdOCDpc35SXcvNb0dEg9IYOXBCREy6EEOJtCDGh092XCEW80njzmVQT4IhvOhnEo+J887d3vYnhRVghmgfrtjKRju1jZATN50JozZo12463DrVDxztc1pGgglu/40iXjZ88y4moZIperhEmW+IKI0hTXYADx0RcO9drX0445501DVJBgAPHwfEwmZPJoywuFFQBDhLhQgghHN7l7isUxYduIEBSKQbfdxyY/IVDxnEQL4qYQnxzLDTesRJWOG+IeeYrBC0kBQilmDhlpm07kmXHG4IZltLa3mWbDrTYkBHjrWr8BIWcibREIlwIIYSD8AyEaF8hFAz1Egv+/7d3JuBVVef+/kISEkhCEjJACEMgDGGeEVBEoSqi1rEOrVp7a29tb/v0trfTv60dbm+rt7ZPe3tv+zjUqq3V1rFaxRkQERBlRmbCPE8hhMzD/7yLLHqMCSQhwzknv5dnc87Z49o7a+31W9/61rcQr6HuEoYFGlcTrN6EZyPdpJkGhrd6M6agNXyMOS/d+2eLGd1e8DcmdFxqjwG2fk+1nSyrDqnp7KsDf7st+8qsJCrNBgwcElYNvpbA99jQ4G3p/EMZphEKNBA5f6j11jQH7otnxj2x8N2HFA1lJMKFEEI4cEVpyNeVitsLWazIoYpPJ8KbKAmIDEQcwrs1rN4NQTc/jRr8U73oCSVoaA0dNtysa5Z9uKvCyspDI40Iwm0Hyu1AcVfrP2i4padntEpDKZSh1+aFF16whx56yMXdbimIEsJkOZQL3KWYUCdU82dTYVIjIqMQx50eqF/+8pdusp5QRyJcCCGEsx5heWvIFQWrEuIWIRuKoghLGK4mxEQm7jC+3l54e6t3W1rvuS5uKUyfHaoih+cyavRYK4nOsFU7yq2son3T6QT4wXLbWdDZ+uaOsOzs3mE58PdcIS+TbwghiFhuCSjbTGPP8ySq0ZIlS1y+5HskNHJodBMRBZcz7pXGC7HYQx3NmCkahK5cppklNFEo+OPxgmZyFgZcdDTLiBCtDQKbyp9Z5+paiamssc6xHnHZ2lbkxuK77RHfDIIErPQMOOPTC+/2SC/XZGEyEQa1hWrvAelKTkm1XfsL7OCRQktLirbYdogfzgDRrftPCfA+AQHeL2dAu0eWIV9hVaUBSi8RM1zu3r3bpYvn5vMVZYeJavhb0wCs29vCdgQh2/3EOX4CPK7BTJCUPRYmm0Eor1692glwZnwERCXpIG+T7zkPE+fQ0+MbzrhesQ4RShqDGzBYv4naw/3QS0P4PkQ54QmJOkM5IS3UsVjMEbOk098njXS2sQ9pZx+ujWsaPT48G9KIGPZCn+Mol36iHtLFccysiabwzwA4L8czgRDPjnv3z5qFc5Em0oAu4Xzct29Ycw9su+CCC1z8drZzDcJJhjIS4aJBzkWEU9iWLVtmL7/8si1evPh0iCMKjX8xNRWJcCFaDyppxAOVbn1QsbKtLa3JDYEgoFGA6OBdQ6XNu8Wnn9+h8I4gPQgL0sLER81997U2iKGU1DQ7dKzUtu05Yt0TO1l857Z7fqUVNbZhT5kdKEm0nEGjLKf/ANeAam9wbSAsLsKR+uztt9921mms1ITnZMZIwnmyz5w5c9wU8GxHkNLwos5DLP/xj390ApgZNxG+7Ecsa86B6GY7kwHhKsJ2Ys1zDcIHkr/nz5/vJoFCmCN4Ec6k6U9/+pMT+MT6po5euHChPfnkk66MEiEkuN6mccC1+BwzZowLt4jgJXoIIRf5/thjj7k0cA/cO4tPJ9e95557XGMCXUD4YmbKJY//4Q9/+Mj9sQ/lkPNinX744YfdM+F83Avn594YIMzCtZ977jn3DHnONGiWLl3q7gdBTdnhvNybP579EPx+ngi2k2eYVIh3A9diJuVQn81XIlw0SHNFOK3jRYsW2YsvvuhavFSUtPQp/BRoXkzNQSJchCtYZXxYPBYELxYiKlDKGZUmS3uJNMos6aJCrE9kky6fxvaC8s+zwmLGs/Rd6YhvPtvT6t0QpAcRhaAaPnx4SL+3EE3d09KtpKKTrd2yz6Jqqi01MSbwPGt3aCUOF1bamp1lziVm0NDR1ieEIqEgJt955x0npBnIilWa7whKXI2oGxGOCFK2T5s2zVnMEbv8rRGIr7/+us2dO9dtRxTSgESEY/VGMCI4MVZxXsoh4plQiFjNsWqT70eNGuUs4Kzj3cGU8jwjrNnkLx9ikNktSdvYsWNdKMXg/IY1GbE+fvx4l3aEPCH8OJb9HnnkESf0uceLL77YrSOdpIH7It2Ibe9Pzr37xsJrr73mfnN/gKsL5RArNHU/z4h3INfimXCvPFv0AM/ljTfecM+JskzaEfxsZz/mKSFvIsAR9Fi60QBsRw9wPOfhWJ4bPXUYDEgPg6NDucyBlIxocWid8hLiJUOh/NKXvuQKCq3kSBkEIsSZoMIhr1OpvfLKK4FK9iVbsnSRfbhxpW3evs6279lkW3esD/xeZUuXLbZXX3vV7UflhVWIirUtwXJEJU1FHmp4Vxga9HRHI0qwbrFQ8SK+g7vdQw3EEC4zdMmHOjzP4SNG2qgJ0y2/oKst+LDIieTWoLis2j7cVWord9ZY18w8GzlmkvMBD8U8iFWbiZeuvPJKJ4jJb95dgp4OBCqxtHHzQOQikOkBppE9evRou+uuu+yaa65xFl22kYdxCwkGocnU8Z/5zGechR1oXCLUb7rpJrvuuuucaKYceAGL6ESoIpSxpGNdRnyS3roNZq7LNizLlBmEPKIcoxjGNsQ0jfAbbrjBiXCm5ecarEfYexDXpPHzn/+8exbkb+p40sc5eY/w/uP58AncL4L4iiuucAvPhGdDg5pniFAnvZdeeqm7/qc+9SnXSOA4IA08L55fXl6eu28atZyfdyZag2dG+oH743rtaTRoLBLhosVBhPNioEDS6mWhQPGiouuOVq4QkQYVBiIR4T1nzsu2Zv0KK6kpsJ65iTZkYi8bPD7Lckf1tAEjelj/4YEl8MnvwWOzbMiELMsalGQVMSds/eY19uZbb7hKnAqXctPaIHKxtIWSFdlX5AgLetGoWKlo8VlHnCAqQt3KBTxXuuURa15UhDI8Z97XUy6YYam9R9riLVW2aGOxHQqI8ZZIPuEQN+4ps3c3ltmRykwbMmpKQPiPbrAXJhQgbbhk0EhhQYRTLrEKIyap055//nn79a9/7dwq6OWiDqTnBncNhOIDDzxgv/3tb52BCoLLNeWOPIK4xLfZN0T4W2A9Js9TnyKguRbilfSwP5Z3GvwIcVxMMHjx92sK1MukFQs5ZYwGAZ+kiUYw5/dw75MnT3aCmLxNGnlXPfjgg3b//fc7NxHuh7webHDDQk0jgIlzeIZ+O8+Ke+AeuT6f3EPwBDs0MEgf74JHH33UPWeeKe8IP4tpuCIRLlocrHgs3j+TipLvvFio7ClMQkQSVMZ0W7/z7gIrqjhiuWN62JCx2dZvSIZlZqdYanqg8k7uaglJXaxrYrx1SYhznwlJ8ZYYWJ+SlmiZvVKs76BAxTq2lw0YlWnlnQrt/WVLXBczYry1epCoyLAkIWzbGypmRA33y0L3PJUywoRKnAofERBKjYWzQVrptkeU0ZgIBxDDPPfhI0bZBRdfbvHpQ+y9fLM3V52wjXvL7Hhx0yb4KauosT1HKmzp5mJ7e12Z7StLs4EjptiE8863Pn1PDVoN5b8pz8M3EEinTysNQdYjWK+99lq788477ctf/rL94Ac/sLvvvtvl26eeesoJU28xvuWWWz52r/wmb9dtVFIeKAPB38n/WJu5NmIbMYwAp6eZdwRCHZHbFPy1Efhcx+N/U397SKt/V1DPv/TSS84/HWPbF7/4Rfv0pz/9sfsDzh/8DD3oAu6J3iKvDfjkneThfjke/3Ws8Dznf//3f7cf/vCH9rnPfc6lP1yRCBctDi8KClDwi4tPChGFK5xbrUIEQ37Gb/LtBfOtOrbYhk3sbQOG97S0zG7WNSCwO8fFWqfoxr1m2a9zXIwT590zkqx/HlbyXhaTWGHvvb/YWdixGLU0iF5EkC+r7QHvDCxiWLrw90ZgYOnDAukb8HUFSjiBewBCA//fcALxw99g1OhxNn3mbMsZPsUOlmfavHUV9tKyQnt3/Ulbu7PU8g+U2+6AyN5XUGn7jlbYjoMVtmlPoGxsKQ4I9yJ7dWVgvwOB8pCWZ+OmzLTJU6e7wZeIxfbMd+cK4pt7oHHFfWCZRggzgJOBhYhUXCkQszNnznQuK1huIVjsQn3ClfNi8aUBhzWadw3uI1iU2R93EcQvvSwMVsSSjAhvalnBLQVhjVsIftc0zBnYSNrJt7iABOPTyn7sw71PmTLFNTYpx95gUPce64OGCs+RHnQGYvKew0ceFxkP98k7iudAfsTtBzcWfNFJc2sZKNoCiXDR4lBoqTQpGL5w8EmB9JYDIcIdLLVvzX3LDhbstbzxvQLiO8uSUrs64R3V6eMValPg+NiAIOd8OQExPmhMlh0vORiopN5xvpGNqdwaA+ehdyrY0tVWcG2sX1S+CBMEC9Zuut3pisa6xbuiPnESbvBOxBKKxTDc4PkjxvmbDBw42CafP90uufwaGz/lEuveb5wVd86xXSfTbcORJFu9t4utOZBgWwuT7VB1lsWmDbXckRfYtBlX2vQZs2xkQMxnZfVy+Y1nEu4giKdPn+7GJzz++OP2jW98w7mcIMCxUiNsEcbc6+9+9zv79re/7Xq2fN4/G9Sb+H9/61vfsp///OdOmCKY8Q0HBCzCF8MW5QcB3lRXFKDBe9lll7l6+/e//73zYf/FL37hzokvOyK4PtifBgHCm4GdP/3pT11ABup50hRszW4I8hXuLTRUcWvB1YSBrlzbl33KDoMxMULcd999znf+r3/9qxPg3H845yVFRxENgpWvOdFR8IulZU4BwjLAC4pWOiO7GUxBK7Yp5/Pw4lJ0FNHekA+x/qxYucy6Z3ex/kN7OpeS6JiWF4ycDwt5fNfOlpyeaJXVFbZtyw6rrKh27gLn2qCljCPCsS61VZlCWHBN3hNUqlTk3AuCBrEXKcK7LjQwCKPGZ6iHTWsI8giCh79TUlI3S0vPsKxe2danX471y8m1/rmDrP+AgZbTP9d69+lnPQOCu3v3NEtITDxtgAmnvy1CEiFNnYW45R7otSGvIgz9QEeEIPmYdwP+zAykJKoHx1IHsp4Fd4rbbrvNPT9EJ8dyTqy81I34fwP7Uk441yc+8QlXPmi4EBnk6quvdg1V924I/D0Qq9TTPNsLL7zQpbWpz5j9uTZp4pz+Pq6//nonzkkv6xDV3DcDK4F75hiOJ19g6Z89e7ZrePBsEPekm/sj6gr3y77+GbI/+yHysbZ7Sz7XxMUPX/WLLrrIXYPtuN4A6eHYO+64w6U7nEV4VODBtoxJRUQctG5pkfIyYQBGY/FxUxHijHLmJUSrlQEpjKjmfM2p8Hkhcl78wc5VfAjRHKgYidW7fedW65eXYelZKRYT23Z5saqy2g7vK7Cdmw9Zdo9+rmKjQmouPtpIW4hwuq4R3bi/cC3eKVTQXpg1VTiEGzxnus/JQwgVEfpQ57CQX30+5Tcikt9+HX9TBKrfF3Hq6yj+7uR9trEO0c1v8MKd8/njwK/jk/UcyzU4nn18WWEdYQoZrIiQvf32208L+ebAdbgPzss1uJYXuP4+IPid49f79LFwHuBYfy+s9+diu19HIwKXG/TChAkTnLgmQhSx0+ltpPfAi36OYQl+FjyfcEYiXDRIc0U4BYy4qH//+9+dLxyFmUJKFxota0ZcNwfOKxEu2gte/PhJ7tq33foP62HdM7sFKoC2F468so8dOmHb1x+wHmm9XaXVHCHOeXBtoUu7tQbG8czoduddgtUdFxNv8abybI1rhjJ0n/NuvPnmm5s8eE6IYPAXZ1DkM88848QtA0MxeoWbVRhRjVYgugwNALQGuoHeMkIW3njjjc7yH6nIHUU0SHPdUahcidHp43Qy6IJuNAoU3UnNrXgRDXJHEe0BeQ9/3p17trnwgmk92keAA+UnvmtcYIm13Tv2WllJhbNkN7VhSkXHQld3S5cnKlZEAv7eWL7pluc9gADnXdIRBTjwrOlJQSjR9S5Ec8Eo5QeEXnLJJc5toz3GdpwrvAuw3rNgDGDBJQW3G+YZ4d0Wye8KWcJFgzTXEh5McPY614IkS7hoL7Bgrt+41voMSbOMXikhUykc2ldguzYdtoE5eS5KQlPENAKZ+8A/uSVEOGWdhjvvDbqY6SrG/xlh0NIiP5wh+gOuefizCnGu+Do2EoRqS+qFcEFvRtGqUJD8IkQ4QlisjZs2WEbfJEvrmRxSeTk9kJ6M3kmWv2OzC+/XWHATwULdEgLZW+QIGcZ4EJ6PH5iFy4UE+EdhcB7d7jTshDhXIql+9fcSKffTGPR2FEKIBsCfef36dZaQHmM9+3S36EbG/G4rqKyyczKsS3K0bd+R72bSawyIcARyU9zMgsFixTgPIhggvrkuriZEkCAiwrkMFo10cM1hXEy4xQwXQrQ8EuFCCFEPCM1NmzdZuRVbj+wUF/87FCGEYZ8BmVZUVuAGWmJlPRv4JDfVj5zngdUbVxOiFmB551qIbsZ/4HoiN7HGgesQsdEZfCaE6LhIhAshRD3gM33w0H5L65lo3VJDe8ATs3P26JNiB4/stYMHD37Et/Jc4DxYzRHb+HojHHkuRDnB3YSB1q0VWSVS4VkRg5mGEGHZhBAdF4lwIYSoAxbfHTt2WEyXakvNSAoLkZnZK9Vqoits//59jZqNrzEw0JJY4li9sYAT3QOXEz59TGPRdPCTZ9KT9evXu7wmhOiYSIQLIUQdGIxZWHTMUjISrEtCePg3M2Nnz75pduT4wdOT8JwLHM+ASwQjAy1ZiJIkq/e5wzNl+nFCOdLYE0J0TCTChRAiCCyT+/bvs+gu1ZbcPbzi7nbPSDKLqbLDRw47K/a5gNjG35v43s0dwCkahoGxTEKSn5/fYu5DQojwQiJcCCGCINJHYVGBJSTHu0lxwgkGaWZkJdux44edD7cIXbCG4xuOnz3T+QshOh4S4UIIUQsWSQYeWnSlJYf4YMyGYDr9kvKigAgvkL9xCIMI79evn+tl0ABNITomEuFCCFELUUAKCo5ZTJxZ18T42rXhBaEUk1K6WEHhMTctvQhdiJCCbzguKcRdF0J0LCTChRCiFlw4yqtKLSEp3qJjwvf1mJrRzQpPFLhZMUXoQlz1nJwc1/hj0iMhRMciqkYjQkQDIEhef/11F0qLWMDtDfGK586da3feeacmBRGtAlOJ7zqQbz1zksNuUGYw5aUVtua9fBsxZJxzeVBEk9CFcJJvv/22s4rPmDFDfyshOhAS4aJBCE/20ksvOT/ZUKkY6F6/4447JMJFi0M+X716tR0r3mc5Q3taXHzj42CXFJda8ckS69QpyromdLXOcZ0DZaZ2YxDsV1H+8RktKV+IMAZWlpXWH9UkNi420BhunIsML/U1S7ZadsYAGzxosKKbhDD47W/evNmWL19us2fPtpSUlNotQohIRyJcNAgiHEt4XFxcyIheBs3deuutEuGixcEnd/mK5VYRXWi5w3s1uuF5YN9h+3DFRtuza7+L1d2rT08bM2GYJad+dJKfmuoaW/7eWtuR/3G3g5jAcZk9061b4JgNa7bUrv0oObm9bex5Ixqdrvz1ey22MsmG5g134fBE6ILb0CuvvOJcUyZMmFC7VggR6UiEiwbBHeXNN9+0ESNGWEJC+3fN445CRSV3FNEa0Ohcu261xSSVW5/cHrVrz0xpSak98+c59v6i1ZbZI80qKirt8IGjdvm1F9llV0+3mNiY2j1P5d/nn3jNVi79sHaNWVVgXWHBCSesx00eaX1ysuzt15bUbj1lJS06UWzlZeU2/bIpdtMdVzlre2PYv/OInThYZSOGjbbu3bvXrhWhCA3AVatWOb9wrOEYPoQQkY9EuGgQRPi8efNs8uTJIWFJQ8Q88cQTEuGiVTh48KBt2rrOEtI7Wc8+abVrz8zGtVvt0d8/4+KJ33DrbDcD4p/vf86J6u/d+xVLTUuu3fOUu0v+5l129NAx97u6usYO7T9ib7+xxBKTEuyTN33CMgJCft/ug247++/fc8iWvrvSuapcecNMmzB1lNvWGI4dKrQ9mwts9IjxbtIdEbrwbmOW1gULFtikSZNc/HAhROSj6ChCCBEAa2SNVVts539ar8/G9q27nTU8b3iucxcZNX5oQEh3t+MFJ+zA3o9OHY8wzx3c1yaeP9otI8YOtpLAsVVV1TblovE2esJw690v6/T2vBED3XHVge2I75Hj8tzvxtI5PtbKK8oVKzwMIGZ4t27dnD/49u3bP5JvhBCRi0S4EEIEQKzWBP5FRzf+tVhYUGSVlVXWLSXRDapEaCendrOoTlF27EhBg2KKYzav327vLVhh/Qf2tinTx33EzaSyotLyN++wDxavtuy+PW3ClFEWF9+0wZWxsTFWVV3prKwi9MEFhUg29Mgwa6sQIvKRCBdCiACIVURzVKfGvxbLyyvcMQys9AMmnRhnW1nFqTAl9VBcVGLzX13kvk/7xHmW1O2jYy4KjhXaivc+dOfHut6jV3rtlsZDOrgnifDwAJejrKwsF8mGyXuEEJGPRLgQQgQ4JVYJx3nqd2MgjCHiu6K88rTVm4lX+BrXJc6cGq8D7ifb83fblg3bnZV72KhBtVtOgUV+764Dtm7VZuvVu4eNGDP4tMBvCljWSVND1ngRemANz87Otr1797r44UKIyEYiXAghAjRH6KZ0T3ZuH0ePHLeqyionoI8fPeHcWtIyUpzgPllU7OKDexi8ueK9tc7iPjQgwJlmPpjik6W2bfMuKysrt979elpK0ODOpoD25o6ac1+ifcAK3qtXr8Dfvsz2799fu1YIEalIhAshRAAGx0UF/lVXNd5ynDOwt3XpGm+b12+zdas329KFK+3QwaPWPT3FMnum2f49B+3Fv71hb81ZWHvEKX/v9Wu2OPE+MK9f7dp/UnTipBPhuKhgKW+uiKYBgNCXCA8fyIPJyckuGtXOnTtr1wohIhWJcCGECHAq7GUnF42ksfTp18vGTxlphceL7NUX3raXnn7LogNCaubs8y0hKcEOHzhm815dZEsWrHD7Y53GKn70cIGb2Ccr++OhA8tKyu3QgSNO3KdnNj++d1VFVSAtMU7YifAhPj7e+vbt6wZoHj16tHatECISif5xgNrvQnwEukQJl9W7d++QmDwC39Y1a9bYuHFEkpCwEC0LPrhHC45YTHyUJXbrUrv2zLiZLrPSnVhOSOziQgyOC4jySVNHW1x8nBPaaZmpzu+7b39m4Tzle56UnOR8vXOH9PuYpZqfCd0SLG9EruUM7BMoe82bcv7kiVI7eazcsnpmW2JiYu3ac+f0AFZZ2FsFGoO83/AL5zkzWFMIEZlosh7RIJqsR3QkCAu3bv0ai02utN4Dmja5Da/R4pMlLl8SSjAUBOqB3UetYF+5jRw2xtLSGjf50NmgDBYXF7sFiy1LbOypwami5SgpKbHVq1c7S/jFF1/snrMQIvKQOVEIIQIgdDpFxVh56anoJk0BEZqQ2NXiu8SFjCAtOVlmcZ1PieSWgnsjlB7npKfs2LFjdvjwYTtx4oSLCiNaBnoee/bs6cQ4M2kKISITiXAhhAhAZIq4uHirKK92gyfDHdxRunZJcPfVUiDCaawweJAZHhMSEpz1H7F45MgRJ8hPnjzposSI5uMHaPJ8NUBTiMhFIlwIIQIgfPCdjqruZKXF5bVrw5OK8ip3D4kJSS0qwj08K6y1PK9gQY5ILyoqskOHDjlXCtxWJMibB8+T8Tg0bFiEEJGHRLhoNQoLC23Dhg1uMOW+ffvUXS1CHsY+RNXEWHFReE+UUnS82DpHx1vXrl1bfRAzlnCs416Qs3Bd/McZV0KUD9xWGPjKOtE4cPlJT0937j+7d+9263h+uAHpXSpEZCARLloFpl3+29/+Zo8++qj96U9/soceesgWLVrkLGNChCopKSkW0ynOThaGt2AsOHzCkhJPuTO0Fd5fHEFOYwYxzvNEkDNBEZZxBDnCvLy83A1mFWeGhg2DahHhW7ZssSVLltj777/vGjVCiPBHIly0OHRHU1EsXbrUVSBDhw51FfDrr78u/0YR0uBi0S0p2SpKq630ZHi6pFRWMGvnSUvplmpdujQu1GJLgyDHksv1EeSIcRYEOpZc3CsQ5PSWyapbP97qTQOGZ/Xhhx+6BgyDYENlSnsaUqSRyEK4IDHLJwNJGR9APUDahRANozjhokF4uTYnTviOHTtswYIFzio2a9Ysmzp1qqtE1q1b5yah6NOnj9vWVHjhK064aE0Qj+Szw4cOW1RslSUmd63dEj4cPVRoxcerrE92jhO+7Q3PFJcVRDn+6X4BxCRijXcNsJ/KtrnBrStWrHDvTP9s6NXAoMEzo3HTUmEnmwJlg4bTrl27bOPGjbZ+/XrbtHG97d+dbwf37bTDB3YFPnfZnl07bNu2fNuydZvt2bPHHcOx/N2b8+4XIlLR2060OFhrsIxQSRBmi88ePXq4ly8W8VCx4ghRH927d7eu8Yl24liJlZeFl5UWoXNob4GldEtz7iChBgIbIYaIZDAnz5qGAuKb9waWVKzkRFvpyP7jPA/elwjw4cOHW15ennPhYYG2duvjurjDzJ071xbMf9P25a+whIodNrDbERvX66SNyS610b3KbFRWYAl8jskus3HZJTYis9B6xu6zssPrbc3yhTb3rTds2bJl7m+sAbtCSISLVgCRzYL13Mco5juVChYedT+LUIY8m5nZwypLoqzwWHiNYcANpbyk2tLTMtrNFaUxeOs4ghyfcRoMDEL0DQfcGRjMTaMdIUrjoiPB+zInJ8c1Upg5MzU11b0/fcxwbx1vbXAnwRr/yiuv2I6NHwQE9X6b1DcgtLOrbVCPTtYnPdp6psZaelKMdU+MttTAwmdaUrRlJMdYr+4x1j8z2oZmmY3vU2l5aYVWcXSjLV003xYvXuxcWDRYV3RkJMJFq0JlW5eOVqGK8IOpwuM7J9qxgyfc5D3hQHV1je3fdcRSEtMDIjw9bNw6ggU5LhcIzszMTOdLjghEeCLIsZR3FB9jngkCfMiQIa5XkYGZNFBolGBBbgtDBi4nc+bMsd1bV9qIzCIb388st0eMpXeLsaQunSwuNvB363TmianYHBsdZV3jOllKQrRld4+2Eb072dje5RZfttOWLn7bli9f7vzcheiISISLFofKFEsOFYWvLOjOpPJgYJa3jgsRqpB/+/TuY+VFNVZwpKh2bWhz9OBxqygONCB6ZrmoGuFIsCDnHhCiuLIhzuldw78YlxVEW6RbUGlE4c43cOBA577B/fMexb+ad2lrGTO4BlFYli5eYIO7F9rkAVi8Twnv2Jhzmw0W0d6lcyfLCAj5YdnRNqZXuZ08uMGWLF7oGhpyUREdDYlw0eLg68lCGC0qDKxXfMfPE//wUO4mF8KDNRzf6iP7TtjJwpLataFJWWmF7dtxxLonZzpXmvp6oMINRCguGDSIsIrjroIo5TfvFSItYSXHPzpSe9cwWDCYnbxI44OGBy4cuKPwPm1peK5vvPGGFR/abBcO6WT9M2MtIb7TWS3eTYXsiSU9MyXGxuXEWM+4I7Zq2SLbvHnzab93IToCEuGixcnOznYRUIiSQljCv/zlL7Zq1SrLyMhwlQlWLiFCHQTgoEGDraYs1g12JPRfKIIA3bv9sAXkkvXt09f1NkUaCHIs5Ahw3DIQ4yz8jfAf513jrcWRBj7zubm5zkWHHgB6FxGqLX2vNGgQ4JlxR23SwFhLTYi2mOjWbcyh7XFVGZwVa8N6Vlj++mX24YdrW6WBIUQoIhEuWhy6kadPn24jR450YbZ4sVNhEK5w8ODBEWGlEx0DenRycwdawYFSO7y/wPldhxoHAw2EgoMl1ie7n7MWR3r58oKcxgb+47169XINfKzEWIuxkOM7HSkDwL1/OOEJ6REAehdbcnAmz+2dBW/b0MwSG9Gns3MZactshNjvnRZrY/tF2YHta23D+vUS4qJDEFWjUXKiARgINW/ePJs8efLpl39joUJEeGOlwmpDZYmgwXLVXDjnE088YXfeeaerhIVoC8h3TJSya982yxmaaakZTSsLrcnxo0W2bd1+65WR40RaR+1l8tUYfyvcU4jChIjzvuX4lJ/LuycUQHjjrkFUEcI6Tpw40fU4niu4t7w9f54N71lu/XvEuoGU7QV/xqNFVfZBfrllDxhtQ/LyIrJnRwiPLOGiVcBaRTcqE/0MGDDAWXLCvRIUHRPyMgK3e7cM275+vxUeO1m7pX0pOl5i+ev3WUpipg0aNKhDu3lhLWahcY7BgMGcCFTEN5MBEemDUH98R6iHI7w/+/XrZ8OGDXMDGFtiECPPY+HCd2xoj/YX4ID1vXtStI3vH2u7tqyyXTt3dpiIOKJjIhEuWhVfOQoRziCAxo0bb926ptuWNXvtREH7xg9noOiWD/dYUlyajRwx0jV4xT/hncPfDIsx7ioYA7Coev9xZvDFUh5uHcH8nTFqcF8Mdj8XELfvvvuuZSWcdAMw21uAe0gFYRCH9o629Ws/cH8rddiLSEUiXAghGgGW5vPOO8+6dUmzdR/ssGNHTrSLOMAFZf2KnZYQk2pjx4wN23CEbQWCnCgj9Mb5SCOsww96+/btbkBnOE0IxADN0aNHn/O09atXr7aoskM2rHesi1QSauRkdLbeyRUBIb7CRW0RIhKRCBdCiEaCmJs6dar17plj65futAO7jlpVZdtETamuqrYDu4/ahuW7LTMl2yZNmiQB3kQQ31jEGciJaweCFoswrirEqca6zBiWUBfkpJsGRXMhEsqObZtteHaUde0cujJgeO94qzhxwLZvy2+zWUKFaEskwoUQogngdzx+/HgbPXKcbV190Dau3GUlRaXWWpFTEIQlJ8uc+8m2tQdt8ICh7voasHZu4OuPzzihDhG0uHjgosKEQMzQ6ec4iDRXCO5p1cqVlptWYd0TYwINk9oNIUhMTJSN6R9v27esdTOHRtrfQgiJcCGEaCJYVJnJ8NJLL7Wa0jhb/s4W25N/0MpKKpzFuiVA1PtJeFYvzrfy453s/KnT3MA8DXJuWfyATu8/ju81IhzrOD7JRFuJFEG+bds2s/Jj1jst2jqf4wyYbUFGcoxlJlVZ/paNClsoIg6JcCGEaCaE3Zw5c6ZNGHue7c8vshULt9iuLQetuKjUKsorraoJghx9h4CvqKiy4hOltnfbYVsTEN97Nh23EXlj7KKLLnZuCKJ1weUIqziTjuE/zm/ijuOywsBOhCCRScIxygquNlu2bLa+qVWWEBc+1X9edpwd2J1vBQXHwja6jRD1oTjhokGIE/7WW2/Z2LFjXbdte8PL94UXXlCccBGSIMyYKGbTpk12/MQxS0lPsJSMJEsNfMbExlhUp1ORgk51//NfjRPe/IfVG9F+4lixHTtUZIVHiy2+c4ILPYirBDNFivaDdw/zHmARJw457x+s5Sz0SuDawhLqbNkSaCRuXm6js6ssOSG83qHL8kusOqG/jRk3Sa5YImKQCBcNwhTJzHYZSgNiyK4333xzWFR4ouPCAD9cGfAtPnL0iHWOj7WuiZ2tc1yMRcdEW6foKKuuqnGDOhHfJUXlVlFWZYmJSc4Ci1sE0S+Uz0MPGltYwxHkvBsR4YjxLl26nBbkNLZCDdL99vz51iN2vw3oERMWrijBHCuqsoWbKm3ajNku0k0oPmMhmopEuGgQsgZTP4daFpFVUIQT+BLjX8zAMqyplCnWYU0l7CH5GbcWFuXt8IK/I5ZxJr3hO38/xDiWWv6+oSTIiYiyatm7Niqr1DK6heeYgvlri6zHgPE2JG+YcxMSItyRCBdCCCHOEfytsY6zgBfkNLQaK8ipjltLtK9cudLKj26wvB5mCfHh2cOSf6Dctp9IsfOnzXC9D0KEO+rrFEIIIc4RxHZqaqpzJ0pPT3eim96PQ4cOuU8s5gj1hqabZz3bW2PgIVb6w4cOWnJcVUhOzNNYslJi7PjRQ1ZSUhxyPbRCNAeJcCGEEKKFwJKNOwo+/QhyIq0grImwQnQVXJPqCnIEJf7lWNHxN0c0t6TIZJB9TWWJJcVHWUyITE/fHLrEdbLkLjWBBsWhVmmsCNHWSIQLIYQQrQCCnMhSzNDJYFtikSO+EeMM3kWQI7pZx4ILC+LSi/SWEppcq2tsZVhbwT34sx89cqjBHgUhwgmJcCGEEKKVwS88MTHRevTo4WbpxF8c6zcWctxV/EQ0uLUQZYVBvCyIzXO1inP+rjGVYRcRpT7SkgIi/OhhWcJFRCARLoQQQrQhRPYgGg6CHLcVLOaIbSzjhIYlgg7rfGzyc41SRfSW+IAIj40AEZ6S0MmKThTKEi4iAolwIYQQoh1AaGP5ZkGM4z/OgE7cUVjwDcdCjk83v5sjPDlHWVmpdY42i+kU/iI8vnOU1VRVuAaKBmeKcEciXAghhGgnENa4VnhBSei95ORk5x+OgEZsIsDx60aM87sprhjs36kGKziiv3ZlGNMpcBNd4wINlZNFEuEi7JEIF0IIIdoJrOF+QCaimwGZfOIXzkBOBDn+41jIsYrjsoIveWMFKK4s0Z1qLDoSFHgt8bFR7hkIEe5IhAshhBDtBGKbCCoM2kR0+wWLOAvriT9O7HGma2cdwr2xIhxB38mYBKh2RQRAmEXuS5ZwEe5IhAshhBAhAgKbhWgqLIh0BnLiN45FHFFOHHIs440BC3tUVGSJ8OjArWtgpogEJMKFEEKICAVBH2lg/47E+xIdD4lwIYQQIkLBml5dExVYaldEAJWVNa6HQIhwRyJcCCGEiFAQq1UBER5J/tMVARGOi46s4SLckQgXQgghIhQir1TVRFtlVeSI8OLyaovv0kUiXIQ9EuFCCCFEhMKAzuiYzlZeFWVVEeCTUl5Z4+6FiDIS4SLckQgXQgghIhSiqBBVpayyk1VGQECRotJqi4vvarGxnWvXCBG+SIQLIYQQEQwT/pRURjsrcrhzrKjKUlK6NzpEoxChjHKxEEIIEcGkpKQERHhsQIQ3frr7UOVQYaV1T0uXCBcRgXKxEEIIEcEw42ZZVawVl9dYOAdJwaf9cGGVpWVkutCLQoQ7EuFCCCFEBINPeNekFCss6RTWLilHi6osqnOCJSenyBIuIgLlYiGEECKCQbD27NnTCkpjrKQ8fF1S9hypsIzMXi7sohCRgES4EEIIEeEgwkuq4q2wpNqqw9AnBQv+3qNVlt27r5uoR4hIQCJcCCGEiHCIq52WmWWHiqKttDz8RPieoxUWl5Ruqd3T5IoiIgblZCGEECLCYWKbnJwcO1LS2QqLq8JqgGZldY1t3VduffoNsPj4+Nq1QoQ/EuFCCCFEB4AoKanpWba7IMpKK8LHN3zXoQqzuFTrmZVtMTExtWuFCH8kwoUQQogOAGH9Bg8eYoeK41ykkXDwDS+rqLHN+8otJzfPEhMTNVW9iCgkwoUQQogOAhP39O6ba1sORllxaehbwzfuKbX45F7WM6uXBmSKiEMiXAghhOggMKgxLy/PKmO62/bD1SEdN3x/QaXtK4yxQUOGW1JSUu1aISIHiXAhhBCiA8HgxtFjxtq2IzF2ICB0q6tDT4ifLK22tTtLrU/ucMvIzFREFBGRKFcLIYQQHYyMjAwbPnKsrdpVYwUhFi2lsqrGVm4rsaSMXOuXM8A6d+5cu0WIyEIiXAghhOhgYFkekJtr2TlDbMnmSjtRUm2hoMOrqmts1fZSK4/NsMF5p9xQNBhTRCoS4UIIIUQHhGgpY8aMtfReA23hhlLnAtKeeAF+rDLFRoyeYGlpaRLgIqKJqglQ+12EECUlJbZnzx7bt2+fi4vap08f69GjR6uODicrFBUVWUVFhXXp0sUtfn1paakVFxe7bsGWGiDDPbJQERB6ik8P6SgrK7O4uDg305texEII0TpUVVXZkiVLbP+uTTZ9aJylJMZYW79xCUW4cnuJHQ8I8LHjz7MePXvqvS8iHonwEKOystLWrl1rTzzxhK1fv94JYECMTp061W644Qbr16+fW9fSILR//etf24oVK9x1brzxRrf+5MmT9tprr9mf//xnl4Zvfetbbv3Z2LZtm7uHXr162ZAhQ06Les+iRYvssccec+L+xz/+seXm5tZuMbv77rttzZo19ulPf9quvfbaZjc+ysvLbevWrbZlyxZ3/mHDhtVuEaJlef/99+3RRx91jWcalJMmTbI777zTWfPgyJEjdt9999mmTZucK8Dw4cPtS1/6kvUMiA1EEOsffPBB27Fjhxs4R1m75ZZbTh8vRGtSXV3t3rlrV31gF+TFWe+0tvPDxhVm2dYSq+6SZWPHyQIuOg5yRwkhENwI8AceeMA2bNjgxPbVV19tn/jEJyw5Odnmzp1rTz75pO3cubP2iFPH+E+/1MfZtnvYzsu4Ln593W3B52UJhnv429/+5sQ2lu26IIi5r6NHj9quXbucYIZDhw65e0SYnHfeeadnSGvoOp76tmNNX7VqlWvU0LioS33HeILX1bddCA8Nvd///vdOQHfv3t01phcsWGC//OUvT5cbGpaUbxqULMuXL3einG179+61X/3qV+489DZx/JtvvmmPP/74x8qcEK0BDcPRo0fbBdM/YQs21tjiTcVW0crhC4nKsv1guc3/sMTi0wfb5CnnW3p6ugS46DBE/xgTpAgJjh075oT2e++958Tn1772NZs+fbpNnjzZsrKybPfu3bZx40bLzs62AQMGOMsZlmZeWKx/99137cCBA24yBixprEfIYpF+5513bPXq1c79AytDfVP/UvEvXrzYucAgkEeMGOHW456CJRkxi1vMBRdc4EQpFvJ169bZ/PnzbeXKle43biVc++DBg84yyHFYwBmJT7qCR7mzH2lDgHOct5Zz/0uXLrWBAwfa7NmznVWRe+U6H374oUsn9+DdV7hH7nvhwoXumlgcmZ6ZSoVnxjpEPW40PEfSgTj350QM0RDo2rXradcX0oVVCDgW8dStWze3jxB1IR+RR2bMmGHf+973XBxm8jHimh6lzZs329NPP+3yENbuyy67zJV1eoEoGzQ8Ed2UO8Q4n7gHkLf79u1rmZmZtVcSonXh/Tho0CDbuvuYrdh0yOJjo6xbl07uvdgS2hhZj02DGTuXbyu1XYVdbPjoSa5nqG5vqRCRjkR4CEE3NhUzFe/MmTNt3LhxtVvMiU6EJhU9QrJ///723HPPOQsv4hpr87Jly5wQp+JH0CIY58yZY7/97W/dNgQs58faRld53bBPXoRzfE5OjhP7COvCwsLTgt+LcETDU089ZQ8//LAT4jQCSAPHIhpI08svv2zHjx936eY8pBkrYTAIfI4vKChwaUKkvPjii5afn29XXHGFDR482J599ln7n//5H7cf9/DWW2+5Z0VDhcYAFu6f/vSn7vpY37kHGgy4wbANVxqs7KSN61HBkLaHHnrINR64N47hueB3j+B59dVXnRWS882bN89ZOEeNGvWx9AsB5Ct6rnweplFHwxeLNyIckU6ZQJzTsCTfksdp8JLn9u/f7/KYs0QGyheNRLZT9sivreWCJkR9kG9x30tKSbOVASGev++kRUfVWNc4L8SbJsgR3UyRH6ja7MiJKluzs9zW7+9kqVmDbOKkye5dHTwmSIiOgtxRQgh8shGtWGzpkgsGqzEWCnzDT5w44SzagHBGbN9xxx3O/xT/UgQ3IoBK/R//+IcT9V/5ylfsJz/5iRPCWH6xsjXkYkE6nn/+efvCF77glq9+9av2zDPP1G49JThoDLz++uvufF//+tftO9/5jo0ZM8Zdm254xAhiA3eT888/32666SYn4OuC9QNhi7WZNCPWEfRAI4T1iHDu///9v//n7oFnQ/o/+OADtz9iGdFy+eWX27e//W13bazh3OfFF19ss2bNcs/o0ksvdT7miG6sjlyX+/vRj35k06ZNc4Ibazrp8CDMqSAuvPBCZ10Xoj5ooNFopLGMW8ovfvELlyfJ9/TIUGawJPpyzTq+UzZp0FKOET6UcaCB7HtsaKAK0R7Q+Lvmmmts2NjzbXNBir20osw+yK+wXYcrXSQVBlPiskJc78rqgMiuXfhdEViYjbOkvNqOFFXZhr0VNm9dmS3Kj7GY1MF20cxZzpBCHSFER0UiPMRAGFNZU0nXhXUs7BMsoBGIU6ZMcV3hWHGp8BHpWI3p7kb8ck6+I5o5ByK2IV9TLBK9e/d2YpZl/PjxHxHQNBToXkcosB0ByyfpQOwinBHHiFbcXnA1QXDQgKgLDQ6s3WxDBGPBxn+c7nhEMr8RKLjfIFi4B9xU+E53Py48uLwgWG677TabOHGiffazn7Wbb77ZCSNe8GzjnvjO9bCi4y6D1fGSSy5x++H2gwUf6yMWcw/P9a677rLrrrvOCSwhzgQNWPI/5Q2wftMLQ5kEhLaHckgZJE+Txzkm2AK/SxYAACgFSURBVE2M36xHiAvRXvDupDeGRuaMS2Zb57Q8W3sw0easQlSX29KAKF+zu9I27Km0zfsrbdO+KlsX+L5ye6Ut3Fhhr6+psAWbo+1IdbYNGjnVLp99pXOx5P3uy4kQHRWJ8BACIYpIRMBijQ0W2lTkiF8qee937eEYjqWCDxbvdGVTiW/fvt0eeeQRZ6FD1CKOG7KCA+IaC/L3v/99t3zzm9907jEe0oI1njTQ9e7Bnw+fatLoLfWNATHMeXA3wRec47GQkA6sgKQV0U/6WbBkI+q5N0Q4L3LSQgOACgN3HdLLeeuCoOH5cm7S6kUR30k/24JFD64CPG8hzgRl8/Dhw05Y4DpFzxB5kt4YXKIon+Rjyg3wnXxOfqVxR36kYUn+A8Q55YzjgsuYEO0F71nGL0yYMMGuuuoqu+rq62zMeTMsvd84q0kabEWxOXa4urcdi+pjZV1yLT5zuA0YPsWmz5xt11xzratTMKDwnhZCnEIiPITAUosvNq4UuHtQqVMRU1njj+2tz7hHNKYLDwswljXcOojMcO+9954W1bfffvtHBHtTQBhwbtJFYwErH4IYIYKIQNAGC1cEx5lE/9ChQ5144f4QLKQL6zT36q0lhGu755573D3glvKNb3zDdfX7gZSIfhodpIVBlbjKYIX0+DT4hg6Ch/2xQvIdsU/aETzBlQQiSdYacTYITUgZwxWLMkue9vmIhiLlBRgozHYaeuRTyicuZORJ1uMbzidinR4ZhLzcoESowTuRdy/jhui1pAcSt0N6FOkZxdKNeyJ+5TQyg3uAhBD/RCI8hMC6O3bsWPeJvzMVOwMGGdTFIEh8pRGnDLqsL7pJXXDhoPLHcowLBmKAAYlEZ8DqfCZhfCYQDFg0ANGMWwgWPz4RF/gRcg+IaRYELu4fiIv6QLAzYA0BTcODlzrp5kXPvbIdQc0gNu4Bf/U//OEPznUEywyuM4gWBqHigkMUCkIj4qbCOXhWNBJo3LAf+2PhZl8f1YLnzABSnpkiUYimQh4l7zLWgHL69ttvO7cqhDhlhZ4deloQ2QyepryQfylL9NhQrsmnuLKQFxkwTH6nHJFfhRBCRB6KjhJCIBgRn1TMWMGopPHdRuhiscV3mm5AHzoQEYm4xeqAzzaimoGRCE2sEV7YYn1jwCHCAKGJ5Y0JcOq6WWARJiwfFmIGTCKAAQGLiMdyh6UeP2nEBfv7qCgIB47DIkJcc8Sxt+Zh4WYbaTyTVY/zcw/4HiJcECWcBws1YQwRzEScwPruY6iTDu6Da5B27hOLPFYYtmPZ5to8K54D58Jiw7lpnBC+kHMyOI7nxeBN/OYZkMk98wxICxZ0IRoCsYyAJo8hxCmz5MuLLrrIlQcEOKKc8kB5oZFNWSASCt30WArJt7iOsZ1yRY8XlsXgKElCCCEiB82YGYIgehGdWH+xruESgTUM8Y2ABv5sCEsqddbjB806LGyIVCpuP5CQ/bB8I+Q5HhGK0K8Lotq7wWARRowC6UFcIHSxIGO1Ay9uaSywD8IY8Y5wBqziHIO4RnCwrSERjjsJaUckI+S9JRz8fTFwk0YFzwLx4v3iWcc20o6LDOmgR8Ffi8YA949lke5TBpqyHyIcNx8s9P6+ED6ACCe6DIM1WXCNEeJMUBYpswho8iYNOAYre7cvyhcNYfIdeZoeH98gBMoTVnKEOI0+GpJYySn/QgghIg+JcCGEEEIIIdoY+YQLIYQQQgjRxkiECyGEEEII0cZIhAshhBBCCNHGSIQLIYQQQgjRxmhgphAirCGyDpFHCPPnQ0nyWiNqDhF6iD5CiEA/CQ6Rbggf6KPvBMM+HMe5GoqIQ2Qdrse1fGSTloTZMkk3n6RBE50IIURkojjhEQZh+IiXjUhgRjMf3ozfhEYjVB8hBZn0hhB+XkRQ4ROWj5CDfDLBDsc3FB8bkUBcZB+ikPBq7OvDBiJmgrdzPYSQ3871CMXm00NYRH+9+sRRcyH2MhOfELbRTyAkIgfyNbNUEpcb4U2oTiD/EX6SuPHkPcJtEmbzpZdeckKcmPX1CWjyI3Hjgdla6wsPSBhB4ssTg56lpfMUZY9rEHaTNJJvhRBCRB4S4REA4gNRzMQ9r776qj377LPO0ofw8NY8RAqzSCJKVq1a5WJqY2HzM18i0P/yl7+4CXEQ8Yhnzss56ooVLIUInGeeecbtz/kQDIhnRBDnZftzzz1n8+bNc9fmN9uJU44QZ39mvpw7d67bzjU5L5MBNST8G4u3giK8mezoz3/+s5stk/jjsipGFsSnZ/ZUhHhycrKLDw/ExCdvMdMs32fOnOkal48//rgTzcSKr8/SzUQ7lAPi1DN5U315kZlsKWfEAW9IzJ8LNKRJJ41HYu6TDiGEEJGHzIIRADPxIUL++te/uslAEJxYCD101yN4EdpMDjJ79mxnIX7iiSecBRqr9N///ncnpidMmGCzZs1yIpYp7hEudcGyiLWQSUmYKIhZ/dgfwc3kPJwbsY/QHzp0qBNApAfhwvnozn/rrbec+GbCkssvv9wJo3/84x9uYp/gtAP7MxEKC6IL/OyDzABaF/Zn5lAaHVg+2Yf0iY4NIp0JcJiIygtnBDqTMlE2yCd18x6Qn+mtIW+T9ykvdaHMsZ3GJT1Awedh4i3yPRNR0fvDPpzvXPMkaefclEMWZn2lfJD/sfr7a3q4P9/r5NPHfjSQuX8a8TRggfNwPOnlfHznHoUQQrQcEuERAJU5FShiG0tv3e5xKlqEQWZmppuu/oYbbnDimG5vLNBU1Ahi3EFuueUWu/LKK23SpEmu2x5hXhcszHTbY/Vm32uuucbN0Mk071TyiGOEDVZvpuy+8cYb3WyUVP4+LSxc77LLLnPpQRzhQoBAwaofjG8Q0GhgRkIExGuvveZENumvCwICsYR4Ylp70THg744wZaEs1BW5iGfv843YJB/TaCVfYXmmBwkhHQx5msYj1nH2eeGFF1xZC8b3+rCdXhf2pZHJtYAGMOvIw3yyD9ek0VqfoG8MlCV6ofz5uDaNcMoD5ZptrOM35Yky8/rrr7t13CNpY3p8juF4Fr5jfQcauf6c3D+flE0hhBAth0R4BIBfKmL2s5/9rLMs1+1m9xZkpmT3PtdMxc4nYhkLF0Kc8+AHi5WQqeERKxxbFwQOVjdcXugu55PjED+IX86HAGYd1kfSg/85n2xDgLMvxyLEaTQg6Ekb16srnhDSpAnB9NRTT7mGAZZ7BIafIj8Y9p8yZYrdfvvtNmPGjNq1IpJBZNIwfPLJJ92CKEYcB0PeXLp0qbP6kv/oqUF407BDdLI+WIRjAabHhx6aLVu2uGM++OCDj4hw8jN58ZVXXnFiF1er5cuXOwGLaEXs8/u9995zIpy8zYKbFGnE9aQ5cK+knTRTrmgwI7xZKJ+kC0FNjxDjNfbv3+/82FnH/twnwpp1pJl0vvHGGy7dnIt751kh1Eknx9ctl0IIIc4NifAIAIGKGEU4JyUlOXEdDAIbixsDI/02byGmwmUBv459qJg5Jrg720NlTCXNoDWEM59U7BzHNs6HIMEq732w2U46EQhsp1HANfzAN74jxn1ag2EfLO74xuKrjhUR0YTbzMiRI2v3+ifsj+jneaSlpdWuFZEMIhxXJqy2LFii+d0QWIvJS1iU6aW59dZbXR4jz3gQyOyD+Mbl6rbbbnM9O+QtDyIYVxDy7+TJk91++Il7a7R3+4DBgwe7c9AzRFmgoYq7R1NBMFPu8EmnkXnBBRe4sRSUMcQyZZNrkU7SRloQ3ZQ7XHFojOMuhpU/OzvbHU+6eT/QcOCePZRpeqluuukm+aYLIUQLIxHeAfDuKcHi1n9nm9/u/UHBf/fbgqFirnsMnyxsQwTz6dd7+M5xfnvdbX67PzYYGhmf+tSn3HeEAgNGL7300nrTJzoeiFrGJ9AbxIJbFb8bgkYcApxeHHqPcKeaOnWqE7YerMkIV3p0Ro8e7cT6xRdfbD169Kjdw1xPEqKX8oTFm7EZnJu8jCXelzPyNOfIzc11YtY3cjm2ORAxhTKBexeCmsYADV/cTBD+3DvuZ2yn1wrLOelizAcNdRoo7Ms6rP1Y6n2DAau/h0b09ddf74Q67mVCCCFaDimYDgCVLsIXQeFFAV3UgLWMSBDgt7NQOXMMLip1oWLGak4ljpXQW8YRGogLjsGqxjrv381+7M9xXI9zYPXGIg5cDxFwppBvXMcLd74HWxlFx4Y8g8DFms1yySWXuN9nwjf6fH4L7rkB3zCkHPh9gntvwOdH8jRinQXLMYONGQQdnJexVHuC1zcVyhUNUcQzrl2IcSzfwWUV9y7vcobbFiKcazIWhLLp0427GL1FpJsB1FdcccVHnhvHBPcOiPCHPOMbbcHwPqV3hPxCD03d7by/aXTixkXjjnfwmWA7PTM0Rmn01e1VJR8zsJjtfNZ3Pa5D3iXN/BYi0mh+TSDChn79+rnua15k+MUiiHkJUxFj+aMCxrKGMGdgJS9DKnlEA8fiQsLATSxuvBSxHtKNzbl4WWNR5CVKhY4gwAJHxc4LmIgM7Md3xD1WRLrEaRiwDisdL2f/0vfd6nXhPIRERAAhOLgekU8kxEVzQEyTB2l4IhDIi7hskP89bEewYhFnPQM5sXaT3z3kd59fGYdAA4C8j8CggRvcq1NfD8+ZQMRQ3rimXyiHiBLKJ+lC8F933XWuTPnzU67pGcDiThrwP8e1ZtCgQa5sUoYQ6ezDPTKeBDcbjqesc8/BBDc6RHjDeAYGFzNYGDclD3kNNy7Cb/7pT3+yRx555HR4T+CTY1jPdvabM2eOy+f1wTud8QR//OMfT+/P+9qPgaAsMVCY8z322GPuExcynyaMMqSHbSychzEVlFchIgmJ8A4A3cj4TiOyeRnef//9LuQYFbfvGr/oooucCGb7Qw895AY/chzd9LwQieTAy5uuagQ7lT8vUoQxL1D2x0UEgUwFzycvzBdffNEeeOABN/iN7YhstuMCgFhg0BfpYcAYAoH01BXhWMvZj2sT6xtXA/YhDjQDz4RoKohT8ho9M4hb8jyRRhDiXszS0CSOPr+JH04+Jr/TcPTg9oEPOMIckUDEHvZlUCODjpsqvINB+DAQFBHjF9KIpZJGNeWH9D799NOufCJgsBb6hql3SSG9iCVcUWgoA241PAMa4wzw5L4Y+Iy41ziKyIOGJhGlyENMBMXfPVhAY432IWLpCSEvIZrZl3xG44/tiHje4QygR4T7aDrBsD8Wc0Q7jVfyII079qdckEepLzg/dQj1DI1gBjgzhoH8y/UQ4RhfKId8UpdghT+bBV6IcEKT9UQYWMewXCFy6Uame50uZYQv8LLjBYtIJjQglm6EAhZq9kNM8GLkRUyXOkIFEcxLlW10cdOlTfc71+F6iHTECt3Z7I8lje1Y2rxfLS9ufLixvCMgEPKkzV8PIeMHXwa7BAAvfl7avMzxC/dpYj/EOPfSUPc+QoYBcFyXZyKrXmRBhU8FjSsGf18alkCvi3e5wgKMP7fPC+QXGqVYsRHK5D96a7zoRoQiYNmPckE+Q8iSz8l7DGxkPRMDcT3vK43VGksfv7EuYxmnLFB2yLvszzbSRrc/5yFdwT7mgEihjHJP9FLRUPAL6SVdLNwP6Ua0cI+Ud8odaeTeuDY9TPSAcdzVV1/t3gOUd+86gzhCKPGsOCfhRnmOlC+EFu8H3GpEeIOoxTKNIYO/NXmJwbjkF0AwYyjhnc97mPcz4xvIX/SSEDWHfMT7F1cvysTixYtdXmIsRTDkKcQ228877zx3DHmRHhzyPnmTxiWGIMoJ1yTPs508T11Ag4EBwuRHP/aH33xSNqlDhIgEogKV2D9Hx4mwB0GBWOBlxhIsThGzbOdFSDc0osNvJxvwwkUUY2ngWAQDL1t+Y30jhBkvRMQEFT+Chv2psHmZI178y5FrICTYzr5cjxc7VncPaUGkc35EAgKhPlcU7of9SCMvaNLMubk+Qh8xE3yfwSBUuG8qHa7f0H4iPPEinF4c8izWXSD/kT9YyHPkZZ8XEAQIAfICggSxiQgg/5Lf2Y9zkacRGeQ9Gq98R0yTX9mf/ES+BdKAUGc9xyKIuQ4gzikj7I8rlxfhpB0hzLpgOAflhs+6kAbOzz1xTe6PvM19cw2sm/46/MbyiaBhUOi//Mu/nG4wAPdBOiiHPAvO4csXx5JuvtPwFuENeZz8iZDG4gw//OEPXSMLvvOd7zhr+M9+9jMbPny4cyf5zGc+496v9L58+ctfdut+9atfuXoDAf31r3/dNf7uu+8+t5+HvEvPCiIcQ89VV13lBDRuJcAgX4wqNFgZRI1QR/AT9Yr00AigRwlr/d133+1EN/XPb37zG1cmv/e977k8LkQkIBEuzgpCha5qKmasIHVFgxAitEBA43OL9ZPGNSIK8SMLYscGSzhiFmu1F+FIgLvuuss1yH73u9+dbnQx1oCG2sMPP2xf/OIXXd558MEHnUsTop51NNruvfde1zD0sA3hjoi++eabXQ8pblNY02nw4eLIbxqMzOWAayPx6pkwiroF6ziuXTSYv/vd77qeHXpr7rnnHmfQ4bNu75EQ4YrMguKsYHXDkjZt2jQJcCHCABrMWD6xHGKJxP2mvl4mIYDeGcS47ymkx4UF2Ib4hbrbOYbtwQSv8+fwsI1zsT34Gh6/nc/g7f6z7rWECHckwsVZofLGOqIuQCHCA9xOsEJiAccXHFebuoJHCCBf4NKEwMZCjgDGFcoLbwwv3u0K67XfjiDmGO925cE1hXUc712q+I5VHXcvXBOpU/hNYxH4zj4YfNjOOXAx82ngO9f16RQiUlBuFkKICAMxg6sBA0fx9daAZHEmGI9DHsGNCXHNJ6KXMRDkJfzAEcSs5xN/bvbHMINgxl8cVxM+EeA0+hhbwXgKYHC+H2zMeAlcWvjtB0/7YxkjgasJwp8GAWMeuB5jMhD0NC6D/c+FCHckwoUQQogODH7aWKfxxWYAPj7diPHJkyc7sc0nIphQsQz0JVwtYpvoPohlwnLiG87xWM2JhoXFmigoPoQmPt4MomegJUKc8zEgk0GcjF1gAD5RuRDhDPjE6v3KK6+40IiMb0DI4z9e1/IuRDijEIVCiA4NFjgiOtDVTne5txojErDQIQ5YLwucCHfIz0zehBtIcIhCLN5YpYlaQpQUoqgwjoDoJVilEcZE4yEuOAMuKS8Ic0IIAvM1EJaQ/Yh2wjGIeM5H7Hks54hvxicgxLGEY+Um6gnXI10XXnjh6fj1RC9iHXHB2Y4lnFCIhDPkWLlWiUhB0VGEEB0arHSERMOCh0hg4ipAPBDOjW7zT3/6087qJ0Q4g281A3YRyLh2BA/WJYoO1moEL24hCHMWBC8yAeHNdlxMEMlsYz/ORUQUImjhOoJwZx2NV9ZTfnBpQXyzP41Z9mM94hwLN24quMQgsGkEcz1EOMKfTxoLpFeuVSLSkAgXQnRo6O4m9BowMQ2Cm4HIWP2Is43o+Ld/+zebNGmS20eISAU5wCBJhHJ9AyAR11jRg7ezPxP9zJ8/32bNmuXijHvYH8HNvvWJZ7+dbQ1d70zbhQh35I4ihOjQ0L1OdzoVPlY3rHzMnInVj+50fF4R4AxOQ6TQRU7XO8exDSsdooTvTFDC1NvET0Y4MDgNcUKcY/xd/W8shESBWLhwoUsDFkLcYoiXzMLkJlgSWY8rDOcmxjNd85xj165dbj/SiAUf/1lAENHFj48t+2K9JH1YIoU4G1i9ybcNuXvUtx1RjusWsxKTx9nu8fs3JKCbcz0hIglZwoUQHRpvCUfIUtkTUeTWW291wiLYEs7gtaeeesreeust14UOiG/i599yyy1OKP/nf/6nE/J+UhPE8re//W0n3p988kknvr/xjW+4iU/ofsc14KabbrLx48fbH//4R1u+fLmz/AH7TJw40VnmETrPPvusE/+s51qkD3GDb+7111/vGg8MgiN9CHpAwODbe8cdd7hGhBAtDXmbPOsFsxCi8ah/RwghAmDJoysdX/AVK1acFrKe9957z9599103gJOptZmSGys1kRu2bdvmRDFWaizY3raBdZ3fLMG/Eeocg+BnEBuWaxYaAjfeeKMb8EYUCEQ3oprjuC7HIXbwW2cGTBoBpBVLOxZ4LPdsR3T/x3/8h/Pb5Rw+tJwQLQ35jXwoAS5E05EIF0KIAIhh3E4QxriV4M4RzLp169xAMcKrEQfZR3nASo0QxjrdWBDbWNe/+c1vOtcXXEtYd+mllzoB/slPftKuuOIKF0ECNxQfTxnBM2HCBLvtttvcdODEAkfU02CgEYA7CpZ70r9jxw63329/+1s3qFQ+tUIIEVrorSyEEAEQuIRRQ+QitvET95ONAEKY6BKI8Yceesh+9atfOWs2VmrcU/hsLESlQPDjq42FGks1VnVcSvjEX5xoEMB18f0GjsMHHJcUFvbluljeia2cl5fn9sEi/sQTT9jPf/5ze+SRR5xvOPcnhBAidJAIF0KIWuhSx8caMY4/d7AIR/TS7T5lyhTn6vGjH/3IfvrTn9rPfvYzu/baa12YNQ9WcYSxF891QRD7SUc4J6HXENOIfMC67s/Bfj6eMzQkprHK/+u//qvdc889Lkwcgpx9mTCFwaBY1UV4wd+fBiGT5zC24K677rLvfve7zvef8QThAo1M0kwoUBquQohTSIQLIUQQzPaHNZzIJN63G4h4goV6z5497pPtzBz4y1/+0rmT4M7i/WLxE2fCE2YQDD5HfSCy8UUnbjL+34iUzZs3u2OxajMBCu4vZ+P555+322+/3VnpGYz53//9327iFNxQ8FWXT3h4QaMMl6if/OQnrleDHhjELNFvHnvsMdcTQxSdxrJ9+3b71re+ZV/72tecq1JLQUP1//7v/+yLX/yizZ07t3btR6EnhvEULA01TIXoiEiECyE6NFiLEap8eisz1nD8qBHV3pea2fyGDRvmIpz84Ac/sC9/+cvOyowgx7UESzQWdCzmWP2+8pWvODHtz+/he/BvjscXnOglhD386le/6sQSAy0HDx5sl1122elzsPg0+vT6daNHj3b+7Ag3rKZXX321C4GIyGe672BLvQh9sIDTsKLRx9/2vvvuc/mK3hfyGaEyX331VSeCaejRyGLxjT6/zrsr8cm4ARa/H5/0urDNfw8+B/D7TOs4lrEIfkwCv5uLTxPnYfHX8OtJX910BK/jk9/0KPl78fhtrCONdbcL0R4oTrgQokODgMUXG+sx1m6szwySTE9Pd78R3rh28Hvs2LFuXyp0LNRM/Y0FkO+chzCGiHF8vfmOoMaVBEGPcGIfzs1vorF4EMgIf66Newr+4EzR/alPfcpNHMRxiGm+YzX3MxlyLoQ36xjgiV845yJ9pAPxTaQUro3/uAgP+PvRI4IFnMYZITPJM/wNCW1JXqCRxoBctjPb5R/+8Ac3QJi8iHsT0XwIlbl161YnaOfMmeMi/zCQFws6eZrzE4aT83I8+2OtJv9xHvjhD3/oZo5lf3p/cGuiIYDVm33ovSGyD2MXmG0TYRuct4H1TH7FfXEfDG6uC2lk1s0HHnjAHn74YXvuuedcOrlfBD6W/6eeesrlZfI23Hvvve4eKKeUCe6fHiDGQdBAoTeK8sHz4nnefffdrieBmToJCcr4Cnq+hGgvFCdcCCGECCGw5C5YsMB+85vfuIbf97//fSckPYSkxE8cUU2MegTo448/7hpgRMRBBCOSiU1P44yQlsSgR+RiBabR9vnPf96JXdbTe0MjE+swFnh6gP73f//XRQBinAHW9v/6r/9yDVLCZBLVB3BtoTGA+xUNAa57ySWXuF6jYBDgjz76qLv2Zz7zGecmVRci+iCoEfM0JnHPQjhzzS996UtONNPzxHgHGqgMhqa3icYo90EPFWM1uBfi7nMfPCdEPw0JogzRw+THdvDMbr75ZjdLrhDthdxRhBBCiBACazJ+/AhMelWCBTggJOkFwULsB/OeCazlCFcs3IhthCzWaM4PxJzH3QXhjaUZqzTC+mzgSkWoTI6hAYD4rivAGwvCHxGP1f8LX/iC6wWi1wmrNffJOA3umcg/3DOfNBoYKM0zwnKOyJ89e7YT5whyLN0Iedy8AJsj52CCLCbWqq8xIERbIhEuhBBChBD4+SMsEY0IzrpCG1FK9BzcSHBhqo+mdHIjcBH2LH4wLy4kbQnuYKQDizUDPXFLQYB7H3PcuxD6jHnApQYRzrapU6e69BLNCHBhwXWFAco8G7YFD0SlEUKDBJcdLOJCtCcS4UIIIUQIgXjECswn7hn4dXtRjfAkwggClfEGiEkP27xo9QMbG0OwGPXH+0g/3lruz8VnY6zvTYUwmvike792BivzDDy4j+Tm5roGCINS8e3m/nFXIY0+3Yhs3Giw9E+cONGmTZvm/Mo9voEjRCggES6EEEKEEAhFRCduHvg6+0GGhPoj4g4DIYmawqDC/v37O7HuBTvxw1mw/uI3XRdcOLAkI6a9sMeqjLDn/N7C7AcsEnqT31wf33DcO+rGnPciGOt8aWlp7dqPg4DmHKTdLzQmGGDKfZHuK6+80vmNMxusbwj4dGKlx53kpZdecj7oWMG5b0Cgkw5cWnBlITrQ0KFD3fNh4GYwvmEhRHuj6ChCCCFEiIG1Fp9mBj4iUIlFj0B+88033TrEJYMgGWSJoEZ0E0scYbt69Wq3DyIcAcrgRFxNGNjIdvzNGbDJrLCIYAYxIq4JacmxWJM/97nPOZ9vYpNzfdxEEOLvvPOOE834qV944YUujVjqcRNBgOMyUlf0+ugopBELNhFV8DlnWbJkifNVpwFBGrDg0yAgbVyPBgnWbCKzYPUnjZyH9QxC5VhENddlkClWcsQ86fzHP/7hngGDL0kz1+PeCPspRCggES6EEEKEGFiBsYYTlhLLNVZmxDOWX4T3dddd53yoEaOIZUQ2+7Av1ms/WJJBmViHce3Ags0+RDjBxxrBjUCeNWuWE74IYVw3mPSJYxC3WMQR6Yhj3FBw8UAMcw3/HXcWzoOVHRcRLNDBcF7Ozz0RXpBj/YK4ppGAJZv7o1GAlZv0ca+cm+1MWIXwpzGA/zf3deONN7r7Bp4V5/KuOjQIeE7cC0IdEc6xWNgJBypEKKAQhUIIIUQIg7glZB9CEsGNkPWuGsGwH+KTAZtenNYFlxAWBC1hB7EeEz+bOOCcHyFbN6Y8MgFxjyCuG6nFw7UR6ezT0LXPBmnHco04pycg2G2E89OIePbZZ+21116zG264wa6//vrT7igeb0nneO5FricilJFPuBBCCBHCIGxxo8CKi7CsT4AD+yFgzySCEa3swzmCBSqilQGRdQU4sB/ivyEBDlwb15TmCnAgDVjsuU5d8Yx1HAFOrHPSgjW7vrSyDis5lnMJcBHqSIQLIYQQHRBcTXD1QNSGumDFEs6gTtxzcMUhAopEtgh35I4ihBBCdEBw/2BQJxbohqzroQLpxB0FSzsRUiTARSQgES6EEEIIIUQbIxEuhBBCRBi4b2A9JnoK/treckw8b7bxO3i9EKLtkQgXQgghIgzicRN3G3/v0aNHuwGdQOQQ4o3j1kGIQ1w7hBDtgwZmCiGEEBEGk+A88sgj9vDDDzvR7aeaZ/Kdp556ys06Wd+MmkKItkMiXAghhIhQCO3H7JFMYNNQxzduK2zftGmTmwiHCX08TKDD1PlEJgHOQcxw9id2Oe4tiHkm62HgJOuYlZNY5MDxzHDJDJ7bt2//iPBnYCizW5JGJvRhhkxm3/Tn9RD7m8bDhg0b3IQ77KtOfBEJaMZMIYQQIsJgEh6mm2fWTAQ0cbN79+7tvjN9PbG4p06d6qKiMBU8U8kvXbrUCXEENrNMEveb3y+88IITvsyEiT850+O/+uqrTmhzTqaK53gENdPT5+fnu6nrOWb+/Plu4ZpMbc/1/YRDCOt58+Y54Y1If/fdd93xiHjcZ9iPBsGCBQvcdP2kz0/Nz/1wb/JpF+GMLOFCCCFEhII/OIIVIYuVO9jCDIjjJ5980olthDE+47irILIBCzdCGR9z4HjOw6Q5HIMox9KNCJ8zZ44T0ohvrNtc88UXX3Tn4NxMl//yyy+7fRHjhw8ftvfff98dx/mxbiOwcZVBcGNFZ2r9Z555xq1nEh5gO+nDQi5EOCMRLoQQQkQoAwYMsEmTJjkBjLANdgdB9CKIEd7nnXeeXXHFFXbZZZc56zJTwyOmGwuCmMGe1157rV1yySXOZWXx4sVu4OdVV11lt99+u33yk590Fm6s9Fi/PURpueCCC9w+zIRJ3HJcV5hGH6GPmwtW+REjRtjFF1/sroEglxVchDsS4UIIIUSEgrsJbieIcQZr4iqC9Rpw9cDf21uzX3nlFWd5xtqNJRsLdmNhuvhBgwY5EY/bCgNBcTfJyspys3IyJT7rmaXzwIEDznXFwz4ci7BmRkyEO8fjq87+qampzhf8+eefd5Z20sf+oT7BkBBnQyJcCCGEiGAQwNOmTXPWatw/vDXcD24kljguKykpKc5SffXVV9sNN9xgiYmJp63NCGLgGAZU1gVrNvvzCezHwrlZwH/31/VgQffHIayDLdxjx461m2++2WbMmOHOz+BMfNT/+te/OncVIcIZiXAhhBAigkHUjh8/3rlz4Ivto58wOBPhjTAeOHCgXXPNNXbhhRda586dnShGkGOVRjTjv411HLcWBlHWhWt4sQ0MqkT8Y/VmgCiWbaKfsCD4sW43hkWLFjmXlOHDh9tNN91kt9xyixPty5Yt+0gUFyHCEYlwIYQQIsJBFM+cOdMyMzNPW5oRzd7CzEDHv/zlL26QJm4piG1cTHAPIQoJrikPPvigPfbYY05Inw1cSyZOnOhE/7PPPmv333+/Pf300y7yysiRIy03N7d2zzOD28rcuXPdYEys+PiSY9En+gqNBSHCGYUoFEIIISIMxC9iG8GLIMbNA+szbiVYt/ERxzLer18/F7kEKzdRT9iOC8isWbOcxRprOfvjh81ATazjWNUZPJmXl+fENO4tHMdvzgtsT09Pd1ZrBD0WcUQ9A0AR/qQJSzYuJb169bLBgwe7xgDnwt0F8c86xDbn4H7wXyeGOP7gDPbs37//R6zvQoQbmrZeCCGEiDAQrQhahDdWcC9WEbFEG8GKnJGR4dxOEL0IXCKa+PUIcA9iGUs4LiUIdsQy5+cTUY4455xch98eL9yJvsKxnBthTppIDwIc8U8DgePYThpII4KddXyyDxZx0sG+pIHBnN6PXIhwRSJcCCGEEEKINkb9OEIIIYQQQrQxEuFCCCGEEEK0MRLhQgghhBBCtDES4UIIIYQQQrQxEuFCCCGEEEK0MRLhQgghhBBCtDES4UIIIYQQQrQxEuFCCCGEEEK0MRLhQgghhBBCtDES4UIIIYQQQrQxEuFCCCGEEEK0MRLhQgghhBBCtDES4UIIIYQQQrQxEuFCCCGEEEK0MRLhQgghhBBCtDES4UIIIYQQQrQxEuFCCCGEEEK0MRLhQgghhBBCtDES4UIIIYQQQrQxEuFCCCGEEEK0MRLhQgghhBBCtDES4UIIIYQQQrQxEuFCCCGEEEK0MRLhQgghhBBCtDES4UIIIYQQQrQxEuFCCCGEEEK0MRLhQgghhBBCtDES4UIIIYQQQrQxEuFCCCGEEEK0MRLhQgghhBBCtDES4UIIIYQQQrQpZv8fG/0OuktzwTIAAAAASUVORK5CYII=;" vertex="1" parent="1">
          <mxGeometry x="79.99666666666661" y="430" width="737" height="571" as="geometry" />
        </mxCell>
        <mxCell id="iDzmI6JoH30mCq-5GOMa-1" value="" style="rounded=0;whiteSpace=wrap;html=1;fontSize=16;fillColor=#f5f5f5;fontColor=#333333;strokeColor=#666666;" vertex="1" parent="1">
          <mxGeometry x="310" y="260.5" width="150" height="20" as="geometry" />
        </mxCell>
        <mxCell id="iDzmI6JoH30mCq-5GOMa-2" value="" style="rounded=0;whiteSpace=wrap;html=1;fontSize=16;fillColor=#f5f5f5;fontColor=#333333;strokeColor=#666666;" vertex="1" parent="1">
          <mxGeometry x="310" y="320" width="150" height="20" as="geometry" />
        </mxCell>
      </root>
    </mxGraphModel>
  </diagram>
  <diagram id="981attD31xFI1BYu9kLH" name="Embedding Space">
    <mxGraphModel dx="1434" dy="886" grid="1" gridSize="10" guides="1" tooltips="1" connect="1" arrows="1" fold="1" page="0" pageScale="1" pageWidth="850" pageHeight="1100" math="0" shadow="0">
      <root>
        <mxCell id="0" />
        <mxCell id="1" parent="0" />
        <mxCell id="y6oNAHpvb_NVeSMSuksz-7" value="" style="ellipse;whiteSpace=wrap;html=1;fontSize=16;fillColor=#666666;strokeColor=none;fontColor=#333333;opacity=30;" parent="1" vertex="1">
          <mxGeometry x="175" y="80" width="105" height="80" as="geometry" />
        </mxCell>
        <mxCell id="y6oNAHpvb_NVeSMSuksz-1" value="" style="endArrow=classic;html=1;rounded=0;fontSize=12;startSize=8;endSize=8;curved=1;" parent="1" edge="1">
          <mxGeometry width="50" height="50" relative="1" as="geometry">
            <mxPoint x="160" y="290" as="sourcePoint" />
            <mxPoint x="160" y="80" as="targetPoint" />
          </mxGeometry>
        </mxCell>
        <mxCell id="y6oNAHpvb_NVeSMSuksz-2" value="" style="endArrow=classic;html=1;rounded=0;fontSize=12;startSize=8;endSize=8;curved=1;" parent="1" edge="1">
          <mxGeometry width="50" height="50" relative="1" as="geometry">
            <mxPoint x="140" y="280" as="sourcePoint" />
            <mxPoint x="280" y="280" as="targetPoint" />
          </mxGeometry>
        </mxCell>
        <mxCell id="y6oNAHpvb_NVeSMSuksz-3" value="" style="endArrow=classic;html=1;rounded=0;fontSize=12;startSize=8;endSize=8;curved=1;" parent="1" edge="1">
          <mxGeometry width="50" height="50" relative="1" as="geometry">
            <mxPoint x="170" y="270" as="sourcePoint" />
            <mxPoint x="120" y="320" as="targetPoint" />
          </mxGeometry>
        </mxCell>
        <mxCell id="y6oNAHpvb_NVeSMSuksz-4" value="" style="endArrow=classic;html=1;rounded=0;fontSize=12;startSize=8;endSize=8;curved=1;" parent="1" edge="1">
          <mxGeometry width="50" height="50" relative="1" as="geometry">
            <mxPoint x="170" y="290" as="sourcePoint" />
            <mxPoint x="80" y="200" as="targetPoint" />
          </mxGeometry>
        </mxCell>
        <mxCell id="y6oNAHpvb_NVeSMSuksz-5" value="" style="shape=ellipse;fillColor=#808080;strokeColor=#36393d;html=1;sketch=0;fontSize=16;" parent="1" vertex="1">
          <mxGeometry x="265" y="140" width="10" height="10" as="geometry" />
        </mxCell>
        <mxCell id="y6oNAHpvb_NVeSMSuksz-6" value="T&lt;sub&gt;i&lt;/sub&gt;" style="text;html=1;align=center;verticalAlign=middle;resizable=0;points=[];autosize=1;strokeColor=none;fillColor=none;fontSize=16;" parent="1" vertex="1">
          <mxGeometry x="207.5" y="200" width="40" height="40" as="geometry" />
        </mxCell>
        <mxCell id="y6oNAHpvb_NVeSMSuksz-8" value="" style="endArrow=classic;html=1;rounded=0;fontSize=12;startSize=8;endSize=8;curved=1;entryX=0.16;entryY=0.852;entryDx=0;entryDy=0;dashed=1;entryPerimeter=0;" parent="1" target="y6oNAHpvb_NVeSMSuksz-5" edge="1">
          <mxGeometry width="50" height="50" relative="1" as="geometry">
            <mxPoint x="160" y="280" as="sourcePoint" />
            <mxPoint x="270" y="170" as="targetPoint" />
          </mxGeometry>
        </mxCell>
        <mxCell id="y6oNAHpvb_NVeSMSuksz-9" value="" style="endArrow=classic;html=1;rounded=0;fontSize=12;startSize=8;endSize=8;curved=1;entryX=0.859;entryY=0.79;entryDx=0;entryDy=0;dashed=1;entryPerimeter=0;exitX=0.164;exitY=0.152;exitDx=0;exitDy=0;exitPerimeter=0;" parent="1" source="y6oNAHpvb_NVeSMSuksz-5" target="y6oNAHpvb_NVeSMSuksz-10" edge="1">
          <mxGeometry width="50" height="50" relative="1" as="geometry">
            <mxPoint x="265" y="140" as="sourcePoint" />
            <mxPoint x="242" y="119" as="targetPoint" />
          </mxGeometry>
        </mxCell>
        <mxCell id="y6oNAHpvb_NVeSMSuksz-10" value="" style="shape=ellipse;fillColor=#808080;strokeColor=#36393d;html=1;sketch=0;fontSize=16;" parent="1" vertex="1">
          <mxGeometry x="230" y="110" width="10" height="10" as="geometry" />
        </mxCell>
        <mxCell id="y6oNAHpvb_NVeSMSuksz-11" value="p&lt;sub&gt;i&lt;/sub&gt;" style="text;html=1;align=center;verticalAlign=middle;resizable=0;points=[];autosize=1;strokeColor=none;fillColor=none;fontSize=16;" parent="1" vertex="1">
          <mxGeometry x="247.5" y="100" width="40" height="40" as="geometry" />
        </mxCell>
        <mxCell id="y6oNAHpvb_NVeSMSuksz-12" value="" style="endArrow=classic;html=1;rounded=0;fontSize=12;startSize=8;endSize=8;curved=1;dashed=1;entryX=0.243;entryY=0.956;entryDx=0;entryDy=0;entryPerimeter=0;" parent="1" target="y6oNAHpvb_NVeSMSuksz-10" edge="1">
          <mxGeometry width="50" height="50" relative="1" as="geometry">
            <mxPoint x="160" y="280" as="sourcePoint" />
            <mxPoint x="265" y="150" as="targetPoint" />
          </mxGeometry>
        </mxCell>
        <mxCell id="y6oNAHpvb_NVeSMSuksz-13" value="T&lt;sup&gt;&#39;&lt;/sup&gt;&lt;sub&gt;i&lt;/sub&gt;" style="text;html=1;align=center;verticalAlign=middle;resizable=0;points=[];autosize=1;strokeColor=none;fillColor=none;fontSize=16;" parent="1" vertex="1">
          <mxGeometry x="160" y="170" width="40" height="40" as="geometry" />
        </mxCell>
      </root>
    </mxGraphModel>
  </diagram>
  <diagram id="C5RBs43oDa-KdzZeNtuy" name="Self Dot-Product Attention">
    <mxGraphModel dx="1434" dy="886" grid="1" gridSize="10" guides="1" tooltips="1" connect="1" arrows="1" fold="1" page="1" pageScale="1" pageWidth="827" pageHeight="1169" math="0" shadow="0">
      <root>
        <mxCell id="WIyWlLk6GJQsqaUBKTNV-0" />
        <mxCell id="WIyWlLk6GJQsqaUBKTNV-1" parent="WIyWlLk6GJQsqaUBKTNV-0" />
        <mxCell id="9ntnbME4EZqMdvPCxROu-0" value="" style="rounded=1;whiteSpace=wrap;html=1;fontSize=16;strokeColor=#bfbfbf;fillColor=#f5f5f5;fontColor=#333333;gradientColor=none;fillStyle=solid;" parent="WIyWlLk6GJQsqaUBKTNV-1" vertex="1">
          <mxGeometry x="180" y="250" width="440" height="240" as="geometry" />
        </mxCell>
        <mxCell id="3OObaCtso5E_lVeurlXQ-5" value="" style="ellipse;whiteSpace=wrap;html=1;fontSize=16;" parent="WIyWlLk6GJQsqaUBKTNV-1" vertex="1">
          <mxGeometry x="480" y="420" width="100" height="60" as="geometry" />
        </mxCell>
        <mxCell id="3OObaCtso5E_lVeurlXQ-4" value="" style="ellipse;whiteSpace=wrap;html=1;fontSize=16;" parent="WIyWlLk6GJQsqaUBKTNV-1" vertex="1">
          <mxGeometry x="480" y="310" width="100" height="60" as="geometry" />
        </mxCell>
        <mxCell id="3OObaCtso5E_lVeurlXQ-3" value="" style="ellipse;whiteSpace=wrap;html=1;fontSize=16;" parent="WIyWlLk6GJQsqaUBKTNV-1" vertex="1">
          <mxGeometry x="340" y="310" width="100" height="60" as="geometry" />
        </mxCell>
        <mxCell id="3OObaCtso5E_lVeurlXQ-2" value="" style="rounded=0;whiteSpace=wrap;html=1;fontSize=16;strokeColor=default;" parent="WIyWlLk6GJQsqaUBKTNV-1" vertex="1">
          <mxGeometry x="200" y="430" width="90" height="40" as="geometry" />
        </mxCell>
        <mxCell id="3OObaCtso5E_lVeurlXQ-1" value="" style="rounded=0;whiteSpace=wrap;html=1;fontSize=16;strokeColor=default;" parent="WIyWlLk6GJQsqaUBKTNV-1" vertex="1">
          <mxGeometry x="200" y="350" width="90" height="40" as="geometry" />
        </mxCell>
        <mxCell id="3OObaCtso5E_lVeurlXQ-0" value="" style="rounded=0;whiteSpace=wrap;html=1;fontSize=16;strokeColor=default;" parent="WIyWlLk6GJQsqaUBKTNV-1" vertex="1">
          <mxGeometry x="200" y="280" width="90" height="40" as="geometry" />
        </mxCell>
        <mxCell id="9ntnbME4EZqMdvPCxROu-10" style="edgeStyle=none;curved=1;rounded=0;orthogonalLoop=1;jettySize=auto;html=1;entryX=0;entryY=0.5;entryDx=0;entryDy=0;fontSize=12;startSize=8;endSize=8;" parent="WIyWlLk6GJQsqaUBKTNV-1" source="9ntnbME4EZqMdvPCxROu-1" edge="1">
          <mxGeometry relative="1" as="geometry">
            <mxPoint x="210" y="365" as="targetPoint" />
          </mxGeometry>
        </mxCell>
        <mxCell id="9ntnbME4EZqMdvPCxROu-1" value="Embedded Tokens" style="text;html=1;strokeColor=none;fillColor=none;align=center;verticalAlign=middle;whiteSpace=wrap;rounded=0;fontSize=16;" parent="WIyWlLk6GJQsqaUBKTNV-1" vertex="1">
          <mxGeometry x="60" y="350" width="90" height="30" as="geometry" />
        </mxCell>
        <mxCell id="9ntnbME4EZqMdvPCxROu-4" value="&lt;b&gt;Attention Block&lt;/b&gt;" style="text;html=1;strokeColor=none;fillColor=none;align=center;verticalAlign=middle;whiteSpace=wrap;rounded=0;fontSize=16;" parent="WIyWlLk6GJQsqaUBKTNV-1" vertex="1">
          <mxGeometry x="335" y="250" width="130" height="30" as="geometry" />
        </mxCell>
        <mxCell id="9ntnbME4EZqMdvPCxROu-6" value="Linear Layer" style="rounded=0;whiteSpace=wrap;html=1;fontSize=16;" parent="WIyWlLk6GJQsqaUBKTNV-1" vertex="1">
          <mxGeometry x="210" y="270" width="90" height="40" as="geometry" />
        </mxCell>
        <mxCell id="9ntnbME4EZqMdvPCxROu-9" value="" style="edgeStyle=segmentEdgeStyle;endArrow=classic;html=1;curved=0;rounded=0;endSize=8;startSize=8;sourcePerimeterSpacing=0;targetPerimeterSpacing=0;fontSize=12;entryX=0;entryY=0.5;entryDx=0;entryDy=0;exitX=1;exitY=0.5;exitDx=0;exitDy=0;" parent="WIyWlLk6GJQsqaUBKTNV-1" source="9ntnbME4EZqMdvPCxROu-1" target="9ntnbME4EZqMdvPCxROu-14" edge="1">
          <mxGeometry width="140" relative="1" as="geometry">
            <mxPoint x="130" y="370" as="sourcePoint" />
            <mxPoint x="210" y="435" as="targetPoint" />
            <Array as="points">
              <mxPoint x="160" y="365" />
              <mxPoint x="160" y="440" />
            </Array>
          </mxGeometry>
        </mxCell>
        <mxCell id="9ntnbME4EZqMdvPCxROu-12" value="" style="edgeStyle=segmentEdgeStyle;endArrow=classic;html=1;curved=0;rounded=0;endSize=8;startSize=8;sourcePerimeterSpacing=0;targetPerimeterSpacing=0;fontSize=12;entryX=0;entryY=0.5;entryDx=0;entryDy=0;" parent="WIyWlLk6GJQsqaUBKTNV-1" source="9ntnbME4EZqMdvPCxROu-1" target="9ntnbME4EZqMdvPCxROu-6" edge="1">
          <mxGeometry width="140" relative="1" as="geometry">
            <mxPoint x="140" y="365" as="sourcePoint" />
            <mxPoint x="200" y="290" as="targetPoint" />
            <Array as="points">
              <mxPoint x="160" y="290" />
            </Array>
          </mxGeometry>
        </mxCell>
        <mxCell id="9ntnbME4EZqMdvPCxROu-13" value="Linear Layer" style="rounded=0;whiteSpace=wrap;html=1;fontSize=16;" parent="WIyWlLk6GJQsqaUBKTNV-1" vertex="1">
          <mxGeometry x="210" y="345" width="90" height="40" as="geometry" />
        </mxCell>
        <mxCell id="9ntnbME4EZqMdvPCxROu-23" style="edgeStyle=none;curved=1;rounded=0;orthogonalLoop=1;jettySize=auto;html=1;fontSize=12;startSize=8;endSize=8;exitX=1.005;exitY=0.389;exitDx=0;exitDy=0;exitPerimeter=0;entryX=0;entryY=0.434;entryDx=0;entryDy=0;entryPerimeter=0;" parent="WIyWlLk6GJQsqaUBKTNV-1" source="9ntnbME4EZqMdvPCxROu-14" target="9ntnbME4EZqMdvPCxROu-22" edge="1">
          <mxGeometry relative="1" as="geometry" />
        </mxCell>
        <mxCell id="9ntnbME4EZqMdvPCxROu-14" value="Linear Layer" style="rounded=0;whiteSpace=wrap;html=1;fontSize=16;" parent="WIyWlLk6GJQsqaUBKTNV-1" vertex="1">
          <mxGeometry x="210" y="420" width="90" height="40" as="geometry" />
        </mxCell>
        <mxCell id="9ntnbME4EZqMdvPCxROu-21" style="edgeStyle=none;curved=1;rounded=0;orthogonalLoop=1;jettySize=auto;html=1;entryX=0;entryY=0.5;entryDx=0;entryDy=0;fontSize=12;startSize=8;endSize=8;" parent="WIyWlLk6GJQsqaUBKTNV-1" source="9ntnbME4EZqMdvPCxROu-15" target="9ntnbME4EZqMdvPCxROu-20" edge="1">
          <mxGeometry relative="1" as="geometry" />
        </mxCell>
        <mxCell id="9ntnbME4EZqMdvPCxROu-15" value="Matmul" style="ellipse;whiteSpace=wrap;html=1;fontSize=16;" parent="WIyWlLk6GJQsqaUBKTNV-1" vertex="1">
          <mxGeometry x="350" y="300" width="100" height="60" as="geometry" />
        </mxCell>
        <mxCell id="9ntnbME4EZqMdvPCxROu-18" value="" style="edgeStyle=elbowEdgeStyle;elbow=horizontal;endArrow=classic;html=1;curved=0;rounded=0;endSize=8;startSize=8;fontSize=12;exitX=1;exitY=0.5;exitDx=0;exitDy=0;entryX=0;entryY=0.5;entryDx=0;entryDy=0;" parent="WIyWlLk6GJQsqaUBKTNV-1" source="9ntnbME4EZqMdvPCxROu-6" target="9ntnbME4EZqMdvPCxROu-15" edge="1">
          <mxGeometry width="50" height="50" relative="1" as="geometry">
            <mxPoint x="410" y="340" as="sourcePoint" />
            <mxPoint x="460" y="290" as="targetPoint" />
          </mxGeometry>
        </mxCell>
        <mxCell id="9ntnbME4EZqMdvPCxROu-19" value="" style="edgeStyle=elbowEdgeStyle;elbow=horizontal;endArrow=classic;html=1;curved=0;rounded=0;endSize=8;startSize=8;fontSize=12;exitX=1;exitY=0.5;exitDx=0;exitDy=0;entryX=0;entryY=0.5;entryDx=0;entryDy=0;" parent="WIyWlLk6GJQsqaUBKTNV-1" source="9ntnbME4EZqMdvPCxROu-13" target="9ntnbME4EZqMdvPCxROu-15" edge="1">
          <mxGeometry width="50" height="50" relative="1" as="geometry">
            <mxPoint x="320" y="370" as="sourcePoint" />
            <mxPoint x="370" y="400" as="targetPoint" />
          </mxGeometry>
        </mxCell>
        <mxCell id="9ntnbME4EZqMdvPCxROu-24" style="edgeStyle=none;curved=1;rounded=0;orthogonalLoop=1;jettySize=auto;html=1;entryX=0.5;entryY=0;entryDx=0;entryDy=0;fontSize=12;startSize=8;endSize=8;" parent="WIyWlLk6GJQsqaUBKTNV-1" source="9ntnbME4EZqMdvPCxROu-20" target="9ntnbME4EZqMdvPCxROu-22" edge="1">
          <mxGeometry relative="1" as="geometry" />
        </mxCell>
        <mxCell id="9ntnbME4EZqMdvPCxROu-25" value="Weights 1...H" style="edgeLabel;html=1;align=center;verticalAlign=middle;resizable=0;points=[];fontSize=16;labelBackgroundColor=none;" parent="9ntnbME4EZqMdvPCxROu-24" vertex="1" connectable="0">
          <mxGeometry x="-0.08" relative="1" as="geometry">
            <mxPoint x="-60" y="2" as="offset" />
          </mxGeometry>
        </mxCell>
        <mxCell id="9ntnbME4EZqMdvPCxROu-20" value="Normalize" style="ellipse;whiteSpace=wrap;html=1;fontSize=16;" parent="WIyWlLk6GJQsqaUBKTNV-1" vertex="1">
          <mxGeometry x="490" y="300" width="100" height="60" as="geometry" />
        </mxCell>
        <mxCell id="3OObaCtso5E_lVeurlXQ-12" style="edgeStyle=none;curved=1;rounded=0;orthogonalLoop=1;jettySize=auto;html=1;fontSize=12;startSize=8;endSize=8;" parent="WIyWlLk6GJQsqaUBKTNV-1" source="9ntnbME4EZqMdvPCxROu-22" target="3OObaCtso5E_lVeurlXQ-9" edge="1">
          <mxGeometry relative="1" as="geometry" />
        </mxCell>
        <mxCell id="3OObaCtso5E_lVeurlXQ-13" style="edgeStyle=none;curved=1;rounded=0;orthogonalLoop=1;jettySize=auto;html=1;fontSize=12;startSize=8;endSize=8;" parent="WIyWlLk6GJQsqaUBKTNV-1" source="9ntnbME4EZqMdvPCxROu-22" target="3OObaCtso5E_lVeurlXQ-10" edge="1">
          <mxGeometry relative="1" as="geometry" />
        </mxCell>
        <mxCell id="3OObaCtso5E_lVeurlXQ-14" style="edgeStyle=none;curved=1;rounded=0;orthogonalLoop=1;jettySize=auto;html=1;fontSize=12;startSize=8;endSize=8;" parent="WIyWlLk6GJQsqaUBKTNV-1" source="9ntnbME4EZqMdvPCxROu-22" target="3OObaCtso5E_lVeurlXQ-11" edge="1">
          <mxGeometry relative="1" as="geometry" />
        </mxCell>
        <mxCell id="9ntnbME4EZqMdvPCxROu-22" value="Matmul" style="ellipse;whiteSpace=wrap;html=1;fontSize=16;" parent="WIyWlLk6GJQsqaUBKTNV-1" vertex="1">
          <mxGeometry x="490" y="410" width="100" height="60" as="geometry" />
        </mxCell>
        <mxCell id="9ntnbME4EZqMdvPCxROu-28" value="Queries" style="text;html=1;strokeColor=none;fillColor=none;align=center;verticalAlign=middle;whiteSpace=wrap;rounded=0;fontSize=16;" parent="WIyWlLk6GJQsqaUBKTNV-1" vertex="1">
          <mxGeometry x="225" y="250" width="60" height="20" as="geometry" />
        </mxCell>
        <mxCell id="9ntnbME4EZqMdvPCxROu-29" value="Keys" style="text;html=1;strokeColor=none;fillColor=none;align=center;verticalAlign=middle;whiteSpace=wrap;rounded=0;fontSize=16;" parent="WIyWlLk6GJQsqaUBKTNV-1" vertex="1">
          <mxGeometry x="225" y="325" width="60" height="20" as="geometry" />
        </mxCell>
        <mxCell id="9ntnbME4EZqMdvPCxROu-30" value="Values" style="text;html=1;strokeColor=none;fillColor=none;align=center;verticalAlign=middle;whiteSpace=wrap;rounded=0;fontSize=16;" parent="WIyWlLk6GJQsqaUBKTNV-1" vertex="1">
          <mxGeometry x="225" y="400" width="60" height="20" as="geometry" />
        </mxCell>
        <mxCell id="9ntnbME4EZqMdvPCxROu-33" style="edgeStyle=none;curved=1;rounded=0;orthogonalLoop=1;jettySize=auto;html=1;fontSize=12;startSize=8;endSize=8;exitX=0.387;exitY=0.989;exitDx=0;exitDy=0;exitPerimeter=0;" parent="WIyWlLk6GJQsqaUBKTNV-1" edge="1">
          <mxGeometry relative="1" as="geometry">
            <mxPoint x="149.99999999999997" y="512.83" as="sourcePoint" />
            <mxPoint x="190" y="512.83" as="targetPoint" />
          </mxGeometry>
        </mxCell>
        <mxCell id="9ntnbME4EZqMdvPCxROu-34" style="edgeStyle=none;curved=1;rounded=0;orthogonalLoop=1;jettySize=auto;html=1;fontSize=12;dashed=1;" parent="WIyWlLk6GJQsqaUBKTNV-1" edge="1">
          <mxGeometry relative="1" as="geometry">
            <mxPoint x="150" y="532.83" as="sourcePoint" />
            <mxPoint x="190" y="532.83" as="targetPoint" />
          </mxGeometry>
        </mxCell>
        <mxCell id="9ntnbME4EZqMdvPCxROu-35" value="Forward Propagation" style="text;html=1;align=left;verticalAlign=middle;resizable=0;points=[];autosize=1;strokeColor=none;fillColor=none;fontSize=16;" parent="WIyWlLk6GJQsqaUBKTNV-1" vertex="1">
          <mxGeometry x="190" y="498" width="170" height="30" as="geometry" />
        </mxCell>
        <mxCell id="9ntnbME4EZqMdvPCxROu-36" value="Back Propagation" style="text;html=1;align=left;verticalAlign=middle;resizable=0;points=[];autosize=1;strokeColor=none;fillColor=none;fontSize=16;" parent="WIyWlLk6GJQsqaUBKTNV-1" vertex="1">
          <mxGeometry x="190" y="518" width="150" height="30" as="geometry" />
        </mxCell>
        <mxCell id="9ntnbME4EZqMdvPCxROu-37" style="edgeStyle=none;curved=1;rounded=0;orthogonalLoop=1;jettySize=auto;html=1;entryX=0.598;entryY=0.992;entryDx=0;entryDy=0;fontSize=12;exitX=0.614;exitY=-0.01;exitDx=0;exitDy=0;entryPerimeter=0;exitPerimeter=0;dashed=1;" parent="WIyWlLk6GJQsqaUBKTNV-1" target="9ntnbME4EZqMdvPCxROu-20" edge="1">
          <mxGeometry relative="1" as="geometry">
            <mxPoint x="550" y="410" as="sourcePoint" />
            <mxPoint x="550" y="379" as="targetPoint" />
          </mxGeometry>
        </mxCell>
        <mxCell id="9ntnbME4EZqMdvPCxROu-38" style="edgeStyle=none;curved=1;rounded=0;orthogonalLoop=1;jettySize=auto;html=1;entryX=0.971;entryY=0.318;entryDx=0;entryDy=0;fontSize=12;exitX=0.04;exitY=0.311;exitDx=0;exitDy=0;entryPerimeter=0;exitPerimeter=0;dashed=1;" parent="WIyWlLk6GJQsqaUBKTNV-1" source="9ntnbME4EZqMdvPCxROu-20" target="9ntnbME4EZqMdvPCxROu-15" edge="1">
          <mxGeometry relative="1" as="geometry">
            <mxPoint x="440" y="345" as="sourcePoint" />
            <mxPoint x="440" y="295" as="targetPoint" />
          </mxGeometry>
        </mxCell>
        <mxCell id="9ntnbME4EZqMdvPCxROu-40" style="edgeStyle=none;curved=1;rounded=0;orthogonalLoop=1;jettySize=auto;html=1;entryX=1;entryY=0.75;entryDx=0;entryDy=0;fontSize=12;exitX=0.066;exitY=0.26;exitDx=0;exitDy=0;dashed=1;exitPerimeter=0;" parent="WIyWlLk6GJQsqaUBKTNV-1" source="9ntnbME4EZqMdvPCxROu-15" target="9ntnbME4EZqMdvPCxROu-6" edge="1">
          <mxGeometry relative="1" as="geometry">
            <mxPoint x="334.65999999999997" y="350" as="sourcePoint" />
            <mxPoint x="334.65999999999997" y="300" as="targetPoint" />
          </mxGeometry>
        </mxCell>
        <mxCell id="9ntnbME4EZqMdvPCxROu-41" style="edgeStyle=none;curved=1;rounded=0;orthogonalLoop=1;jettySize=auto;html=1;entryX=1;entryY=0.25;entryDx=0;entryDy=0;fontSize=12;exitX=0.071;exitY=0.763;exitDx=0;exitDy=0;dashed=1;exitPerimeter=0;" parent="WIyWlLk6GJQsqaUBKTNV-1" source="9ntnbME4EZqMdvPCxROu-15" target="9ntnbME4EZqMdvPCxROu-13" edge="1">
          <mxGeometry relative="1" as="geometry">
            <mxPoint x="375" y="319" as="sourcePoint" />
            <mxPoint x="310" y="310" as="targetPoint" />
          </mxGeometry>
        </mxCell>
        <mxCell id="9ntnbME4EZqMdvPCxROu-42" style="edgeStyle=none;curved=1;rounded=0;orthogonalLoop=1;jettySize=auto;html=1;entryX=0.998;entryY=0.617;entryDx=0;entryDy=0;fontSize=12;exitX=0.003;exitY=0.578;exitDx=0;exitDy=0;entryPerimeter=0;exitPerimeter=0;dashed=1;" parent="WIyWlLk6GJQsqaUBKTNV-1" source="9ntnbME4EZqMdvPCxROu-22" target="9ntnbME4EZqMdvPCxROu-14" edge="1">
          <mxGeometry relative="1" as="geometry">
            <mxPoint x="334.6" y="481" as="sourcePoint" />
            <mxPoint x="334.6" y="450" as="targetPoint" />
          </mxGeometry>
        </mxCell>
        <mxCell id="3OObaCtso5E_lVeurlXQ-7" value="H" style="text;html=1;align=center;verticalAlign=middle;resizable=0;points=[];autosize=1;strokeColor=none;fillColor=none;fontSize=16;" parent="WIyWlLk6GJQsqaUBKTNV-1" vertex="1">
          <mxGeometry x="160" y="230" width="40" height="30" as="geometry" />
        </mxCell>
        <mxCell id="3OObaCtso5E_lVeurlXQ-8" value="" style="shape=crossbar;whiteSpace=wrap;html=1;rounded=1;direction=south;fontSize=16;rotation=45;" parent="WIyWlLk6GJQsqaUBKTNV-1" vertex="1">
          <mxGeometry x="181.77" y="255.73" width="20" height="15" as="geometry" />
        </mxCell>
        <mxCell id="3OObaCtso5E_lVeurlXQ-18" style="edgeStyle=none;curved=1;rounded=0;orthogonalLoop=1;jettySize=auto;html=1;entryX=0;entryY=0;entryDx=0;entryDy=0;fontSize=12;startSize=8;endSize=8;" parent="WIyWlLk6GJQsqaUBKTNV-1" source="3OObaCtso5E_lVeurlXQ-9" target="3OObaCtso5E_lVeurlXQ-15" edge="1">
          <mxGeometry relative="1" as="geometry" />
        </mxCell>
        <mxCell id="3OObaCtso5E_lVeurlXQ-9" value="Attention 1" style="text;html=1;align=center;verticalAlign=middle;resizable=0;points=[];autosize=1;strokeColor=none;fillColor=none;fontSize=16;" parent="WIyWlLk6GJQsqaUBKTNV-1" vertex="1">
          <mxGeometry x="420" y="498" width="100" height="30" as="geometry" />
        </mxCell>
        <mxCell id="3OObaCtso5E_lVeurlXQ-17" style="edgeStyle=none;curved=1;rounded=0;orthogonalLoop=1;jettySize=auto;html=1;entryX=0.5;entryY=0;entryDx=0;entryDy=0;fontSize=12;startSize=8;endSize=8;" parent="WIyWlLk6GJQsqaUBKTNV-1" source="3OObaCtso5E_lVeurlXQ-10" target="3OObaCtso5E_lVeurlXQ-15" edge="1">
          <mxGeometry relative="1" as="geometry" />
        </mxCell>
        <mxCell id="3OObaCtso5E_lVeurlXQ-10" value="..." style="text;html=1;align=center;verticalAlign=middle;resizable=0;points=[];autosize=1;strokeColor=none;fillColor=none;fontSize=16;" parent="WIyWlLk6GJQsqaUBKTNV-1" vertex="1">
          <mxGeometry x="520" y="498" width="40" height="30" as="geometry" />
        </mxCell>
        <mxCell id="3OObaCtso5E_lVeurlXQ-16" style="edgeStyle=none;curved=1;rounded=0;orthogonalLoop=1;jettySize=auto;html=1;entryX=1;entryY=0;entryDx=0;entryDy=0;fontSize=12;startSize=8;endSize=8;" parent="WIyWlLk6GJQsqaUBKTNV-1" source="3OObaCtso5E_lVeurlXQ-11" target="3OObaCtso5E_lVeurlXQ-15" edge="1">
          <mxGeometry relative="1" as="geometry" />
        </mxCell>
        <mxCell id="3OObaCtso5E_lVeurlXQ-11" value="Attention H" style="text;html=1;align=center;verticalAlign=middle;resizable=0;points=[];autosize=1;strokeColor=none;fillColor=none;fontSize=16;" parent="WIyWlLk6GJQsqaUBKTNV-1" vertex="1">
          <mxGeometry x="560" y="498" width="100" height="30" as="geometry" />
        </mxCell>
        <mxCell id="3OObaCtso5E_lVeurlXQ-23" style="edgeStyle=none;curved=1;rounded=0;orthogonalLoop=1;jettySize=auto;html=1;fontSize=12;startSize=8;endSize=8;" parent="WIyWlLk6GJQsqaUBKTNV-1" source="3OObaCtso5E_lVeurlXQ-15" edge="1">
          <mxGeometry relative="1" as="geometry">
            <mxPoint x="540" y="620" as="targetPoint" />
          </mxGeometry>
        </mxCell>
        <mxCell id="3OObaCtso5E_lVeurlXQ-15" value="Concatenate" style="ellipse;whiteSpace=wrap;html=1;fontSize=16;" parent="WIyWlLk6GJQsqaUBKTNV-1" vertex="1">
          <mxGeometry x="485" y="548" width="110" height="45" as="geometry" />
        </mxCell>
      </root>
    </mxGraphModel>
  </diagram>
  <diagram id="ypwpl5yNRYLwHHjl5LDT" name="perceptron">
    <mxGraphModel dx="1195" dy="738" grid="1" gridSize="10" guides="1" tooltips="1" connect="1" arrows="1" fold="1" page="1" pageScale="1" pageWidth="850" pageHeight="1100" math="0" shadow="0">
      <root>
        <mxCell id="0" />
        <mxCell id="1" parent="0" />
        <mxCell id="RTO1b3sTiEh952vk0-IZ-1" value="" style="ellipse;whiteSpace=wrap;html=1;aspect=fixed;fontSize=16;" vertex="1" parent="1">
          <mxGeometry x="160" y="360" width="80" height="80" as="geometry" />
        </mxCell>
        <mxCell id="RTO1b3sTiEh952vk0-IZ-3" style="edgeStyle=none;curved=1;rounded=0;orthogonalLoop=1;jettySize=auto;html=1;entryX=0;entryY=0.5;entryDx=0;entryDy=0;fontSize=12;startSize=8;endSize=8;" edge="1" parent="1" source="RTO1b3sTiEh952vk0-IZ-2" target="RTO1b3sTiEh952vk0-IZ-1">
          <mxGeometry relative="1" as="geometry" />
        </mxCell>
        <mxCell id="RTO1b3sTiEh952vk0-IZ-2" value="..." style="text;html=1;align=center;verticalAlign=middle;resizable=0;points=[];autosize=1;strokeColor=none;fillColor=none;fontSize=16;rotation=-90;" vertex="1" parent="1">
          <mxGeometry x="60" y="385" width="40" height="30" as="geometry" />
        </mxCell>
        <mxCell id="RTO1b3sTiEh952vk0-IZ-4" value="x&lt;sub&gt;1&lt;/sub&gt;" style="text;html=1;align=center;verticalAlign=middle;resizable=0;points=[];autosize=1;strokeColor=none;fillColor=none;fontSize=16;" vertex="1" parent="1">
          <mxGeometry x="60" y="345" width="40" height="40" as="geometry" />
        </mxCell>
        <mxCell id="RTO1b3sTiEh952vk0-IZ-5" value="x&lt;span style=&quot;font-size: 11.1111px;&quot;&gt;&lt;sub&gt;n&lt;/sub&gt;&lt;/span&gt;" style="text;html=1;align=center;verticalAlign=middle;resizable=0;points=[];autosize=1;strokeColor=none;fillColor=none;fontSize=16;" vertex="1" parent="1">
          <mxGeometry x="60" y="415" width="40" height="30" as="geometry" />
        </mxCell>
        <mxCell id="RTO1b3sTiEh952vk0-IZ-6" style="edgeStyle=none;curved=1;rounded=0;orthogonalLoop=1;jettySize=auto;html=1;entryX=0.016;entryY=0.38;entryDx=0;entryDy=0;fontSize=12;startSize=8;endSize=8;entryPerimeter=0;" edge="1" parent="1" source="RTO1b3sTiEh952vk0-IZ-4" target="RTO1b3sTiEh952vk0-IZ-1">
          <mxGeometry relative="1" as="geometry" />
        </mxCell>
        <mxCell id="RTO1b3sTiEh952vk0-IZ-7" style="edgeStyle=none;curved=1;rounded=0;orthogonalLoop=1;jettySize=auto;html=1;entryX=0.019;entryY=0.633;entryDx=0;entryDy=0;entryPerimeter=0;fontSize=12;startSize=8;endSize=8;" edge="1" parent="1" source="RTO1b3sTiEh952vk0-IZ-5" target="RTO1b3sTiEh952vk0-IZ-1">
          <mxGeometry relative="1" as="geometry" />
        </mxCell>
        <mxCell id="RTO1b3sTiEh952vk0-IZ-9" value="Output" style="text;html=1;align=center;verticalAlign=middle;resizable=0;points=[];autosize=1;strokeColor=none;fillColor=none;fontSize=16;" vertex="1" parent="1">
          <mxGeometry x="270" y="385" width="70" height="30" as="geometry" />
        </mxCell>
        <mxCell id="RTO1b3sTiEh952vk0-IZ-10" style="edgeStyle=none;curved=1;rounded=0;orthogonalLoop=1;jettySize=auto;html=1;fontSize=12;startSize=8;endSize=8;" edge="1" parent="1" source="RTO1b3sTiEh952vk0-IZ-1" target="RTO1b3sTiEh952vk0-IZ-9">
          <mxGeometry relative="1" as="geometry" />
        </mxCell>
      </root>
    </mxGraphModel>
  </diagram>
  <diagram id="Av1-1IjhF28_KILusdYC" name="position-wise feed-forward network">
    <mxGraphModel dx="1687" dy="1042" grid="1" gridSize="10" guides="1" tooltips="1" connect="1" arrows="1" fold="1" page="1" pageScale="1" pageWidth="850" pageHeight="1100" math="0" shadow="0">
      <root>
        <mxCell id="0" />
        <mxCell id="1" parent="0" />
        <mxCell id="iR0qk32pXJJ-1izdPU7l-2" value="" style="rounded=0;whiteSpace=wrap;html=1;fontSize=16;fillColor=#f5f5f5;fontColor=#333333;strokeColor=#666666;" vertex="1" parent="1">
          <mxGeometry x="590" y="200" width="40" height="278" as="geometry" />
        </mxCell>
        <mxCell id="iR0qk32pXJJ-1izdPU7l-3" value="" style="rounded=0;whiteSpace=wrap;html=1;fontSize=16;fillColor=#f5f5f5;fontColor=#333333;strokeColor=#666666;" vertex="1" parent="1">
          <mxGeometry x="600" y="210" width="40" height="278" as="geometry" />
        </mxCell>
        <mxCell id="iR0qk32pXJJ-1izdPU7l-16" value="" style="rounded=0;whiteSpace=wrap;html=1;fontSize=16;fillColor=#f5f5f5;fontColor=#333333;strokeColor=#666666;" vertex="1" parent="1">
          <mxGeometry x="190" y="200" width="40" height="278" as="geometry" />
        </mxCell>
        <mxCell id="iR0qk32pXJJ-1izdPU7l-17" value="" style="rounded=0;whiteSpace=wrap;html=1;fontSize=16;fillColor=#f5f5f5;fontColor=#333333;strokeColor=#666666;" vertex="1" parent="1">
          <mxGeometry x="200" y="210" width="40" height="278" as="geometry" />
        </mxCell>
        <mxCell id="iR0qk32pXJJ-1izdPU7l-18" value="" style="rounded=0;whiteSpace=wrap;html=1;fontSize=16;" vertex="1" parent="1">
          <mxGeometry x="210" y="220" width="40" height="278" as="geometry" />
        </mxCell>
        <mxCell id="iR0qk32pXJJ-1izdPU7l-19" value="" style="whiteSpace=wrap;html=1;aspect=fixed;fontSize=16;" vertex="1" parent="1">
          <mxGeometry x="210" y="220" width="40" height="40" as="geometry" />
        </mxCell>
        <mxCell id="iR0qk32pXJJ-1izdPU7l-20" value="" style="whiteSpace=wrap;html=1;aspect=fixed;fontSize=16;" vertex="1" parent="1">
          <mxGeometry x="210" y="260" width="40" height="40" as="geometry" />
        </mxCell>
        <mxCell id="iR0qk32pXJJ-1izdPU7l-21" value="" style="whiteSpace=wrap;html=1;aspect=fixed;fontSize=16;" vertex="1" parent="1">
          <mxGeometry x="210" y="300" width="40" height="40" as="geometry" />
        </mxCell>
        <mxCell id="iR0qk32pXJJ-1izdPU7l-22" value="" style="whiteSpace=wrap;html=1;aspect=fixed;fontSize=16;" vertex="1" parent="1">
          <mxGeometry x="210" y="340" width="40" height="40" as="geometry" />
        </mxCell>
        <mxCell id="iR0qk32pXJJ-1izdPU7l-23" value="" style="whiteSpace=wrap;html=1;aspect=fixed;fontSize=16;" vertex="1" parent="1">
          <mxGeometry x="210" y="380" width="40" height="40" as="geometry" />
        </mxCell>
        <mxCell id="iR0qk32pXJJ-1izdPU7l-24" value="" style="whiteSpace=wrap;html=1;aspect=fixed;fontSize=16;" vertex="1" parent="1">
          <mxGeometry x="210" y="420" width="40" height="40" as="geometry" />
        </mxCell>
        <mxCell id="iR0qk32pXJJ-1izdPU7l-25" value="" style="whiteSpace=wrap;html=1;aspect=fixed;fontSize=16;" vertex="1" parent="1">
          <mxGeometry x="210" y="460" width="40" height="40" as="geometry" />
        </mxCell>
        <mxCell id="iR0qk32pXJJ-1izdPU7l-28" value="" style="shape=crossbar;whiteSpace=wrap;html=1;rounded=1;fontSize=16;rotation=40;" vertex="1" parent="1">
          <mxGeometry x="237.5" y="182" width="30" height="20" as="geometry" />
        </mxCell>
        <mxCell id="iR0qk32pXJJ-1izdPU7l-36" value="" style="rounded=0;whiteSpace=wrap;html=1;fontSize=16;" vertex="1" parent="1">
          <mxGeometry x="610" y="220" width="40" height="278" as="geometry" />
        </mxCell>
        <mxCell id="iR0qk32pXJJ-1izdPU7l-37" value="" style="whiteSpace=wrap;html=1;aspect=fixed;fontSize=16;" vertex="1" parent="1">
          <mxGeometry x="610" y="220" width="40" height="40" as="geometry" />
        </mxCell>
        <mxCell id="iR0qk32pXJJ-1izdPU7l-38" value="" style="whiteSpace=wrap;html=1;aspect=fixed;fontSize=16;" vertex="1" parent="1">
          <mxGeometry x="610" y="260" width="40" height="40" as="geometry" />
        </mxCell>
        <mxCell id="iR0qk32pXJJ-1izdPU7l-39" value="" style="whiteSpace=wrap;html=1;aspect=fixed;fontSize=16;" vertex="1" parent="1">
          <mxGeometry x="610" y="300" width="40" height="40" as="geometry" />
        </mxCell>
        <mxCell id="iR0qk32pXJJ-1izdPU7l-40" value="" style="whiteSpace=wrap;html=1;aspect=fixed;fontSize=16;" vertex="1" parent="1">
          <mxGeometry x="610" y="340" width="40" height="40" as="geometry" />
        </mxCell>
        <mxCell id="iR0qk32pXJJ-1izdPU7l-41" value="" style="whiteSpace=wrap;html=1;aspect=fixed;fontSize=16;" vertex="1" parent="1">
          <mxGeometry x="610" y="380" width="40" height="40" as="geometry" />
        </mxCell>
        <mxCell id="iR0qk32pXJJ-1izdPU7l-42" value="" style="whiteSpace=wrap;html=1;aspect=fixed;fontSize=16;" vertex="1" parent="1">
          <mxGeometry x="610" y="420" width="40" height="40" as="geometry" />
        </mxCell>
        <mxCell id="iR0qk32pXJJ-1izdPU7l-43" value="" style="whiteSpace=wrap;html=1;aspect=fixed;fontSize=16;" vertex="1" parent="1">
          <mxGeometry x="610" y="460" width="40" height="40" as="geometry" />
        </mxCell>
        <mxCell id="iR0qk32pXJJ-1izdPU7l-46" value="d&lt;sub&gt;model&lt;/sub&gt;" style="text;html=1;align=center;verticalAlign=middle;resizable=0;points=[];autosize=1;strokeColor=none;fillColor=none;fontSize=16;" vertex="1" parent="1">
          <mxGeometry x="650" y="321" width="70" height="40" as="geometry" />
        </mxCell>
        <mxCell id="iR0qk32pXJJ-1izdPU7l-47" value="d&lt;sub&gt;model&lt;/sub&gt;" style="text;html=1;align=center;verticalAlign=middle;resizable=0;points=[];autosize=1;strokeColor=none;fillColor=none;fontSize=16;" vertex="1" parent="1">
          <mxGeometry x="120" y="321" width="70" height="40" as="geometry" />
        </mxCell>
        <mxCell id="iR0qk32pXJJ-1izdPU7l-52" value="x&lt;span style=&quot;font-size: 13.3333px;&quot;&gt;&lt;sub&gt;i&lt;/sub&gt;&lt;/span&gt;" style="text;html=1;align=center;verticalAlign=middle;resizable=0;points=[];autosize=1;strokeColor=none;fillColor=none;fontSize=16;" vertex="1" parent="1">
          <mxGeometry x="215" y="500" width="30" height="40" as="geometry" />
        </mxCell>
        <mxCell id="iR0qk32pXJJ-1izdPU7l-53" value="" style="shape=curlyBracket;whiteSpace=wrap;html=1;rounded=1;labelPosition=left;verticalLabelPosition=middle;align=right;verticalAlign=middle;fontSize=16;rotation=-90;" vertex="1" parent="1">
          <mxGeometry x="227.5" y="492" width="5" height="40" as="geometry" />
        </mxCell>
        <mxCell id="iR0qk32pXJJ-1izdPU7l-67" value="N" style="text;html=1;align=center;verticalAlign=middle;resizable=0;points=[];autosize=1;strokeColor=none;fillColor=none;fontSize=16;" vertex="1" parent="1">
          <mxGeometry x="247.5" y="150" width="40" height="30" as="geometry" />
        </mxCell>
        <mxCell id="M_m6am9l_TU6V1y6_pKh-16" value="" style="rounded=0;whiteSpace=wrap;html=1;fontSize=16;fillColor=#f5f5f5;fontColor=#333333;strokeColor=#666666;" vertex="1" parent="1">
          <mxGeometry x="390" y="160" width="40" height="360" as="geometry" />
        </mxCell>
        <mxCell id="M_m6am9l_TU6V1y6_pKh-17" value="" style="rounded=0;whiteSpace=wrap;html=1;fontSize=16;fillColor=#f5f5f5;fontColor=#333333;strokeColor=#666666;" vertex="1" parent="1">
          <mxGeometry x="400" y="170" width="40" height="360" as="geometry" />
        </mxCell>
        <mxCell id="M_m6am9l_TU6V1y6_pKh-19" value="&lt;font style=&quot;font-size: 15px;&quot;&gt;ReLu&lt;/font&gt;" style="whiteSpace=wrap;html=1;aspect=fixed;fontSize=16;" vertex="1" parent="1">
          <mxGeometry x="410" y="180" width="40" height="40" as="geometry" />
        </mxCell>
        <mxCell id="M_m6am9l_TU6V1y6_pKh-20" value="&lt;font style=&quot;font-size: 15px;&quot;&gt;ReLu&lt;/font&gt;" style="whiteSpace=wrap;html=1;aspect=fixed;fontSize=16;" vertex="1" parent="1">
          <mxGeometry x="410" y="220" width="40" height="40" as="geometry" />
        </mxCell>
        <mxCell id="M_m6am9l_TU6V1y6_pKh-21" value="&lt;font style=&quot;font-size: 15px;&quot;&gt;ReLu&lt;/font&gt;" style="whiteSpace=wrap;html=1;aspect=fixed;fontSize=16;" vertex="1" parent="1">
          <mxGeometry x="410" y="260" width="40" height="40" as="geometry" />
        </mxCell>
        <mxCell id="M_m6am9l_TU6V1y6_pKh-22" value="&lt;font style=&quot;font-size: 15px;&quot;&gt;ReLu&lt;/font&gt;" style="whiteSpace=wrap;html=1;aspect=fixed;fontSize=16;" vertex="1" parent="1">
          <mxGeometry x="410" y="300" width="40" height="40" as="geometry" />
        </mxCell>
        <mxCell id="M_m6am9l_TU6V1y6_pKh-23" value="&lt;font style=&quot;font-size: 15px;&quot;&gt;ReLu&lt;/font&gt;" style="whiteSpace=wrap;html=1;aspect=fixed;fontSize=16;" vertex="1" parent="1">
          <mxGeometry x="410" y="340" width="40" height="40" as="geometry" />
        </mxCell>
        <mxCell id="M_m6am9l_TU6V1y6_pKh-24" value="&lt;font style=&quot;font-size: 15px;&quot;&gt;ReLu&lt;/font&gt;" style="whiteSpace=wrap;html=1;aspect=fixed;fontSize=16;" vertex="1" parent="1">
          <mxGeometry x="410" y="380" width="40" height="40" as="geometry" />
        </mxCell>
        <mxCell id="M_m6am9l_TU6V1y6_pKh-25" value="&lt;font style=&quot;font-size: 15px;&quot;&gt;ReLu&lt;/font&gt;" style="whiteSpace=wrap;html=1;aspect=fixed;fontSize=16;" vertex="1" parent="1">
          <mxGeometry x="410" y="420" width="40" height="40" as="geometry" />
        </mxCell>
        <mxCell id="M_m6am9l_TU6V1y6_pKh-26" value="&lt;font style=&quot;font-size: 15px;&quot;&gt;ReLu&lt;/font&gt;" style="whiteSpace=wrap;html=1;aspect=fixed;fontSize=16;" vertex="1" parent="1">
          <mxGeometry x="410" y="460" width="40" height="40" as="geometry" />
        </mxCell>
        <mxCell id="M_m6am9l_TU6V1y6_pKh-27" value="&lt;font style=&quot;font-size: 15px;&quot;&gt;ReLu&lt;/font&gt;" style="whiteSpace=wrap;html=1;aspect=fixed;fontSize=16;" vertex="1" parent="1">
          <mxGeometry x="410" y="500" width="40" height="40" as="geometry" />
        </mxCell>
        <mxCell id="M_m6am9l_TU6V1y6_pKh-40" value="1xFFn" style="text;html=1;align=center;verticalAlign=middle;resizable=0;points=[];autosize=1;strokeColor=none;fillColor=none;fontSize=16;" vertex="1" parent="1">
          <mxGeometry x="395" y="550" width="70" height="30" as="geometry" />
        </mxCell>
        <mxCell id="M_m6am9l_TU6V1y6_pKh-41" value="" style="shape=curlyBracket;whiteSpace=wrap;html=1;rounded=1;labelPosition=left;verticalLabelPosition=middle;align=right;verticalAlign=middle;fontSize=16;rotation=-90;" vertex="1" parent="1">
          <mxGeometry x="427.5" y="532" width="5" height="40" as="geometry" />
        </mxCell>
        <mxCell id="M_m6am9l_TU6V1y6_pKh-44" style="edgeStyle=none;curved=1;rounded=0;orthogonalLoop=1;jettySize=auto;html=1;entryX=0;entryY=0.5;entryDx=0;entryDy=0;fontSize=12;startSize=8;endSize=8;" edge="1" parent="1" source="M_m6am9l_TU6V1y6_pKh-43" target="M_m6am9l_TU6V1y6_pKh-23">
          <mxGeometry relative="1" as="geometry" />
        </mxCell>
        <mxCell id="M_m6am9l_TU6V1y6_pKh-43" value="" style="shape=curlyBracket;whiteSpace=wrap;html=1;rounded=1;flipH=1;labelPosition=right;verticalLabelPosition=middle;align=left;verticalAlign=middle;fontSize=16;" vertex="1" parent="1">
          <mxGeometry x="260" y="220" width="20" height="280" as="geometry" />
        </mxCell>
        <mxCell id="M_m6am9l_TU6V1y6_pKh-45" value="Linear Mapping" style="text;html=1;align=center;verticalAlign=middle;resizable=0;points=[];autosize=1;strokeColor=none;fillColor=none;fontSize=16;" vertex="1" parent="1">
          <mxGeometry x="265" y="331" width="130" height="30" as="geometry" />
        </mxCell>
        <mxCell id="M_m6am9l_TU6V1y6_pKh-47" style="edgeStyle=none;curved=1;rounded=0;orthogonalLoop=1;jettySize=auto;html=1;entryX=0;entryY=0.5;entryDx=0;entryDy=0;fontSize=12;startSize=8;endSize=8;" edge="1" parent="1" source="M_m6am9l_TU6V1y6_pKh-46" target="iR0qk32pXJJ-1izdPU7l-40">
          <mxGeometry relative="1" as="geometry" />
        </mxCell>
        <mxCell id="M_m6am9l_TU6V1y6_pKh-46" value="" style="shape=curlyBracket;whiteSpace=wrap;html=1;rounded=1;flipH=1;labelPosition=right;verticalLabelPosition=middle;align=left;verticalAlign=middle;fontSize=16;" vertex="1" parent="1">
          <mxGeometry x="460" y="180" width="20" height="360" as="geometry" />
        </mxCell>
        <mxCell id="M_m6am9l_TU6V1y6_pKh-48" value="Linear Mapping" style="text;html=1;align=center;verticalAlign=middle;resizable=0;points=[];autosize=1;strokeColor=none;fillColor=none;fontSize=16;" vertex="1" parent="1">
          <mxGeometry x="465" y="331" width="130" height="30" as="geometry" />
        </mxCell>
      </root>
    </mxGraphModel>
  </diagram>
</mxfile>
